<?xml version="1.0" standalone="no"?>
<!DOCTYPE svg PUBLIC "-//W3C//DTD SVG 20010904//EN"
 "http://www.w3.org/TR/2001/REC-SVG-20010904/DTD/svg10.dtd">
<svg version="1.0" xmlns="http://www.w3.org/2000/svg"
 width="680.000000pt" height="680.000000pt" viewBox="0 0 680.000000 680.000000"
 preserveAspectRatio="xMidYMid meet">
<metadata>
Created by potrace 1.14, written by Peter Selinger 2001-2017
</metadata>
<g transform="translate(0.000000,680.000000) scale(0.100000,-0.100000)"
fill="#000000" stroke="none">
<path d="M3910 6095 c-59 -19 -128 -78 -151 -129 -21 -46 -24 -120 -8 -163 38
-103 178 -154 274 -100 49 27 81 84 70 125 l-8 27 -9 -35 c-11 -41 -61 -96
-95 -105 -56 -14 -137 34 -172 102 -15 30 -14 99 3 131 48 92 166 130 308 98
94 -21 177 -70 278 -164 102 -94 203 -228 120 -158 -17 14 -49 30 -72 37 -23
6 -64 30 -92 54 -28 24 -76 63 -106 87 -39 31 -56 52 -58 72 -5 40 -42 32 -64
-14 -47 -95 43 -182 277 -270 60 -22 99 -46 153 -91 76 -64 97 -95 36 -54 -49
34 -133 49 -233 42 -96 -7 -157 -32 -285 -115 -84 -56 -112 -62 -156 -35 -51
30 -63 83 -29 127 20 26 50 33 84 19 14 -5 10 -9 -16 -17 -28 -9 -35 -17 -37
-42 -5 -53 56 -77 98 -39 46 42 13 134 -55 151 -67 17 -152 -58 -141 -124 6
-40 40 -89 78 -112 l30 -18 -64 -21 c-96 -32 -97 -34 -46 -69 80 -55 114 -52
173 16 l31 35 12 -53 c13 -57 30 -84 105 -169 99 -111 110 -155 55 -208 -44
-41 -70 -48 -108 -28 -31 16 -60 66 -60 103 0 21 36 72 51 72 5 0 7 -11 3 -24
-4 -17 1 -31 15 -45 27 -27 46 -27 65 1 21 30 20 50 -5 82 -17 21 -29 26 -65
26 -37 0 -51 -6 -76 -30 -28 -29 -30 -35 -26 -86 6 -68 29 -101 91 -133 47
-23 49 -23 92 -7 59 23 105 76 105 122 0 47 -20 82 -91 161 -33 37 -69 84 -80
104 -37 74 -16 170 51 237 18 18 34 31 36 29 3 -2 -5 -24 -16 -48 -71 -157 48
-330 199 -289 128 34 174 181 83 264 -36 32 -47 13 -15 -24 17 -19 34 -46 38
-58 7 -23 7 -24 -19 -6 -22 14 -31 15 -52 5 -30 -13 -31 -57 -1 -55 21 2 22
-9 2 -26 -21 -17 -49 -4 -68 33 -9 17 -27 44 -39 59 -31 39 -38 136 -12 159
89 77 282 33 358 -81 29 -44 43 -90 28 -90 -20 0 -42 -31 -42 -58 1 -48 43
-82 102 -82 23 0 29 -3 19 -9 -10 -7 -12 -20 -7 -51 l7 -43 -36 31 c-55 49
-94 65 -170 69 -82 5 -126 -13 -162 -67 -44 -63 -17 -140 48 -140 30 0 30 0
14 -30 -51 -99 29 -227 137 -218 29 3 38 0 42 -15 6 -23 39 -19 44 6 2 12 -3
17 -19 17 l-22 0 22 24 c30 32 38 89 17 121 -19 29 -42 34 -31 8 26 -68 4
-113 -56 -113 -85 0 -118 79 -69 169 31 59 128 78 207 40 48 -23 78 -66 118
-168 l24 -62 -22 7 c-12 3 -26 10 -31 15 -13 12 -53 12 -61 0 -3 -5 -21 -7
-41 -4 -33 6 -36 4 -32 -18 3 -25 48 -42 48 -18 0 7 6 5 13 -6 11 -14 22 -17
54 -12 28 5 46 2 61 -9 13 -9 61 -73 107 -142 46 -70 107 -154 134 -186 28
-33 49 -61 47 -63 -7 -7 -65 20 -70 33 -3 8 -13 14 -23 14 -25 0 -88 40 -113
72 -11 15 -32 53 -46 85 -44 101 -56 122 -82 139 -42 28 -76 33 -113 17 l-34
-15 42 -20 c52 -25 108 -97 129 -167 16 -55 75 -115 129 -130 l30 -9 -32 -1
c-116 -3 -244 -116 -191 -169 21 -21 50 -13 102 27 28 21 69 48 92 59 44 22
165 47 186 39 7 -3 2 -6 -12 -6 -46 -2 -99 -21 -131 -48 -34 -29 -79 -114 -79
-150 0 -39 18 -25 34 25 19 56 64 104 120 127 64 27 122 8 261 -85 39 -26 103
-64 143 -85 39 -20 72 -41 72 -46 0 -4 -22 -5 -50 -2 -62 7 -94 -12 -121 -70
-18 -41 -27 -132 -11 -125 60 26 148 87 162 112 29 49 39 56 73 56 l32 0 -30
-18 c-77 -47 -131 -148 -123 -226 16 -138 133 -245 267 -246 l46 -1 -27 -16
c-38 -24 -70 -86 -70 -137 l0 -44 -28 11 c-40 15 -80 -4 -80 -37 0 -31 27 -47
58 -35 24 9 30 34 10 42 -9 4 -9 6 -1 6 6 1 25 -10 41 -24 31 -26 48 -33 37
-15 -14 23 10 54 76 95 92 60 104 104 39 144 -31 18 -31 19 -8 24 60 16 134
109 147 185 6 33 7 32 50 -51 66 -129 66 -216 -1 -272 -44 -37 -82 -31 -86 13
-4 41 -26 42 -47 2 -27 -53 -12 -96 46 -126 29 -14 33 -14 77 8 26 13 58 39
71 58 l24 35 -7 -30 c-30 -128 -110 -189 -200 -151 -36 15 -38 18 -32 51 9 46
-1 61 -25 39 -22 -20 -25 -63 -6 -86 6 -9 28 -26 47 -37 29 -18 31 -21 13 -21
-12 0 -25 -4 -28 -10 -9 -15 34 -12 92 5 54 16 114 71 137 127 l13 29 17 -25
c9 -14 25 -26 35 -26 44 0 72 82 31 95 -32 10 -43 -4 -25 -31 14 -22 14 -24
-4 -24 -26 0 -31 18 -31 108 0 42 -7 102 -15 132 -8 30 -15 56 -15 57 0 1 15
-4 33 -12 88 -36 189 -27 248 22 60 51 86 153 58 232 -14 39 -25 40 -33 0 -4
-19 -21 -44 -43 -63 -96 -82 -99 -91 -55 -136 28 -28 28 -29 8 -34 -168 -45
-359 137 -302 289 l15 40 0 -41 c1 -56 36 -105 87 -123 37 -13 44 -12 80 5 21
10 47 34 58 52 18 32 18 36 3 67 -29 61 -103 85 -121 39 -5 -13 -2 -15 11 -9
48 21 83 -5 83 -61 0 -73 -110 -91 -145 -23 -34 65 -13 127 73 223 84 92 114
159 120 263 4 75 2 88 -22 138 -63 127 -213 148 -278 39 -14 -24 -27 -34 -45
-34 -89 0 -193 -78 -218 -163 -24 -80 -9 -134 53 -199 40 -42 39 -43 -41 -27
l-56 12 24 19 c14 11 25 26 25 33 0 18 -46 49 -60 40 -6 -4 -10 4 -10 19 0 14
-8 30 -17 35 -10 6 -12 11 -5 11 21 0 14 40 -7 40 -26 0 -36 -17 -21 -35 9
-10 9 -19 0 -35 -13 -24 1 -50 26 -50 7 0 11 -6 8 -14 -3 -8 -1 -24 5 -35 11
-20 10 -20 -26 -7 -162 58 -287 141 -424 283 -115 119 -199 238 -256 359 -35
76 -143 394 -143 421 0 7 -8 18 -19 25 -18 11 -17 13 11 36 25 21 29 31 26 65
-2 26 -9 43 -20 48 -10 5 -26 13 -35 17 -9 5 -35 55 -58 113 -86 216 -168 352
-270 448 -74 69 -195 144 -270 167 -73 22 -220 27 -275 9z m101 -725 c-19 -16
-26 -18 -38 -8 -13 10 -12 13 4 19 10 4 27 8 38 8 19 0 18 -1 -4 -19z m279
-137 c24 -13 60 -23 80 -24 32 0 33 -1 13 -11 -55 -26 -173 44 -173 103 0 21
2 19 18 -11 12 -22 35 -44 62 -57z m417 55 c-3 -8 -6 -5 -6 6 -1 11 2 17 5 13
3 -3 4 -12 1 -19z m-55 -163 c45 -16 100 -61 120 -99 10 -20 10 -20 -8 -4 -70
62 -179 62 -261 1 -31 -23 -32 -23 -43 -4 -24 46 -6 97 40 114 30 11 107 7
152 -8z m1536 -615 c128 -78 74 -360 -83 -431 -54 -25 -157 -25 -211 0 -107
49 -133 179 -52 258 63 61 133 70 174 24 14 -16 39 -35 55 -41 25 -11 29 -18
29 -50 0 -23 -8 -47 -20 -61 l-19 -24 6 36 c4 31 1 39 -27 62 -17 15 -40 27
-49 27 -28 0 -71 -49 -71 -80 0 -31 45 -76 86 -86 38 -10 96 17 122 56 20 29
23 44 19 97 -4 70 -16 90 -84 133 l-42 27 32 30 c51 49 84 54 135 23z m-173
-550 c-8 -16 -20 -52 -26 -79 l-11 -50 -50 34 c-56 39 -100 45 -148 20 -40
-21 -60 -53 -60 -96 0 -29 7 -43 31 -63 40 -34 61 -33 103 5 41 36 51 61 36
89 -15 28 5 26 24 -2 36 -52 10 -155 -48 -193 -123 -81 -296 13 -296 160 0 88
45 157 114 176 42 12 183 25 289 28 l58 1 -16 -30z"/>
<path d="M4646 5884 c-9 -8 -16 -20 -16 -25 0 -23 37 -78 92 -139 80 -88 120
-172 127 -264 6 -70 20 -89 33 -44 3 13 6 71 7 130 1 84 -3 119 -19 160 -54
143 -169 237 -224 182z"/>
<path d="M3145 5819 c-122 -13 -317 -56 -449 -100 -656 -220 -1179 -713 -1434
-1355 -63 -157 -135 -424 -119 -440 3 -4 29 -7 58 -8 l52 -1 38 145 c44 171
88 288 159 429 274 547 735 940 1321 1125 213 68 420 95 716 96 67 0 124 4
127 8 3 5 -2 32 -11 60 l-17 52 -180 -1 c-100 -1 -217 -5 -261 -10z"/>
<path d="M3219 5609 c-229 -19 -582 -124 -785 -234 -532 -290 -918 -788 -1060
-1370 -24 -101 -32 -215 -15 -215 16 0 19 11 46 139 50 237 172 529 303 726
108 161 329 391 502 521 209 157 482 280 780 351 94 22 135 25 392 31 157 4
290 10 294 15 37 37 -213 56 -457 36z"/>
<path d="M5215 5556 c-62 -20 -99 -42 -132 -80 -42 -46 -56 -96 -51 -172 3
-50 10 -72 33 -105 54 -77 163 -107 223 -62 44 32 72 82 72 125 0 87 -113 143
-168 85 -29 -31 -28 -72 4 -103 19 -20 31 -24 52 -19 33 8 51 23 63 50 7 15 8
11 4 -15 -6 -44 -54 -90 -94 -90 -38 0 -92 38 -114 80 -27 52 -19 137 17 184
54 72 148 95 232 57 135 -61 191 -203 129 -327 -14 -27 -68 -101 -121 -164
-54 -63 -109 -134 -124 -157 -15 -23 -30 -40 -34 -36 -3 3 -6 40 -6 81 0 70
-2 76 -33 107 -44 44 -166 71 -207 45 -12 -8 -11 -13 11 -37 14 -15 40 -52 58
-81 39 -61 65 -82 103 -82 33 0 35 -6 48 -135 21 -206 36 -247 116 -307 86
-66 188 -86 260 -52 46 22 56 39 18 30 -16 -3 -51 -8 -79 -10 -40 -3 -42 -2
-11 3 44 7 60 29 27 38 -26 7 -61 62 -61 95 0 14 15 45 33 69 63 82 71 113 37
144 -15 13 -30 16 -60 12 -22 -3 -40 -4 -40 -2 0 2 38 27 84 55 139 83 166
165 71 214 l-27 14 48 8 c65 9 158 -9 213 -43 62 -39 105 -99 126 -177 16 -57
16 -74 6 -121 -29 -130 -162 -172 -252 -79 -29 30 -34 42 -37 97 -5 79 4 88
98 95 75 5 88 18 48 46 -36 25 -101 20 -138 -10 -105 -89 -77 -251 57 -318 39
-20 122 -21 167 -2 46 19 93 80 107 139 35 148 -51 316 -199 385 -52 25 -67
27 -183 27 l-126 0 24 32 c56 73 76 180 52 267 -15 56 -99 140 -173 175 -76
36 -120 43 -171 27z m285 -576 c-41 -41 -9 -106 40 -80 23 13 27 48 5 56 -18
7 -20 24 -3 24 21 0 48 -32 48 -57 0 -41 -16 -59 -103 -116 -105 -69 -162
-133 -183 -204 -19 -67 -11 -122 24 -166 l26 -32 -31 29 c-50 45 -76 117 -76
209 0 69 4 86 37 152 39 80 98 140 176 181 56 29 66 30 40 4z m-103 -554 c19
-20 22 -26 8 -18 -32 16 -62 55 -69 87 -6 30 -6 30 13 -5 11 -20 32 -48 48
-64z"/>
<path d="M4987 5503 c-11 -10 -8 -20 9 -38 12 -12 19 -13 30 -4 23 19 17 49
-9 49 -13 0 -27 -3 -30 -7z"/>
<path d="M4947 5449 c-21 -12 -22 -48 -2 -55 11 -5 8 -11 -12 -29 -25 -21 -26
-25 -15 -61 44 -141 123 -215 235 -221 66 -3 63 1 -28 32 -60 21 -130 89 -140
136 -5 22 -4 34 4 37 17 6 13 58 -6 77 -16 16 -16 18 0 27 9 5 17 18 17 28 0
25 -30 41 -53 29z"/>
<path d="M3660 4943 c-43 -53 -82 -135 -88 -188 l-5 -45 -51 0 c-77 0 -96 -8
-96 -38 0 -14 -12 -38 -26 -53 -32 -34 -27 -55 28 -115 43 -47 72 -59 161 -70
47 -5 55 -9 46 -20 -17 -21 9 -18 78 8 89 33 233 181 233 240 0 30 -16 20 -33
-19 l-16 -38 6 53 c4 35 2 52 -6 52 -6 0 -12 -10 -13 -22 0 -13 -4 34 -8 105
-4 74 -11 132 -18 139 -9 9 -24 4 -62 -20 -29 -18 -55 -30 -60 -27 -5 3 -11
23 -15 45 -4 22 -10 42 -15 45 -5 3 -22 -12 -40 -32z m36 -60 c9 -20 34 -63
57 -95 39 -55 42 -65 42 -121 -1 -45 -8 -77 -26 -117 l-25 -54 -48 44 c-64 59
-86 107 -86 191 0 55 5 77 32 128 17 33 33 61 35 61 2 0 11 -16 19 -37z m142
-153 l1 -65 -13 47 c-7 26 -25 64 -39 86 -15 21 -27 42 -27 48 0 5 15 19 33
32 l32 22 7 -52 c3 -29 6 -82 6 -118z m-275 -69 c8 -8 -4 -11 -50 -11 -59 0
-81 8 -65 25 10 10 101 0 115 -14z m40 -79 c43 -29 103 -99 93 -109 -4 -4 -44
-7 -89 -7 -92 -1 -133 16 -175 73 -34 46 -29 57 32 72 46 10 96 0 139 -29z"/>
<path d="M4201 4761 c-6 -11 -11 -26 -11 -33 0 -22 -19 -44 -27 -32 -11 15
-90 64 -104 64 -7 0 -9 -13 -4 -39 4 -25 -1 -68 -14 -123 -12 -47 -21 -94 -22
-104 0 -13 -4 -11 -11 9 -5 15 -14 27 -19 27 -14 0 0 -50 27 -95 55 -93 80
-119 144 -152 57 -30 66 -32 76 -18 6 8 26 15 45 15 65 0 112 20 157 67 43 47
53 77 28 86 -7 3 -16 24 -20 46 -7 44 -14 48 -91 53 -39 3 -40 4 -46 50 -8 54
-54 160 -79 183 -17 16 -19 15 -29 -4z m72 -191 c0 -68 -28 -136 -73 -173 -45
-39 -62 -32 -83 34 -24 73 -14 114 53 204 28 37 50 73 50 79 1 6 13 -11 27
-39 19 -36 26 -65 26 -105z m-133 105 c11 -13 10 -19 -7 -38 -12 -12 -30 -40
-42 -62 l-22 -40 5 40 c16 136 16 136 35 126 10 -6 24 -17 31 -26z m275 -185
c-3 -5 -30 -10 -58 -10 -37 0 -48 3 -37 10 20 13 103 13 95 0z m0 -62 c34 -15
32 -42 -7 -72 -50 -37 -116 -51 -178 -36 -27 7 -50 14 -50 16 0 3 23 27 52 54
49 47 56 50 105 50 29 0 64 -5 78 -12z"/>
<path d="M2364 4500 c-98 -14 -212 -61 -303 -123 -107 -73 -323 -288 -307
-305 4 -3 45 33 94 80 206 200 385 289 582 290 100 0 156 -13 211 -53 31 -22
74 -94 64 -109 -3 -4 -29 -16 -58 -25 -132 -43 -284 -143 -431 -285 -242 -232
-363 -488 -302 -635 60 -142 368 -61 564 149 179 192 301 466 302 681 0 28 4
56 8 63 10 15 105 32 179 32 74 0 150 -18 180 -44 l25 -22 -76 -67 c-41 -38
-103 -103 -137 -145 -57 -70 -107 -145 -360 -534 -139 -214 -264 -341 -409
-417 -180 -94 -348 -105 -427 -26 -50 50 -44 125 10 125 29 0 77 53 70 79 -12
47 -90 31 -132 -27 -28 -40 -43 -111 -31 -152 19 -65 95 -122 180 -135 102
-15 319 46 447 126 150 92 255 198 401 402 44 62 88 119 96 126 23 19 106 6
106 -17 0 -9 -21 -62 -46 -117 -74 -158 -93 -221 -94 -299 0 -68 1 -70 40
-108 23 -21 47 -38 55 -38 22 0 19 -9 -21 -52 -54 -60 -94 -152 -94 -217 0
-112 39 -176 142 -232 63 -34 64 -34 193 -34 119 1 137 3 217 32 243 85 411
241 857 792 90 110 165 201 167 201 3 0 -19 -33 -47 -72 -192 -270 -379 -579
-429 -711 -35 -91 -38 -162 -7 -181 16 -9 27 -1 80 54 34 36 111 130 171 210
143 189 316 407 437 550 162 192 174 202 57 45 -61 -82 -136 -187 -165 -233
-104 -158 -172 -332 -173 -437 0 -56 37 -124 80 -147 44 -23 83 -23 159 1 256
80 541 421 497 595 -8 31 -52 56 -98 56 -107 0 -278 -156 -388 -352 -50 -90
-30 -90 34 1 110 157 272 291 354 291 65 0 65 -46 0 -172 -73 -142 -220 -276
-376 -344 -129 -56 -198 -39 -195 47 5 123 383 747 660 1087 153 188 166 206
153 210 -21 7 -95 -53 -254 -208 -273 -266 -483 -507 -796 -915 -89 -115 -164
-212 -167 -215 -11 -10 53 99 267 450 370 607 472 780 467 793 -10 24 -287
-274 -557 -598 -392 -470 -550 -623 -745 -716 -95 -46 -207 -65 -321 -54 -173
16 -254 145 -178 284 54 100 162 178 280 201 79 15 122 4 152 -40 49 -73 18
-143 -96 -217 -67 -42 -60 -62 13 -37 103 34 165 103 165 182 0 38 -23 97 -48
126 -47 53 -155 70 -262 41 -138 -37 -238 -1 -215 78 4 12 37 85 73 162 51
110 67 155 75 215 13 101 10 96 59 121 61 31 189 164 221 230 42 85 54 156 38
236 -21 112 -24 104 55 145 263 138 631 124 873 -32 74 -48 100 -52 50 -7 -45
40 -170 111 -250 144 -212 86 -460 66 -730 -59 l-76 -35 -26 19 c-72 52 -226
74 -374 54 l-52 -8 -20 40 c-50 97 -123 146 -244 162 -39 5 -76 9 -82 8 -5 0
-33 -4 -61 -8z m363 -296 c9 -24 -15 -150 -48 -249 -80 -240 -285 -498 -468
-588 -85 -42 -192 -50 -231 -19 -22 18 -25 27 -23 81 9 248 341 620 679 761
82 34 83 34 91 14z m497 -157 c0 -49 -7 -90 -22 -127 -28 -71 -113 -183 -180
-237 -49 -40 -57 -43 -112 -43 -33 0 -60 3 -60 6 0 8 148 262 182 312 16 24
61 75 99 115 83 86 94 83 93 -26z"/>
<path d="M4025 4090 c-58 -24 -78 -75 -60 -157 6 -28 4 -34 -19 -44 -26 -12
-26 -12 -6 -31 29 -27 26 -58 -4 -58 -37 0 -56 -10 -56 -31 0 -26 38 -49 83
-49 25 0 40 -5 44 -15 8 -23 1 -26 -41 -14 -80 22 -149 -30 -144 -109 4 -61
40 -90 95 -76 31 7 39 14 41 37 4 34 -13 57 -42 56 -20 0 -20 -1 2 -11 33 -16
26 -52 -11 -56 -83 -10 -74 110 10 131 34 8 107 -12 120 -32 10 -17 9 -20 -13
-25 -20 -5 -25 -12 -22 -34 2 -21 11 -29 36 -37 32 -9 34 -11 28 -48 -12 -70
-45 -114 -243 -318 -110 -113 -153 -166 -153 -188 0 -10 10 -3 27 19 15 19
106 114 204 210 190 189 221 233 238 341 10 63 -3 162 -26 199 -8 14 -40 48
-70 77 -64 60 -65 78 -9 109 48 27 70 65 62 107 -11 53 -29 65 -71 47z m10
-290 l29 -30 -24 -25 c-27 -29 -31 -25 -44 48 -8 45 1 47 39 7z m74 -163 l0
-62 -21 42 c-18 36 -20 46 -10 68 19 41 32 20 31 -48z"/>
<path d="M3583 4030 c-10 -11 -24 -20 -33 -20 -25 0 -60 -29 -60 -51 0 -27 34
-59 58 -52 14 3 24 -2 31 -15 11 -21 -1 -38 -46 -61 -22 -11 -23 -10 -23 24 0
62 -58 56 -81 -9 -11 -29 -19 -36 -68 -49 -164 -46 -254 -254 -177 -411 34
-70 98 -126 243 -217 62 -38 137 -90 167 -114 58 -48 66 -52 66 -34 0 21 -75
82 -216 174 -198 131 -264 212 -264 326 0 44 31 132 59 168 18 24 20 24 45 8
14 -9 42 -17 61 -17 20 0 45 -5 57 -11 28 -15 65 -3 84 26 23 35 10 44 -21 15
l-25 -23 0 27 c0 34 -21 42 -53 22 -22 -15 -25 -15 -37 -1 -7 9 -10 19 -6 23
10 10 97 8 119 -2 13 -6 17 -4 17 9 0 19 20 15 93 -21 52 -27 53 -28 32 -64
-8 -14 -14 -35 -15 -46 0 -45 80 -112 119 -99 21 6 41 45 41 79 0 33 -40 88
-70 97 -14 3 -49 23 -79 43 -29 20 -57 36 -62 36 -5 0 -9 5 -9 10 0 6 6 10 14
10 21 0 73 64 81 100 8 36 -3 127 -16 135 -5 3 -16 -3 -26 -15z m3 -66 c18
-15 18 -15 -8 -9 -21 4 -28 2 -28 -10 0 -19 -14 -19 -29 -2 -8 10 -7 17 1 25
16 16 41 15 64 -4z m-156 -266 c0 -5 -4 -8 -10 -8 -5 0 -10 10 -10 23 0 18 2
19 10 7 5 -8 10 -18 10 -22z"/>
<path d="M3725 3942 c-17 -10 -45 -36 -64 -57 l-34 -39 27 -22 c27 -24 84 -44
124 -44 33 0 81 30 88 55 4 11 13 28 22 38 8 9 13 18 11 20 -2 2 -21 17 -42
35 -44 37 -86 42 -132 14z m48 -32 c7 0 18 -9 25 -20 11 -18 10 -20 -8 -20
-12 0 -20 7 -20 16 0 9 -6 14 -12 11 -7 -2 -22 -1 -33 4 -19 8 -19 8 3 15 12
3 23 11 23 18 1 6 3 3 6 -6 2 -10 10 -18 16 -18z"/>
<path d="M765 3830 c-34 -36 -27 -38 26 -8 l38 21 48 -30 c47 -29 53 -40 38
-75 -5 -14 -2 -18 14 -18 14 0 23 8 27 25 12 47 -3 71 -55 94 -69 29 -101 27
-136 -9z"/>
<path d="M1141 3741 c-14 -25 3 -38 24 -21 10 8 15 9 15 2 0 -6 -10 -18 -22
-26 l-22 -16 26 0 c31 0 51 21 46 52 -4 31 -52 38 -67 9z"/>
<path d="M578 3726 c-12 -28 -5 -54 17 -63 26 -9 42 14 27 38 -8 12 -10 24 -7
27 12 12 45 -39 45 -69 0 -31 14 -39 24 -13 8 21 8 79 -1 71 -3 -4 -12 2 -20
13 -21 29 -70 27 -85 -4z"/>
<path d="M752 3705 c-18 -15 -42 -46 -54 -68 -25 -49 -35 -143 -19 -187 10
-29 9 -31 -7 -25 -101 44 -181 42 -254 -4 -71 -45 -101 -125 -82 -220 8 -39
15 -39 38 0 10 16 36 43 59 60 22 16 47 38 55 50 19 28 8 65 -26 83 l-27 14
30 8 c87 24 186 -7 250 -78 63 -69 78 -129 54 -224 -16 -62 -25 -62 -21 -1 3
41 -1 59 -20 87 -27 39 -84 66 -123 56 -36 -9 -75 -50 -75 -78 0 -22 2 -21 25
9 31 39 73 50 113 29 36 -19 42 -33 42 -100 0 -61 -20 -97 -102 -183 -73 -79
-103 -149 -103 -248 0 -64 5 -90 24 -128 33 -68 89 -107 152 -107 42 0 55 5
89 36 22 20 40 43 40 50 0 20 -12 17 -38 -11 -13 -14 -42 -30 -63 -37 -91 -27
-152 48 -153 187 0 94 20 149 78 207 58 59 91 73 177 73 67 0 81 -3 124 -30
83 -52 106 -131 62 -215 -16 -30 -37 -51 -67 -67 -49 -26 -130 -32 -130 -10 0
17 -38 53 -46 44 -4 -4 -1 -14 6 -22 11 -14 8 -13 -25 2 -25 12 -32 19 -21 21
17 4 23 22 6 22 -25 0 0 104 29 119 14 8 16 4 13 -30 -5 -48 18 -79 58 -79 44
0 62 21 62 69 -1 79 -64 109 -147 72 -53 -23 -81 -73 -71 -125 3 -17 7 -41 10
-54 9 -57 98 -112 181 -112 123 0 215 96 215 222 0 61 -29 118 -76 148 l-29
20 30 0 c17 0 53 -6 80 -13 41 -11 46 -14 27 -19 -20 -5 -23 -12 -20 -40 2
-27 7 -33 27 -33 33 0 50 29 33 55 -15 24 -17 24 49 1 189 -64 385 -217 528
-411 82 -110 168 -290 227 -470 67 -210 63 -200 92 -200 24 0 24 2 19 45 -7
50 0 56 29 24 34 -38 101 -70 158 -76 101 -10 183 41 201 124 5 27 2 37 -19
58 -26 26 -76 34 -76 12 0 -7 7 -23 16 -35 14 -21 14 -25 0 -47 -27 -41 -64
-59 -120 -59 -73 1 -128 32 -201 114 -30 33 -23 33 26 -1 132 -92 324 22 295
175 -12 64 -75 116 -141 116 -64 0 -117 -100 -81 -155 23 -36 40 -31 20 6 -43
84 76 147 135 72 44 -55 33 -114 -29 -167 -109 -91 -231 -32 -300 145 -16 43
-30 81 -30 83 0 3 15 -3 33 -13 49 -29 74 -34 89 -18 9 11 17 12 30 3 14 -8
21 -7 34 6 9 9 13 21 10 27 -9 14 -43 14 -51 0 -5 -6 -11 -4 -19 7 -10 13 -21
15 -50 10 -27 -5 -44 -3 -61 8 -14 9 -67 80 -118 158 -52 79 -120 171 -151
204 l-55 62 51 6 c81 11 144 50 175 109 24 46 8 42 -44 -11 -53 -56 -109 -77
-168 -66 -20 3 -73 29 -118 57 -45 28 -116 70 -157 93 -41 24 -88 51 -105 61
l-30 18 71 5 c82 6 108 22 124 79 12 43 13 101 2 101 -14 0 -139 -70 -152 -85
-7 -8 -13 -26 -14 -40 -1 -23 -5 -25 -46 -24 -39 0 -42 2 -26 12 84 53 115
109 116 207 0 116 -64 209 -169 245 -162 55 -321 -44 -321 -200 0 -47 40 -116
80 -137 69 -36 155 -16 186 43 21 41 5 82 -41 103 -72 34 -119 5 -113 -70 4
-51 -2 -54 -31 -18 -15 19 -21 41 -21 75 0 40 5 54 32 85 102 116 287 68 328
-84 22 -86 -23 -182 -105 -222 -42 -20 -68 -24 -202 -28 l-153 -5 17 34 c12
23 17 59 18 114 0 76 -2 85 -49 178 -42 83 -49 106 -49 155 0 71 23 115 72
138 41 20 64 10 69 -30 4 -30 27 -34 42 -7 29 55 -8 119 -76 128 -34 4 -45 1
-72 -22z"/>
<path d="M1050 3692 c-19 -20 -56 -52 -82 -69 -39 -26 -48 -38 -48 -62 0 -38
24 -56 72 -55 31 1 47 9 71 33 30 29 32 37 35 111 2 44 0 80 -4 79 -5 0 -25
-17 -44 -37z"/>
<path d="M5441 3188 c-5 -13 -16 -61 -26 -108 -43 -210 -200 -564 -332 -750
-78 -109 -293 -334 -403 -423 -201 -162 -464 -293 -751 -375 -73 -21 -134 -43
-136 -49 -21 -61 303 34 562 165 519 263 898 715 1070 1279 39 125 57 265 36
277 -6 4 -15 -2 -20 -16z"/>
<path d="M5823 3153 c9 -9 19 -14 23 -11 10 10 -6 28 -24 28 -15 0 -15 -1 1
-17z"/>
<path d="M530 3132 c0 -18 29 -52 43 -52 3 0 -3 16 -14 35 -24 40 -29 43 -29
17z"/>
<path d="M5574 3099 c-2 -5 -20 -64 -39 -131 -178 -649 -589 -1141 -1205
-1441 -124 -61 -159 -82 -145 -87 11 -4 50 -16 86 -28 l66 -21 132 69 c73 38
170 94 217 126 482 320 842 832 975 1387 17 71 20 100 12 108 -15 15 -92 29
-99 18z"/>
<path d="M1130 2831 c0 -23 14 -41 30 -41 16 0 30 18 30 41 0 5 -13 9 -30 9
-16 0 -30 -4 -30 -9z"/>
<path d="M1939 2796 c-73 -55 -117 -74 -232 -100 -33 -8 -27 -26 9 -26 13 0
24 -4 24 -9 0 -5 24 -23 54 -39 68 -39 109 -89 143 -176 33 -83 69 -122 123
-131 59 -10 64 1 22 43 -68 69 -102 115 -102 139 0 50 -27 91 -82 122 -29 17
-62 31 -72 31 -33 0 -12 9 45 20 82 16 158 56 174 94 30 70 -32 89 -106 32z"/>
<path d="M1144 2765 c-4 -9 -2 -21 4 -27 15 -15 44 -1 40 19 -4 23 -36 29 -44
8z"/>
<path d="M1298 2684 c-40 -12 -11 -33 45 -35 31 -1 31 -1 -8 -11 -22 -6 -42
-12 -44 -14 -2 -1 13 -17 32 -34 61 -53 59 -96 -9 -172 -49 -55 -54 -86 -19
-116 23 -19 36 -23 64 -18 l36 5 -25 -19 c-14 -11 -48 -34 -77 -51 -102 -59
-131 -128 -77 -183 15 -14 36 -26 48 -27 19 0 19 -1 -4 -11 -39 -15 -168 -4
-222 19 -101 46 -171 151 -171 262 -1 121 61 196 155 188 110 -9 181 -125 133
-217 -13 -25 -19 -28 -47 -24 -40 6 -110 -7 -115 -22 -5 -16 43 -34 93 -34 39
0 51 5 79 33 67 67 68 162 3 241 -46 56 -99 79 -170 74 -67 -5 -98 -24 -143
-87 -28 -40 -30 -49 -30 -134 0 -76 4 -100 23 -139 84 -170 286 -252 476 -192
15 5 12 -3 -13 -40 -70 -102 -81 -204 -30 -304 49 -99 131 -152 245 -160 84
-5 132 8 180 51 53 46 68 82 68 167 1 99 -21 143 -95 188 -63 39 -107 39 -160
1 -39 -28 -73 -99 -64 -138 8 -39 55 -81 98 -88 73 -11 118 81 61 126 -44 35
-62 29 -108 -34 -15 -19 -15 -19 -16 8 0 20 11 40 34 63 112 112 259 -65 180
-218 -26 -50 -80 -82 -148 -86 -52 -3 -69 0 -116 25 -63 33 -114 94 -131 156
-25 95 14 189 147 342 47 54 99 119 116 143 28 40 32 43 39 26 4 -10 8 -47 8
-80 1 -71 23 -107 77 -130 35 -15 168 -20 162 -6 -4 8 -49 74 -93 135 -24 33
-40 44 -72 51 -23 5 -44 14 -47 21 -2 7 -10 69 -16 137 -14 148 -30 202 -76
256 -56 66 -195 123 -256 106z m117 -63 c6 -11 23 -35 38 -55 18 -22 30 -51
33 -78 l5 -43 -20 48 c-11 26 -36 66 -56 88 -19 22 -33 44 -30 49 9 15 19 12
30 -9z m97 -58 c38 -42 62 -116 62 -190 -1 -63 -6 -82 -38 -147 -40 -83 -108
-151 -188 -192 -56 -29 -59 -29 -51 -7 5 13 2 15 -16 10 -25 -6 -71 30 -71 55
0 26 33 60 102 104 144 93 197 163 198 261 0 63 -12 98 -48 137 l-27 29 30
-20 c17 -12 38 -29 47 -40z"/>
<path d="M1255 2100 c-12 -20 15 -51 43 -48 30 3 43 35 20 49 -18 12 -55 11
-63 -1z"/>
<path d="M2150 2285 c0 -17 5 -25 13 -22 6 2 12 12 12 22 0 10 -6 20 -12 23
-8 2 -13 -6 -13 -23z"/>
<path d="M2599 2147 c-18 -12 -39 -39 -47 -59 -23 -60 -9 -98 69 -190 82 -97
97 -123 105 -181 8 -57 -25 -135 -78 -183 -22 -19 -41 -34 -44 -32 -2 2 8 26
21 53 29 56 34 149 11 194 -35 67 -127 118 -193 108 -69 -12 -135 -86 -132
-149 1 -18 2 -19 6 -5 4 16 7 15 25 -8 22 -29 50 -32 69 -9 11 14 10 19 -9 34
l-22 19 22 16 c22 15 24 14 56 -22 39 -44 67 -102 77 -156 21 -110 -134 -153
-284 -78 -60 31 -82 54 -119 128 l-22 41 35 21 c20 11 35 28 35 38 0 49 -65
90 -124 79 -44 -8 -86 -51 -86 -87 0 -29 23 -59 45 -59 25 0 42 -28 80 -127
106 -276 212 -418 405 -542 88 -57 184 -86 285 -86 69 0 89 5 148 33 43 19 71
39 74 51 3 12 11 17 19 14 11 -4 12 -9 3 -19 -18 -22 -2 -99 28 -134 41 -50
79 -64 168 -65 73 0 87 3 155 37 41 21 129 80 195 133 132 105 186 131 294
141 59 6 76 3 115 -15 141 -69 153 -246 21 -315 -83 -44 -202 -9 -240 70 -21
44 -14 73 26 119 34 39 63 44 108 20 32 -16 41 -34 40 -73 0 -16 -3 -21 -6
-12 -10 28 -46 60 -68 60 -25 0 -49 -24 -59 -57 -24 -79 120 -99 159 -22 43
83 -24 166 -126 157 -124 -12 -167 -151 -78 -253 38 -42 83 -58 171 -57 114 1
179 50 202 152 l12 52 42 -55 c56 -75 128 -111 210 -105 32 2 76 13 98 25 21
11 79 41 128 67 100 53 126 55 137 12 5 -16 14 -33 21 -37 7 -4 12 -20 13 -36
0 -18 6 -29 18 -31 21 -4 34 25 20 47 -7 11 -7 23 -2 34 12 20 -2 51 -28 63
-10 4 -44 10 -75 13 l-57 6 61 52 c83 71 119 87 208 91 64 2 81 -1 115 -20 83
-49 97 -176 23 -214 -44 -23 -102 -13 -139 22 -41 40 -47 69 -18 100 26 28 47
30 75 9 25 -19 34 -19 34 1 0 8 -16 22 -36 30 -42 18 -97 5 -114 -26 -17 -32
-11 -85 13 -121 55 -82 216 -71 253 16 73 175 -132 316 -324 224 -27 -13 -97
-72 -167 -139 -66 -63 -138 -124 -160 -135 -52 -25 -147 -26 -193 -2 -31 17
-99 95 -135 156 -18 30 -18 31 0 37 10 3 37 14 60 24 134 61 93 250 -54 250
-40 0 -93 -17 -93 -29 0 -6 90 -47 153 -70 38 -14 35 -45 -8 -88 -32 -32 -40
-35 -78 -31 -23 3 -76 20 -117 39 -67 31 -84 34 -165 34 -115 0 -156 -20 -325
-156 -68 -54 -126 -97 -128 -94 -2 2 5 17 17 34 12 16 33 55 46 86 14 30 29
55 35 55 5 0 15 10 21 22 10 18 8 24 -7 35 -17 12 -17 13 3 13 50 0 82 66 83
170 0 48 12 75 31 75 19 0 21 21 4 39 -21 21 -49 20 -82 -1 -30 -20 -55 -74
-47 -100 4 -14 3 -14 -7 2 -40 67 -85 90 -124 62 -19 -15 -13 -37 10 -37 19 0
25 -23 25 -92 0 -53 3 -63 29 -89 25 -24 26 -29 11 -29 -24 0 -28 -16 -16 -61
8 -32 6 -46 -14 -90 -29 -62 -103 -131 -158 -147 -112 -34 -181 -2 -206 96
-14 53 -4 73 14 27 11 -29 36 -33 42 -7 8 30 -10 61 -46 79 -31 14 -33 18 -19
28 22 16 14 139 -13 184 -44 74 -169 115 -242 77 -52 -27 -45 -33 31 -29 63 4
76 2 106 -19 55 -37 71 -67 79 -146 l8 -72 -32 6 c-43 8 -74 -3 -74 -26 0 -22
22 -39 28 -22 2 7 13 12 25 11 14 0 -3 -13 -48 -35 -67 -34 -74 -35 -160 -32
-79 4 -99 8 -167 41 -127 61 -266 188 -329 301 l-22 39 53 -42 c29 -23 63 -41
76 -41 15 0 43 -17 72 -43 26 -24 68 -58 94 -75 54 -37 91 -80 84 -99 -7 -18
10 -26 32 -14 27 14 46 65 37 98 -10 45 -116 138 -182 163 -161 59 -192 73
-238 110 -27 22 -57 43 -66 46 -17 6 -44 53 -35 61 2 2 21 -7 43 -21 43 -28
139 -56 193 -56 93 1 208 44 324 123 42 28 73 42 105 45 41 3 49 0 75 -27 39
-41 40 -85 2 -118 -27 -23 -80 -31 -90 -14 -3 5 8 11 24 15 40 8 57 48 35 82
-39 59 -126 -2 -110 -77 21 -93 173 -90 205 5 15 46 1 92 -39 130 -35 33 -81
45 -136 35 -22 -4 -41 -6 -43 -4 -2 1 13 13 33 25 27 17 39 20 48 11 6 -6 25
-11 43 -11 34 0 144 38 144 50 0 13 -98 60 -125 60 -34 0 -68 -18 -62 -34 3
-6 -13 -22 -35 -35 l-40 -23 7 22 c11 35 -23 106 -89 189 -34 42 -71 90 -84
108 -22 30 -28 75 -16 108 8 20 76 55 106 55 71 -1 118 -122 66 -170 -30 -27
-38 -25 -38 10 0 51 -57 63 -81 18 -9 -16 -7 -26 8 -46 62 -82 184 -18 170 89
-14 105 -134 163 -218 106z m-59 -349 c46 -32 70 -82 69 -143 l-2 -50 -7 60
c-7 52 -13 64 -45 92 -40 35 -85 48 -137 41 -28 -5 -29 -4 -13 9 29 21 97 16
135 -9z m-430 -83 c0 -8 -2 -15 -4 -15 -2 0 -6 7 -10 15 -3 8 -1 15 4 15 6 0
10 -7 10 -15z m-73 -17 c-3 -8 -6 -5 -6 6 -1 11 2 17 5 13 3 -3 4 -12 1 -19z"/>
<path d="M1637 1933 c-4 -3 25 -22 64 -40 56 -28 76 -44 100 -81 32 -51 34
-62 17 -108 -14 -41 1 -64 43 -64 36 0 50 39 27 79 -9 14 -21 43 -28 64 -18
56 -57 96 -125 128 -60 29 -86 35 -98 22z"/>
<path d="M1820 1615 c-20 -25 -8 -50 25 -50 21 0 31 5 33 18 4 21 -14 47 -33
47 -7 0 -18 -7 -25 -15z"/>
<path d="M1924 1554 c-28 -192 81 -434 196 -434 70 0 67 60 -6 142 -102 114
-144 192 -159 291 -9 60 -22 60 -31 1z"/>
<path d="M3552 1564 c-34 -23 -62 -87 -62 -139 0 -26 4 -45 9 -43 5 2 32 32
60 67 53 67 66 113 35 125 -20 8 -16 9 -42 -10z"/>
<path d="M1774 1545 c-7 -18 12 -45 32 -45 18 0 26 17 19 40 -7 23 -43 27 -51
5z"/>
<path d="M4906 1406 c-6 -26 -38 -36 -116 -36 -92 0 -129 -26 -131 -92 0 -30
-1 -31 -9 -10 -13 31 -40 39 -56 17 -8 -10 -14 -25 -14 -32 0 -22 38 -53 66
-53 21 0 24 3 19 20 -6 19 -4 18 18 -4 18 -18 40 -26 83 -31 73 -8 104 -20
104 -41 0 -25 33 -12 48 18 17 35 5 59 -50 98 l-41 30 37 0 c48 0 96 44 96 87
0 50 -43 73 -54 29z"/>
<path d="M5050 1362 c-82 -43 -150 -84 -150 -92 0 -16 61 -22 110 -10 62 15
102 51 98 87 -4 34 -16 37 -58 15z"/>
<path d="M3240 1249 c-10 -17 -4 -36 35 -114 40 -79 48 -106 54 -172 l7 -78
19 35 c24 42 27 178 6 249 -23 80 -96 128 -121 80z"/>
<path d="M3990 1250 c-58 -30 -130 -42 -169 -29 -48 17 -100 -2 -156 -57 -79
-80 -99 -147 -22 -78 55 50 94 64 184 64 120 1 162 12 200 54 56 61 37 84 -37
46z"/>
<path d="M4527 1236 c-21 -8 -56 -26 -77 -41 -60 -42 -150 -167 -150 -210 0
-29 15 -15 45 42 l30 56 113 -2 112 -2 0 25 c0 51 -73 61 -159 20 -53 -24 -54
-24 -35 -3 10 12 54 42 96 66 43 25 75 49 72 54 -3 5 -6 9 -7 9 -1 -1 -19 -7
-40 -14z"/>
<path d="M3098 1074 c-56 -30 -21 -55 42 -30 55 22 67 20 101 -13 22 -22 29
-39 29 -68 0 -22 -5 -44 -12 -51 -16 -16 -57 -15 -88 3 -32 18 -40 18 -40 1 0
-20 57 -66 81 -66 54 0 109 58 109 115 0 39 -27 83 -63 105 -39 24 -120 26
-159 4z"/>
<path d="M4307 903 c-8 -13 7 -58 23 -68 18 -11 18 -2 0 39 -9 23 -19 35 -23
29z"/>
<path d="M4802 733 c5 -26 38 -29 38 -4 0 15 -6 21 -21 21 -14 0 -19 -5 -17
-17z"/>
</g>
</svg>
