<?xml version="1.0" encoding="UTF-8" standalone="no"?>
<svg xmlns:rdf="http://www.w3.org/1999/02/22-rdf-syntax-ns#" xmlns="http://www.w3.org/2000/svg" height="1762" viewBox="0 0 959 1762" width="959" version="1.1" xmlns:cc="http://creativecommons.org/ns#" xmlns:dc="http://purl.org/dc/elements/1.1/">
<path d="m314.57 1758.4c-1.063-2.1562-2.4787-8.4108-3.1497-13.916-8.7502-71.788-13.928-136.5-10.923-136.5 1.5918 0 3.1786 10.188 5.3734 34.5 2.8295 31.343 4.1539 44.521 5.0751 50.5 0.55085 3.575 1.5006 16.175 2.1106 28 0.60998 11.825 1.7778 24.752 2.5951 28.728 2.0836 10.134 1.5891 14.106-1.0819 8.6886zm338.49-28.6c-0.66779-3.4375-3.1855-14.8-5.5948-25.25-3.9637-17.191-5.5666-25.51-10.116-52.5-0.78808-4.675-1.5531-11.302-1.7001-14.726-0.33269-7.7505-1.1588-8.6817-3.2619-3.6771-1.3135 3.1256-5.2129 25.819-5.353 31.154-0.0181 0.6875-0.54094 1.25-1.162 1.25-1.8404 0-0.35999-14.464 3.6845-36 0.7747-4.125 2.0916-11.145 2.9266-15.6 0.83492-4.4549 1.5319-10.755 1.5489-14 0.017-3.2451 0.48163-9.2752 1.0326-13.4 0.55093-4.125 1.4171-12.675 1.9248-19 0.82361-10.26 2.3259-25.124 3.5375-35 0.23616-1.925 0.004-6.65-0.51526-10.5-2.8738-21.295-6.0204-70.38-6.0259-94-0.004-18.076-1.4971-50.504-2.9463-64-2.7423-25.538-1.7302-34.626 1.5434-13.857 3.7973 24.091 4.4932 33.665 4.86 66.857 0.57984 52.474 1.2835 65.495 4.3774 81 2.5186 12.622 5.6497-21.431 3.5213-38.296-0.71468-5.663-1.5525-19.613-1.8619-31-0.30934-11.387-1.0204-25.654-1.5802-31.704-0.55974-6.05-1.2169-15.122-1.4604-20.159-0.59162-12.24-3.052-33.965-4.965-43.841-0.85228-4.4-2.1891-11.6-2.9707-16-0.78164-4.4-2.8086-14.525-4.5044-22.5-5.0454-23.727-5.9092-30-4.1316-30 1.6571 0 7.3122 19.71 12.194 42.5 0.58907 2.75 1.945 9.05 3.0132 14s2.3871 13.95 2.931 20c0.54391 6.05 1.4274 15.275 1.9632 20.5 0.53588 5.225 1.2611 20.3 1.6116 33.5 0.35052 13.2 1.2848 32.1 2.0763 42 0.79145 9.9 1.824 23.175 2.2944 29.5 0.47048 6.325 1.5689 13.975 2.4408 17 2.1713 7.5326 2.0861 10-0.34553 10-1.4293 0-2.0979 0.8735-2.4876 3.25-1.373 8.3732-2.8075 21.044-4.6702 41.25-1.1154 12.1-2.4261 26.275-2.9127 31.5-0.48656 5.225-1.3549 11.072-1.9297 12.993-0.5748 1.9214-1.0451 6.5483-1.0451 10.282 0 3.7338-0.62242 8.2784-1.3832 10.099-1.8931 4.5309-2.0352 26.482-0.21439 33.125 0.75365 2.75 2.1346 9.05 3.0689 14 3.5922 19.033 6.8124 34.053 8.0576 37.582 0.71329 2.0217 1.6006 6.3178 1.9717 9.5469 0.68084 5.9235 4.6486 25.67 6.5588 32.642 1.0961 4.0003 0.64889 5.7294-1.4818 5.7294-0.80382 0-1.7703-2.3984-2.5185-6.25zm-391.49-17.678c-2.3544-2.6016-3.288-7.4265-4.0772-21.072-0.36584-6.325-1.0507-12.85-1.522-14.5-0.47126-1.65-1.5997-7.95-2.5076-14s-2.4957-14.225-3.5285-18.167c-4.4078-16.823-5.1745-22.492-4.5079-33.333 0.58024-9.4374 1.2258-13.056 4.6913-26.293 0.5461-2.0859 1.1678-5.1748 1.3816-6.8641 0.35954-2.8409 2.0269-11.081 4.7236-23.343 0.60476-2.75 1.2247-8.15 1.3776-12 0.50542-12.726 1.5707-21.904 3.4239-29.5 1.0064-4.125 2.3115-10.2 2.9002-13.5 0.58873-3.3 1.8032-9.375 2.6988-13.5 4.6837-21.572 3.0562-28.686-5.5487-24.252l-5.0914 2.6234-3.4893-3.3819c-1.9191-1.8601-3.4893-3.812-3.4893-4.3375 0-1.1463-6.2686-7.8591-14.5-15.527-18.009-16.777-54.787-54.883-57.431-59.504-1.6253-2.8407-4.1691-6.28-5.6529-7.6428s-3.8856-4.3225-5.3373-6.5772-5.4678-6.718-8.9247-9.9185-7.1197-7.4307-8.1395-9.4006c-1.8189-3.5133-15.655-19.709-26.993-31.597-3.1557-3.3087-6.0497-6.9989-6.431-8.2003-0.38132-1.2015-2.2306-3.1346-4.1095-4.2958s-7.5845-6.6286-12.679-12.15c-5.5852-6.0529-11.057-10.96-13.782-12.36-7.9114-4.0641-23.988-16.997-41.935-33.736-24.819-23.148-29.409-29.272-31.655-42.243-0.38097-2.2-1.0958-4.7811-1.5886-5.7357-0.49275-0.9546-1.2996-3.6546-1.793-6-0.49338-2.3454-1.2087-5.2777-1.5896-6.5164-0.58481-1.9016-0.1486-2.4793 2.8033-3.7127 5.1489-2.1513 5.4554-4.2365 1.1962-8.1378l-3.5975-3.2951-1.0276 2.9477c-1.2934 3.7103-2.2431 3.1286-4.1818-2.5611-1.6316-4.7886-0.23122-11.519 3.6705-17.64 1.6976-2.7 4.6664-13.8 4.6664-17.5 0-1.3661 0.83428-4.5923 1.8539-7.1692 2.735-6.9121 8.0421-22.7 10.273-30.56 1.0731-3.7813 2.6086-8.1464 3.4121-9.7003 0.804-1.6 1.461-3.8 1.461-4.8 0-1.7641 5.4451-19.304 7.8157-25.177 4.3733-10.833 5.0071-19.234 1.7438-23.112-1.408-1.7-2.56-3.9-2.56-5 0-4.0081 5.359-24.649 7.5142-28.942 1.2425-2.475 3.6224-8.325 5.2887-13 9.6344-27.031 14.726-37.179 18.469-36.806 3.9426 0.39243 4.2305 1.496 1.5147 5.806-2.273 3.6073-8.0063 21.114-7.1839 21.936 0.25408 0.25408 4.8349-3.8918 10.18-9.213 7.7052-7.6714 10.679-9.9636 14.36-11.069 8.2879-2.4882 22.341-15.446 20.312-18.729-0.97716-1.5811-2.513-1.0801-12.648 4.1257-5.408 2.7779-10.277 4.7764-10.819 4.441-1.9172-1.1849-0.95006-4.4589 1.9508-6.6036 3.4856-2.577 5.5052-6.9182 4.5778-9.8401-0.71813-2.2626 13.974-17.698 19.629-20.623 1.484-0.76743 3.6644-2.7521 4.8452-4.4104 1.61-2.22 2.93-2.97 5.31-2.97 2.5128 0 4.1964-1.0803 8.1819-5.25 2.76-2.8875 6.0609-6.059 7.3355-7.0479 6.1675-4.785-3.1327-7.353-11.737-3.2407-8.0228 3.8346-30.269 25.876-32.415 32.117-0.96258 2.7991-5.0235 4.1993-7.1237 2.4563-1.741-1.44-7.541 9.96-7.541 14.82 0 4.1061-7.7289 11.011-9.3639 8.3655-1.0296-1.666 3.1719-16.067 6.6285-22.72 2.0003-3.85 5.2533-10.586 7.2288-14.968 1.9755-4.3826 4.1757-8.6576 4.8893-9.5 0.71363-0.84241 2.345-4.3994 3.6252-7.9044s3.2918-7.555 4.4702-9 2.7154-4.6523 3.4156-7.1273c1.9725-6.9722 14.48-28 16.655-28 2.8496 0 3.1563 3.4026 0.77541 8.6032-2.4405 5.3307-2.4864 5.7561-1.023 9.4815 1.7824 4.5374 0.74462 5.8306-2.8099 3.5015-3.3886-2.2203-4.1465-2.0137-5.3577 1.4607-0.58419 1.6758-1.9347 4.1562-3.0011 5.5119-1.1324 1.4396-1.7177 3.311-1.4071 4.4988 0.33709 1.289-0.1561 2.5548-1.3467 3.4563-1.6706 1.265-1.6914 1.426-0.18761 1.4543 0.931 0.02 1.97-0.42 2.31-0.97 0.8042-1.3012 4.5-1.3004 4.5 0.001 0 0.55058-2.6931 3.0924-5.9846 5.6485-5.379 4.18-12.015 15.67-12.015 20.82 0 3.1961 11.981-8.4366 21.964-21.326 1.9156-2.4732 5.1405-5.1222 7.4558-6.1243 4.58-1.98 21.58-18.06 21.58-20.41 0-3.262-6.7976-3.136-13.671 0.2533-8.1938 4.0405-9.7621 2.6416-4.0434-3.6066 1.668-1.8225 1.8557-2.6716 0.99474-4.5-1.62-3.4402-1.4724-10.538 0.37171-17.87 2.0573-8.1805 1.7997-8.8583-4.8155-12.668-18.553-10.69-25.595-24.91-19.418-39.22 1.3061-3.025 3.491-8.1231 4.8555-11.329 1.3644-3.206 3.0231-6.356 3.6859-7 1.7876-1.7368 0.76178 9.6859-1.3679 15.231-3.2554 8.477-2.756 11.598 1.8562 11.598 3.5602 0 4.0248 0.29721 4.6894 3 3.7694 15.331 7.4534 21.103 10.853 17.007 2.4157-2.9107-0.19989-20.318-4.3174-28.734-1.48-3.01-2.68-6.11-2.68-6.88 0-2.767-3.7614-11.648-5.7945-13.681l-2.0663-2.0663 2.0002-5.3196c1.1001-2.9258 3.3188-7.979 4.9304-11.229 1.6116-3.2504 2.9301-6.4548 2.9301-7.121 0-2.9251 23.023-50.257 26.494-54.469 2.2255-2.7001 6.5053-12.115 6.5149-14.332 0.0149-3.4377 5.1967-11.57 12.213-19.168 3.5555-3.85 7.6375-8.8 9.0711-11 4.9683-7.6244 6.1479-8.6905 9.2222-8.334l2.8805 0.33402 0.0825 9.5c0.0945 10.888 0.64595 12.239 6.9051 16.92 2.8247 2.1124 4.9989 4.7105 5.6872 6.796 0.7034 2.1313 2.6102 4.3733 5.1711 6.0803 2.2313 1.4872 4.643 3.1381 5.3593 3.6686 3.9421 2.9196 1.1859-7.7539-3.2328-12.519-1.3-1.41-2.37-3.75-2.37-5.2s-0.41358-2.8919-0.91907-3.2043c-0.50548-0.31241-1.4176-2.8926-2.0269-5.7337-0.65131-3.037-1.9138-5.7302-3.0635-6.5355-4.0549-2.8402-8.1664-10.084-6.981-12.299 0.87792-1.6404 0.6758-2.5668-1.0344-4.741l-2.1255-2.7022 4.3252-3.7756c4.2-3.67 15.34-9.76 17.85-9.76 0.68393 0 6.2446-2.2041 12.357-4.898s13.31-5.6785 15.994-6.6324c2.6842-0.95395 7.7762-3.7171 11.316-6.1404 3.9672-2.716 8.2954-4.7586 11.285-5.3255 2.667-0.5058 7.25-2.4513 10.184-4.3234 5.4614-3.4844 17.361-8.9526 21.835-10.034 1.375-0.33238 4.75-2.3971 7.5-4.5883s6.4623-4.6525 8.2496-5.4696c1.7873-0.81714 4.7371-2.6202 6.555-4.0069 1.818-1.3866 5.3785-3.4382 7.9123-4.559s6.7656-3.9923 9.4042-6.3811l4.7973-4.3433-1.4045-4.2556c-1.7721-5.3695-0.43388-8.1762 5.9391-12.456 2.4193-1.6248 11.632-9.9073 20.473-18.406 8.8408-8.4982 17.537-16.335 19.324-17.415 1.7875-1.0798 3.25-2.2971 3.25-2.7052 0-1.4294 15.581-16.688 21.512-21.066 3.2936-2.4316 7.8087-6.0973 10.034-8.1462 4.9613-4.5689 15.248-10.531 21.943-12.719 6.8555-2.2396 6.7089-3.9408-0.70039-8.1296-3.405-1.925-8.3002-4.9356-10.878-6.6902-2.578-1.7546-6.4187-3.9136-8.5348-4.7977-5.44-2.27-8.38-5.33-8.38-8.73 0-3.01-3.84-7.78-6.27-7.78-5.1528 0-8.8451-10.008-5.1846-14.053 3.6825-4.0691 1.5955-13.725-3.923-18.151-1.39-1.12-2.12-2.85-2.12-5v-3.292l-7.5-1.191c-4.125-0.65505-9.975-1.2253-13-1.2672-3.451-0.0478-8.6666-1.2162-14-3.1365-4.675-1.6832-10.508-3.7093-12.962-4.5026-32.818-10.608-8.1478-62.724 35.878-75.793 7.6948-2.2843 11.631-6.4255 7.5837-7.9786-0.825-0.31658-1.5004-1.6022-1.5008-2.857-0.001-4.157-2.9507-16.504-5.1187-21.431-1.1742-2.668-2.5191-6.7901-2.9886-9.1603-0.46953-2.3702-3.1123-9.4115-5.8728-15.647-2.76-6.23-5.02-12.58-5.02-14.1 0-1.5216-2.0987-6.8552-4.6638-11.853-2.5651-4.9974-5.7418-13.136-7.0592-18.086s-3.2864-12.15-4.3754-16-2.3816-8.8204-2.8724-11.045c-0.4908-2.225-2.0482-7.116-3.4608-10.869-1.41-3.76-2.57-7.91-2.57-9.24 0-1.3252-1.3137-5.0119-2.9194-8.1927s-3.2258-7.4167-3.6004-9.4132c-0.37454-1.9965-1.7608-5.0936-3.0806-6.8825-3.2382-4.3891-3.4944-16.203-0.43571-20.091 1.0802-1.3732 2.3896-4.3911 2.9098-6.7064 1.1794-5.2493 2.3353-6.523 11.364-12.522 9.6529-6.4141 11.311-7.5399 17.738-12.041 3.0116-2.1092 7.3399-4.396 9.6185-5.0818 2.2786-0.68576 5.9626-2.1752 8.1867-3.3098 8.22-4.194 47.24-17.647 61.22-21.107 4.12-1.021 11.32-3.484 16-5.474 12.28-5.228 41.74-12.319 56.45-13.59 6.63-0.5725 17.9-2.1452 25.05-3.4949 32.09-6.0578 71.349-6.8863 89.088-1.88 2.7983 0.78977 7.0733 1.4391 9.5 1.4429 2.4267 0.00383 7.7177 1.1288 11.758 2.5 4.04 1.3711 8.62 2.493 10.17 2.493 1.8281 0 4.046 1.1528 6.2526 3.25l3.4196 3.25-0.47891 13.753c-0.35764 10.271-0.0475 16.221 1.2249 23.5 0.93711 5.3607 2.3303 13.347 3.096 17.747s1.9011 12.5 2.5231 18c0.62199 5.5 1.3753 10.396 1.674 10.88 0.29869 0.48406 1.1046 5.4341 1.791 11 0.68637 5.5659 2.4179 15.092 3.8479 21.168 1.43 6.0766 3.0234 15.142 3.5411 20.145 0.51763 5.0032 1.3913 10.832 1.9414 12.952 0.55013 2.1202 1.7625 7.6798 2.6942 12.355 1.4635 7.3436 8.5696 30.454 9.7168 31.601 0.69839 0.69839 6.9579 1.4242 16.232 1.8822 8.3077 0.41023 14.115 1.0426 31.5 3.4303 26.603 3.6536 43.912 30.376 29.763 45.948-1.3185 1.4511-3.2417 4.5925-4.2738 6.981-4.8358 11.191-28.06 23.916-42.658 23.372-4.5254-0.16861-7.9313 0.13882-8.309 0.75-0.35206 0.56965-2.1886 1.0357-4.0811 1.0357-3.8765 0-4.0288 0.39307-1.9864 5.1279 3.6454 8.4511 18.838 24.48 27.229 28.727 13.272 6.7184 7.1544 22.145-8.7821 22.145-6.6116 0-7.0036 0.1319-8.173 2.75-0.67554 1.5125-2.1143 3.4863-3.1973 4.3863-2.6456 2.1986-0.282 6.7873 7.2184 14.014 6.0967 5.8738 6.2696 6.7749 2.2701 11.825-2.7106 3.4224-3.5467 3.8244-9.25 4.4472-7.5931 0.82915-12.575 2.383-15.335 4.7829-1.13 0.99-2.78 1.8-3.66 1.8-2.85 0-4.77 1.17-4.77 2.91 0 3.0838 2.2391 4.093 9.0813 4.093 6.4359 0 6.7775 0.12611 9.3 3.4333 5.8705 7.6967 1.6707 18.835-6.4309 17.056-8.8766-1.9496-10.701 6.7691-4.3262 20.676 12.051 26.291-15.852 48.07-49.056 38.288-6.228-1.8349-9.658-1.8359-13.237-0.004-1.5571 0.79688-3.6185 1.6828-4.581 1.9686-2.7348 0.8122-2.0704 3.3623 1.75 6.7166 1.925 1.6902 3.5 3.6271 3.5 4.3042 0 0.67717 4.275 5.0034 9.5 9.6139s9.5 8.7405 9.5 9.1778c0 0.43732 2.4593 1.8827 5.465 3.212 7.442 3.2912 16.896 11.065 30.247 24.872 6.1668 6.3773 12.602 12.314 14.301 13.193 1.699 0.87861 3.3456 2.2657 3.659 3.0824 0.31341 0.81674 2.1966 2.1647 4.1849 2.9954 1.9883 0.83076 4.5212 2.3356 5.6287 3.3441s3.3636 2.0832 5.0136 2.3882c9.5202 1.7598 26.188 9.0611 37 16.208 3.85 2.5448 11.95 7.2272 18 10.405 14.364 7.5451 21.425 11.732 24.5 14.529 1.375 1.2504 4.8238 3.8108 7.664 5.6897 18.899 12.502 29.49 29.138 41.538 65.245 3.8392 11.506 7.5604 22.312 8.2694 24.013 3.5036 8.407 4.0004 11.632 4.2514 27.593 0.26781 17.034 1.3903 36.365 3.2229 55.5 0.57939 6.05 1.7293 19.1 2.5553 29 0.82606 9.9 2.1832 25.425 3.0159 34.5 2.1757 23.711 3.5153 45.14 2.8856 46.158-0.29847 0.48292 0.39363 2.393 1.538 4.2446 1.5241 2.4661 1.853 3.982 1.2295 5.6675-0.66169 1.7887-0.19095 3.2792 2.1146 6.6953 3.312 4.9075 3.3249 8.5651 0.0667 19.02-1.315 4.2197-1.4265 6.0351-0.5529 9 1.2019 4.079 5.4682 27.376 7.1812 39.214 0.59689 4.125 1.762 10.425 2.5891 14 3.0796 13.311 5.7752 23.53 6.4623 24.5 0.38971 0.55 1.0064 2.8 1.3704 5 0.36402 2.2 1.2696 5.575 2.0125 7.5 2.1918 5.6798 4.5865 14.505 4.5865 16.903 0 1.3631 2.1076 4.335 5.4316 7.6589 2.9874 2.9874 5.7464 6.4456 6.1312 7.6848 0.38478 1.2393 1.4828 3.3782 2.4402 4.7532 3.7368 5.3672 7.0805 13.296 9.4453 22.398 1.3587 5.2294 3.61 11.757 5.0027 14.505 2.9287 5.7795 8.549 24.54 8.549 28.537 0 1.4944 1.1755 11.119 2.6122 21.388 2.0632 14.747 2.7463 24.556 3.25 46.671 0.35079 15.4 0.99958 28.559 1.4418 29.242 0.44219 0.683 0.35024 7.433-0.20434 15-0.55458 7.5669-1.2859 28.608-1.6251 46.758-0.33923 18.15-1.0916 36.15-1.672 40-0.58041 3.85-1.5629 10.375-2.1833 14.5l-1.128 7.5-5.9956 0.5761c-9.2718 0.8909-9.6593 1.3029-12.011 12.771-0.6192 3.0198-0.94556 3.2831-3.3355 2.691-7.8318-1.9401-14.285-1.8142-17.192 0.3355-1.5817 1.1694-3.5323 2.1262-4.3346 2.1262-2.7432 0-4.6223 1.2133-4.6223 2.9845 0 0.9739-0.60217 2.2704-1.3382 2.8812-4.3257 3.59-5.938 22.464-2.2894 26.8 1.4349 1.7053 3.152 5.4532 3.8157 8.3287 0.88308 3.8257 1.8309 5.5125 3.5333 6.2881 1.2796 0.5831 2.5719 2.2204 2.8717 3.6386 0.95002 4.493 2.0964 6.5983 6.1314 11.26l3.9322 4.5432 1.1853 12.888c0.65193 7.0881 1.4159 19.188 1.6976 26.888 0.75657 20.676 2.38 48.561 2.8736 49.36 0.23683 0.3832 0.95 4.4902 1.5848 9.1266 0.63481 4.6364 1.6573 9.3487 2.2721 10.472 0.61485 1.123 1.1912 4.5169 1.2807 7.5419 0.96014 32.444 1.5528 46.885 2.0056 48.868 0.34109 1.4938-0.12316 3.1058-1.258 4.3678-1.527 1.6981-1.7607 3.568-1.548 12.382 0.15505 6.4254-0.13079 10.382-0.75 10.382-0.55029 0-1.0352-1.6875-1.0775-3.75-0.134-6.529-2.923-25.517-4.2962-29.25-0.80272-2.1819-4.0906-34.608-5.0191-49.5-0.17147-2.75-1.0498-9.0496-1.9519-13.999-0.90206-4.9495-1.8373-16.424-2.0784-25.5-0.24106-9.0756-1.2035-22.126-2.1388-29.001-0.93527-6.875-1.6434-14.329-1.5737-16.564 0.24361-7.8081-1.6049-18.262-3.7659-21.296-1.1545-1.6214-2.0991-4.4644-2.0991-6.3178 0-3.8192-7.7155-18.233-10.986-20.524-1.1078-0.7759-2.0141-1.8881-2.0141-2.4717 0-6.6713-27.479-33.838-41.108-40.64-10.045-5.0138-10.602-5.4686-16.707-13.65-3.4734-4.6551-8.3254-10.7-10.782-13.432-2.4568-2.7326-5.8156-7.9428-7.464-11.578-4.8773-10.757-7.906-10.397-5.9713 0.7081 7.1776 41.201 9.9934 61.801 8.0328 58.767-0.53316-0.825-0.97627-2.5309-0.98469-3.7909-0.008-1.26-0.86137-5.085-1.8954-8.5-1.0341-3.415-2.4056-9.8091-3.0478-14.209-0.64225-4.4-2.3008-12.725-3.6857-18.5s-3.2029-13.425-4.0401-17c-0.83717-3.575-2.1438-8.75-2.9035-11.5-0.75976-2.75-3.4665-13.325-6.015-23.5-4.8472-19.353-5.7659-22-7.6345-22-2.7232 0-14.445 5.3823-15.981 7.3379-1.541 1.9619-1.7462 1.9972-2.357 0.4056-0.81734-2.13-6.2202-2.367-8.9219-0.3914-2.0205 1.4775-2.0735 0.605 2.0722 34.148 1.8841 15.245 3.0945 25.403 3.932 33 0.3638 3.3 1.7092 9.15 2.9898 13s2.6352 10.375 3.0104 14.5c0.37513 4.125 1.2757 9.525 2.0012 12 2.3307 7.9506 2.7004 13 0.95167 13-2.0642 0-3.0482-2.7627-4.9861-14-0.90109-5.225-2.5457-13.045-3.6547-17.377-1.109-4.3325-1.799-8.7082-1.5334-9.724 0.26562-1.0157 0.0439-3.771-0.4927-6.1228-2.8151-12.338-7.1579-39.273-9.263-57.451-1.8036-15.574-2.3387-16.631-7.9954-15.782-3.8508 0.5775-4.5849 0.3488-6.9019-2.15-3.4918-3.7657-4.2132 10.69-1.1408 22.858 0.42013 1.6638 0.28934 2.75-0.33112 2.75-2.4673 0-7.9728-39.75-8.1372-58.75-0.0686-7.9314-1.2872-8.0752-8.4723-1l-5.3315 5.25-0.48352 7.8835c-0.28217 4.6007 0.0797 10.839 0.86888 14.981 0.74382 3.9037 1.0848 7.9408 0.75775 8.9712-0.32706 1.0305-0.11037 3.739 0.48153 6.0188 1.5644 6.0258 12.298 68.852 14.206 83.145 2.1 15.738 5.4525 36.85 8.019 50.5 0.56879 3.025 1.4925 8.65 2.0528 12.5 0.56022 3.85 1.8521 10.825 2.8709 15.5s2.0916 10.525 2.3842 13c1.459 12.343 5.824 40.118 7.0326 44.75 1.1816 4.5279 0.40304 8.9449-0.89255 5.0637-1.5096-4.5224-2.5371-9.8293-2.5419-13.129-0.003-2.0987-0.40975-4.5737-0.90373-5.5-0.49398-0.9264-2.2859-9.5593-3.982-19.184-4.3569-24.724-5.0863-28.668-6.6581-36-1.4363-6.7001-4.7-23.936-6.5328-34.5-0.57253-3.3-1.4444-7.575-1.9376-9.5-0.49314-1.925-1.8143-9.8-2.9359-17.5s-2.5072-15.575-3.079-17.5c-0.57183-1.925-1.6719-7.775-2.4445-13-0.77266-5.225-2.2967-15.35-3.3868-22.5s-2.4972-18.827-3.127-25.948c-0.62976-7.1215-1.454-13.422-1.8316-14-0.37762-0.5785-0.91158-7.4276-1.1866-15.22-0.55449-15.712-0.81803-16.461-4.9351-14.029-1.5804 0.9336-3.8166 1.6974-4.9692 1.6974s-2.0957 0.406-2.0957 0.9022-1.3151 1.3606-2.9225 1.9209c-1.6074 0.5604-3.4474 1.9996-4.0889 3.1983-0.89842 1.6787-1.8454 2.0798-4.1215 1.7458-4.7231-0.6932-4.6574 1.9271 0.3283 13.08 2.1306 4.7662 1.656 6.8131-0.77503 3.3424-0.84354-1.2043-1.9582-2.1897-2.477-2.1897-1.4564 0-1.1148 15.1 0.45396 20.072 3.5076 11.116 4.9167 19.973 3.5763 22.478-1.5172 2.8349 0.0355 33.446 2.6097 51.451 2.9497 20.631 4.5355 60 2.4168 60-0.55 0-1.0069-2.1375-1.0153-4.75-0.0411-12.761-5.5638-8.0525-9.4621 8.0678-1.4873 6.1502-3.5725 13.657-4.6339 16.682s-3.2986 11.125-4.9717 18c-4.9549 20.36-6.9549 27.892-10.489 39.5-1.842 6.05-3.6538 12.751-4.0262 14.891-0.37236 2.14-1.5526 6.19-2.6227 9s-2.9741 9.5275-4.231 14.928c-1.2569 5.4003-2.8221 10.35-3.4782 11-1.8521 1.834-0.3332-8.5544 2.386-16.319 1.252-3.575 3.7019-12.125 5.4442-19 5.4075-21.338 8.0906-32.109 10.711-43 2.4695-10.264 4.5698-18.37 8.4208-32.5 1.0493-3.85 2.8791-11.5 4.0662-17 1.1872-5.5 2.9996-13.471 4.0277-17.713 1.4558-6.0071 1.6626-8.772 0.9352-12.5-0.51373-2.6327-1.1813-18.062-1.4836-34.287-0.62176-33.378-2.5022-57.078-5.6337-71-1.1752-5.225-2.2515-11.75-2.3918-14.5-0.67514-13.238-3.2188-21.75-7.7688-26-2.3556-2.2-5.565-5.7161-7.1322-7.8136-1.5672-2.0974-4.4922-4.5536-6.5-5.4581-2.0078-0.9046-4.6464-2.5137-5.8634-3.5759-2.4098-2.1031-6.623-0.5469-7.9612 2.9406-0.31162 0.8121-2.6499 2.8925-5.1963 4.6232-8.244 5.6034-14.947 11.822-16.001 14.844-0.57126 1.6387-2.1298 3.3703-3.5037 3.8926-1.3611 0.5175-5.2581 2.9899-8.66 5.4943-8.6788 6.389-17.227 1.8915-28.884-15.197-1.2194-1.7875-2.8884-3.25-3.7088-3.25-0.82048 0-3.8708-2.25-6.7785-5-8.2667-7.8183-10.256-6.4936-9.024 6.0093 0.57371 5.8222 0.40668 7.3595-0.96426 8.8743-1.4459 1.5977-1.5952 3.894-1.1666 17.937 0.3109 10.186 0.12447 16.332-0.50731 16.722-1.2538 0.7749-0.43813 10.351 1.0045 11.794 1.9403 1.9403 1.0239 4.1357-2.7282 6.5358-5.6994 3.6458-15.833 2.4702-36.44-4.2272-6.0061-1.9521-8.316-0.3785-7.3107 4.9803 0.55475 2.9571 0.34403 3.3869-1.9414 3.9605-2.2312 0.56-2.4956 1.0502-2.039 3.7791 1.9594 11.709 2.7608 17.094 3.592 24.136 0.51939 4.4 1.5841 11.155 2.3661 15.011 0.78196 3.856 1.7218 11.056 2.0886 16 0.36679 4.944 1.0984 10.703 1.6258 12.798 0.52742 2.0946 1.6511 9.5196 2.4971 16.5 0.84599 6.9803 1.9073 15.616 2.3585 19.192 0.45117 3.575 1.1298 13.025 1.508 21 0.37821 7.975 1.1386 16.525 1.6897 19 4.8157 21.626 12.755 126.67 9.7157 128.55-1.659 1.0253-1.7513 0.2988-3.9456-31.05-1.7288-24.698-4.8065-55.944-8.471-86-0.80469-6.6-1.9034-20.325-2.4416-30.5-0.53818-10.175-1.6761-21.875-2.5286-26-1.9822-9.5906-4.1751-21.593-5.5723-30.5-1.7473-11.138-3.9953-20.838-5.1526-22.233-0.59402-0.7157-0.82598-3.0885-0.52285-5.3484 0.29966-2.2342 0.14151-6.91-0.35143-10.391-0.49294-3.4808-1.5926-14.361-2.4438-24.178-0.85116-9.8173-1.7713-18.579-2.0448-19.471-0.49648-1.619-10.139-5.883-13.283-5.8737-0.91356 0-3.8328-0.7734-6.4871-1.7248-4.8189-1.7273-4.8287-1.7264-6.589 0.6074l-1.763 2.3372-2.161-2.7472c-1.1885-1.511-2.161-3.125-2.161-3.5867 0-1.168-5.4888-3.8908-7.8434-3.8908-2.8582 0-3.0198 1.3939-1.5657 13.5 3.3372 27.782 5.0178 50.674 5.91 80.5 0.27147 9.075 0.74134 18.3 1.0442 20.5 0.30282 2.2 0.90456 9.0709 1.3372 15.269 0.58318 8.3546 1.1928 11.587 2.3575 12.5 3.0644 2.402 4.7891 47.538 1.9498 51.026-0.63659 0.7821-0.654 6.1212-0.0496 15.205 0.51233 7.7 0.73582 14.9 0.49665 16s0.16051 3.575 0.88818 5.5c0.72768 1.925 1.409 3.05 1.5141 2.5 0.3119-1.6323 2.0936 6.6695 2.3608 11 0.65213 10.57 4.3766 44.631 5.5767 51 0.51815 2.75 1.2223 12.2 1.5648 21 0.63746 16.378 1.2233 23.025 3.878 44 3.924 31.003 4.6226 38.5 3.5879 38.5-0.41092 0-0.99061-1.9125-1.2882-4.25-0.2976-2.3375-1.6686-11-3.0466-19.25-3.7173-22.255-5.4855-33.961-6.646-44-0.57219-4.95-1.5185-12.15-2.103-16-0.58447-3.85-1.4688-9.7-1.9651-13-0.49635-3.3-2.0231-12.975-3.3928-21.5-3.2163-20.018-4.4109-34.988-5.5865-70-1.8376-54.731-2.0992-60.541-2.9939-66.5-2.6287-17.507-3.3258-26.725-2.162-28.588 1.4122-2.2612 1.4977-9.3969 0.25058-20.912-0.50633-4.675-1.4301-15.025-2.0529-23-0.62277-7.975-1.8043-21.445-2.6255-29.934-0.82127-8.4888-1.2207-17.714-0.88756-20.5 0.39833-3.3318 0.0765-6.7776-0.94021-10.066-0.85024-2.75-1.5508-6.4126-1.5567-8.1392-0.0174-5.0426-2.9609-7.7884-8.4599-7.8918-3.8698-0.073-5.0577-0.5717-6.9196-2.9068-12.555-15.745-19.438 25.725-12.581 75.802 0.59216 4.3252 0.76073 8.6002 0.37459 9.5-0.38613 0.8999-0.9771 4.7861-1.3133 8.6361-0.53696 6.1496-0.84121 6.9603-2.5045 6.6733-1.6796-0.2899-1.8147 0.1052-1.197 3.5 0.75362 4.142 2.2015 18.696 3.2249 32.417 0.64003 8.5806-0.44326 11.382-3.6378 9.4078-4.1264-2.5502-5.5716-58.634-1.7035-66.103 1.3768-2.6584 1.4638-4.5153 0.60475-12.912-0.55182-5.3938-1.0921-23.791-1.2007-40.882l-0.19737-31.075-3-1.4452c-10.62-5.1163-14.924-2.5672-14.32 8.4834 0.61961 11.35-4.6363 8.7144-5.781-2.8985-0.57333-5.8163-1.016-6.9901-2.9724-7.8814-3.155-1.4376-5.4036-0.4139-4.732 2.1543 0.67389 2.577-1.695 2.762-5.2808 0.4125-3.7652-2.467-4.8827-0.6153-4.7829 7.9256 0.13085 11.197 8.8971 24.762 17.929 27.743 4.7588 1.5705 9.197 17.159 5.5306 19.425-3.573 2.2082 0.0792 7.6012 6.16 9.0963 3.2894 0.8087 3.4999 2.3727 0.6479 4.8147-1.6591 1.4205-1.9628 2.4685-1.4412 4.9722 1.3299 6.3836 0.20137 10.675-5.9618 22.672-1.2715 2.475-4.3478 8.6353-6.8363 13.69-3.3956 6.8968-5.2898 9.5853-7.5916 10.776-2.1937 1.1344-3.067 2.3048-3.067 4.11 0 3.2671-2.1204 7.2844-5.5023 10.425-1.4808 1.375-3.5575 4.075-4.615 6s-3.32 5.975-5.0278 9l-3.1051 5.5 0.71154 23c0.39134 12.65 1.3613 30.2 2.1555 39 0.79421 8.8 1.6574 18.925 1.9182 22.5 0.73493 10.075 3.2921 37.929 6.0592 66 0.89457 9.075 1.7554 18.975 1.9129 22 0.42196 8.1033 3.4242 44.857 4.0435 49.5 0.34848 2.6129 0.22022 3.4798-0.36987 2.5-0.49684-0.825-1.6648-9.15-2.5955-18.5-0.93067-9.35-3.0159-26.9-4.6339-39s-3.3768-26.95-3.9084-33c-0.53164-6.05-2.113-22.25-3.514-36-2.5487-25.013-4.4605-59.353-4.3321-77.817 0.0686-9.8724-0.88591-13.091-3.1185-10.516-2.1123 2.4367-7.9787 12.27-10.043 16.833-1.1195 2.475-2.5706 5.4-3.2246 6.5-0.6541 1.1-2.2124 4.1006-3.463 6.668-1.2505 2.5674-2.7287 4.9492-3.2849 5.293-0.55617 0.3437-1.6964 2.9323-2.534 5.7525-3.6582 12.319-7.6288 12.618-14.837 1.1206-2.9318-4.6769-4.2127-5.7487-5.7411-4.8041-0.70572 0.4362-0.62847 1.1542 0.23627 2.1962 1.082 1.3038 0.89243 1.8026-1.2014 3.1609-6.3361 4.1103-14.903 16.517-17.613 25.509-0.9325 3.0936-3.7872 5.5228-5.0298 4.2802-1.4643-1.4643-0.52541-11.702 1.3725-14.965 1.0272-1.7662 2.66-5.3133 3.6285-7.8824 2.2165-5.8797 4.2186-7.7814 5.139-4.8814 0.35832 1.1289 1.0449 2.0526 1.5256 2.0526 1.6264 0 10.184-12.055 9.6133-13.542-0.66799-1.7408-3.7613-1.9189-5.3709-0.3092-1.5803 1.5803-4.9434-0.7387-10.322-7.1177-3.0364-3.601-5.3802-5.3447-8.2076-6.106-2.2781-0.6134-5.9672-2.9454-8.6932-5.4953-6.4265-6.0112-8.0128-5.6359-8.0395 1.9021-0.0126 3.5712-1.9109 14.523-7.8802 45.464-4.7068 24.397-4.8503 26.75-2.0765 34.048l2.0311 5.3439-3.4586 3.8283c-2.5729 2.8478-3.6133 5.0647-4.0627 8.6561-0.33223 2.6554-1.2651 6.1019-2.073 7.6589-0.80788 1.5571-1.4651 4.0321-1.4605 5.5 0.005 1.468-0.66364 5.594-1.485 9.169-4.5547 19.824-5.1255 23.685-4.3713 29.567 1.8695 14.58 2.9643 21.144 3.9922 23.933 1.2008 3.2592 3.3049 14.745 4.8124 26.271 0.52302 3.9988 1.1635 7.6146 1.4234 8.035 0.82669 1.3376 2.8725 21.503 2.6901 26.516-0.13056 3.5882 0.47778 5.9368 2.3773 9.178 4.6234 7.8893-0.17385 14.879-5.8825 8.5714zm61.93-258.4c4.4-2.4766 10.189-6.2307 12.864-8.3424 2.6754-2.1117 6.7862-5.1895 9.1352-6.8395 9.2527-6.4993 12.27-9.1536 19.244-16.926 3.9838-4.4406 9.1069-10.999 11.385-14.574 2.2778-3.575 6.4063-8.975 9.1745-12 2.7681-3.025 6.3404-8.3753 7.9385-11.89 1.5981-3.5143 3.7671-7.5643 4.82-9 1.7144-2.3377 5.9391-16.393 5.9391-19.759 0-5.6374-11.929-16.537-14.4-13.157-0.62273 0.8516-2.9034 2.7503-5.068 4.2193-2.1647 1.469-4.8648 4.3272-6.0003 6.3514-1.1355 2.0243-3.9349 4.9367-6.221 6.472s-5.4688 4.9225-7.0728 7.5271c-1.604 2.6045-5.8893 7.9734-9.523 11.931-3.6336 3.9575-7.3009 8.5381-8.1496 10.179-0.84862 1.6411-2.4386 3.268-3.5333 3.6155-1.0947 0.3474-2.7275 1.8418-3.6285 3.3209-0.90098 1.479-3.629 4.2641-6.0624 6.1891-5.9497 4.7068-7.0336 5.7613-12.841 12.493-12.353 14.32-20.865 22.481-25.154 24.119-6.7631 2.5828-5.2157 7.133 5.429 15.965 8.1731 6.7813 9.8494 6.7894 21.725 0.105zm566.09-61.784c1.5552-1.7185 1.8512-3.3646 1.6211-9.0183-0.22852-5.6157 0.0221-7.0326 1.333-7.5357 0.97925-0.3758 1.4226-1.3531 1.1269-2.484-0.26816-1.0254 0.0922-2.2009 0.8008-2.6121 4.8092-2.7908 7.265-19.242 3.542-23.728-0.48338-0.5825-1.0223-3.0662-1.1976-5.5193-0.30867-4.3193-0.51758-4.5757-6.6065-8.1096-3.4583-2.0071-7.0583-4.3436-8-5.1922-0.94173-0.8486-3.0622-1.8647-4.7122-2.258s-7.05-1.9407-12-3.4386c-23.785-7.1978-44.986-6.4395-41.213 1.4741 2.8036 5.8791 10.475 15.326 18.78 23.127 2.9882 2.8069 6.6914 6.8569 8.2292 9 1.5379 2.1431 8.7844 9.9716 16.104 17.397 10.909 11.067 13.432 14.176 13.999 17.25 0.82433 4.4685 4.8993 5.288 8.1937 1.6477zm43.495-38.062c3.0181-5.6394-1.0723-17.632-10.176-29.836-4.9678-6.6593-7.5181-9.0206-19.516-18.069-3.7927-2.8604-7.3889-5.8062-7.9917-6.5464-0.60277-0.7401-4.2028-2.7743-8-4.5203-3.7972-1.7461-7.579-3.7123-8.404-4.3695-6.4516-5.1391-33.58-5.7877-41.34-0.9884-2.6618 1.6464-6.4009 3.9406-8.3091 5.0982-1.9082 1.1577-4.5336 3.6711-5.8344 5.5853s-3.5242 4.2399-4.9409 5.1682c-5.5373 3.6282-1.9347 7.6181 5.2354 5.7984 11.371-2.886 35.257-1.289 49.299 3.2962 10.345 3.3779 10.128 3.2125 36.861 28.132 14.002 13.052 20.467 16.199 23.116 11.251zm-555.28-71.6c0.39-5.2-2.25-8.2-7.3-8.2-4.0646 0-4.3153 1.0026-1.3364 5.3456 5.9163 8.6256 8.1606 9.3739 8.6412 2.8815zm-17.114-23.103c0.80952-1.2962 2.91-2.0933 6.7955-2.5788 15.196-1.8986 17.364-14.42 2.6923-15.545-4.3618-0.3344-6.6747-0.9645-6.9841-1.9026-0.36427-1.1042 0.33817-1.2727 3.3018-0.7917 5.0944 0.8267 7.5911-0.6544 16.342-9.6944 10.53-10.878 5.4924-14.595-8.5067-6.2766-3.3926 2.0159-7.413 3.6653-8.9343 3.6653s-4.7173 0.9446-7.1022 2.0991c-7.782 3.7672-9.7216 0.9824-2.7852-3.9989 2.4805-1.7814 5.518-5.0042 6.75-7.1619 1.7225-3.0166 2.8556-3.9247 4.905-3.9306 3.71 0 19.84-19.4 19.84-23.9 0-3.4116-10.681 4.9898-15.745 12.384-3.7599 5.4905-5.0724 6.4133-6.2989 4.4287-0.65417-1.0584-1.3372-1.076-3.5009-0.09-2.2773 1.0376-2.8736 0.9714-3.9008-0.4334-1.6798-2.2973-3.7094-1.0413-11.32 7.005-3.428 3.6245-6.6306 6.5899-7.117 6.5899-0.48641 0-1.1197 0.9-1.4074 2-1.7156 6.5605-12.684-8.6789-12.74-17.7-0.0394-6.3924-2.6776-32.017-3.42-33.218-0.32234-0.5216-1.0132-6.5439-1.5352-13.383-0.64468-8.4463-1.7615-14.923-3.4821-20.194-1.39-4.3-2.53-9.1-2.53-10.7 0-4.1509-5.731-22.429-8.6092-27.458-2.6508-4.6315-5.5359-12.161-14.875-38.821-3.4679-9.9-6.9726-19.813-7.7882-22.028-1.595-4.3329-10.253-21.151-11.965-23.24-0.74559-0.9103-0.532-1.8292 0.756-3.2524 0.98736-1.091 2.3558-4.7951 3.0411-8.2312 2.2274-11.17 12.556-38.471 14.894-39.368 2.2501-0.86344 2.7055-3.4863 1.0454-6.0201-2.7936-4.2636-4.7002-2.9458-9.2655 6.4042-4.2325 8.6683-4.7291 10.308-7.7968 25.737-0.87484 4.4-2.2311 9.4778-3.014 11.284-0.78284 1.8062-1.4323 5.6312-1.4432 8.5-0.0259 6.8238-1.6696 18.028-3.3956 23.146-0.75496 2.2386-2.1322 8.5513-3.0604 14.028-1.8314 10.805-3.1433 14.079-7.9104 19.739-5.7437 6.8199-7.5861 9.5724-9.6731 14.451-1.1414 2.6683-2.9113 5.7514-3.9331 6.8514s-3.0271 4.3365-4.4563 7.1923c-2.4629 4.9214-2.8449 5.2271-7.3248 5.8608-13.514 1.9115-16.431 6.197-13.67 20.085 0.4871 2.45 6.7398 5.3622 11.513 5.3622 3.709 0 8.9199 2.5745 10.903 5.3869 0.81035 1.1489 4.6415 5.6944 8.5136 10.101 3.8721 4.4067 8.3604 10.037 9.974 12.512s4.0226 5.7045 5.3533 7.1767c3.3998 3.7613 17.383 24.109 21.622 31.464 1.9467 3.3776 5.1489 7.4276 7.1159 9 6.0146 4.8082 8.7521 7.6301 13.681 14.102 2.7346 3.5911 6.1125 6.7993 8 7.5981 1.7968 0.7603 4.1578 2.3817 5.2467 3.603 1.0888 1.2214 3.4675 2.8422 5.2859 3.602s7.1725 4.8852 11.898 9.1675 11.936 10.824 16.023 14.536c8.2343 7.479 8.3434 7.5321 10.004 4.8738zm246.36 0.8466c1.0582-0.5663 2.5917-2.321 3.4078-3.8993 0.81617-1.5783 5.3588-6.9352 10.095-11.904 8.9288-9.3683 17.442-19.758 17.442-21.287 0-0.4838 1.2021-0.8797 2.6713-0.8797 8.5677 0 8.0036-5.6596-1.5901-15.953-15.739-16.887-23.033-35.826-26.209-68.047-0.56912-5.775-1.6026-11.625-2.2966-13-1.9715-3.9059-3.5607-14.498-6.1516-41-0.83342-8.525-2.1778-19.335-2.9876-24.022-0.80977-4.6873-1.9193-12.337-2.4657-17-3.6485-31.137-4.2732-37.532-4.54-46.478-1.0134-33.979-4.6634-84.636-6.6289-92-0.60297-2.2591-1.1499-15.558-1.2566-30.557-0.10397-14.606-0.53448-27.116-0.95668-27.799-0.42221-0.68315-0.0277-4.5678 0.87657-8.6325 2.4772-11.135 1.2752-14.597-5.8471-16.842-2.9728-0.93708-6.5848-2.9334-8.0268-4.4363s-3.8524-4.0066-5.3566-5.5638-4.7599-4.2732-7.2349-6.0356c-2.722-1.9382-5.6037-5.2498-7.2934-8.3811-1.9722-3.655-6.2331-8.201-14.495-15.464-6.4358-5.6582-13.706-12.313-16.155-14.788-13.495-13.634-21.767-18.562-20.565-12.25 0.39252 2.0625 0.88435 7.125 1.093 11.25 0.2086 4.125 0.81948 9.75 1.3575 12.5 1.5341 7.8413 3.3483 28.284 2.7225 30.677-0.31105 1.1894-0.15678 3.9987 0.34283 6.2429 0.4996 2.2442 1.4083 7.2303 2.0194 11.08 0.61105 3.85 2.2492 10.519 3.6404 14.821 1.7726 5.4812 2.3344 8.8604 1.8777 11.295-0.49365 2.6314-0.12261 4.3301 1.5298 7.0037 1.4785 2.3922 2.6098 6.8088 3.5105 13.705 0.73095 5.5964 1.7894 13.1 2.3522 16.675 0.56274 3.575 1.0322 9.5163 1.0433 13.203 0.0111 3.6866 0.42343 7.7366 0.91638 9 0.49294 1.2634 1.4216 5.447 2.0638 9.297 0.64212 3.85 1.847 8.9018 2.6774 11.226 0.83045 2.3245 1.2724 4.6107 0.98203 5.0804-0.29033 0.46977 0.12118 3.2929 0.91447 6.2737s1.4674 6.9946 1.4981 8.9196 0.71732 5.3 1.5259 7.5c0.80857 2.2 2.1573 10.075 2.9972 17.5 0.83991 7.425 1.9289 16.65 2.42 20.5 0.49111 3.85 0.69457 12.384 0.45212 18.964-0.24247 6.5812 0.007 13.33 0.55382 15 0.79297 2.4201 1.7681 23.288 2.2447 48.036 0.0318 1.65 0.48274 5.6921 1.0022 8.9825 0.97211 6.1582 0.1698 17.419-1.1316 15.881-0.40218-0.4751-1.2939-3.7888-1.9817-7.3638-0.68773-3.575-2.3449-8.9169-3.6826-11.871-1.3377-2.954-2.4322-6.2745-2.4322-7.3788 0-1.1044-1.575-3.7513-3.5-5.8821-2.1678-2.3995-3.513-4.9197-3.5342-6.6212-0.0612-4.9241-3.7162-18.418-5.7244-21.134-1.0781-1.4583-2.3036-3.7677-2.7232-5.132-0.41964-1.3644-1.2139-3.0443-1.7651-3.7331-1.214-1.5174-3.4588-11.238-4.7777-20.689-0.62402-4.4716-1.8348-8.2075-3.4029-10.5-1.3388-1.9572-3.1746-6.4836-4.0794-10.059-0.90485-3.575-4.3085-11.675-7.5637-18-5.4536-10.597-7.9157-16.208-17.551-40-1.8933-4.675-4.5714-10.525-5.9512-13-5.9516-10.675-14.811-30.74-16.953-38.396-0.75348-2.6928-2.9137-7.4178-4.8006-10.5-1.88-3.01-4.86-8.91-6.61-13.03-3.5469-8.37-7.6832-17.465-9.3234-20.5-0.59445-1.1-3.4845-6.6417-6.4223-12.315-2.9378-5.6732-7.071-12.873-9.1849-16-2.1139-3.1268-4.9912-7.4851-6.3941-9.6851-3.6736-5.7608-18.264-34.528-19.664-38.772-0.65198-1.9755-2.5696-5.31-4.2613-7.4101-3.8546-4.785-7.7914-13.024-7.8043-16.333-0.0123-3.1622-2.6503-8.1818-9.9774-18.985-3.1707-4.675-6.0859-9.5298-6.4782-10.788-0.39231-1.2587-2.4991-3.4703-4.6818-4.9147-9.9143-6.561-3.1644-16.313 8.8499-12.786 12.221 3.5876 62.476 1.6807 70.877-2.6893 8.524-4.4339 11.378-18.861 3.8824-19.625-5.0135-0.51137-11.66-3.3343-18.533-7.8711-3.6034-2.3786-6.9784-4.3263-7.5-4.3282-1.1607-0.004-13.82-5.1643-17.948-7.3162-1.65-0.85999-5.8523-2.5596-9.3384-3.777-7.6461-2.67-11.815-7.6508-10.691-12.772 0.39904-1.8168 0.0111-4.8806-0.98901-7.8106-1.7124-5.0168-2.9474-15.592-3.862-33.071-0.62875-12.015 0.13928-12.764 5.2968-5.1623 4.2248 6.2269 10.192 11.545 20.583 18.342 4.4 2.8784 13.294 9.0217 19.763 13.652 25.027 17.91 54.737 30.429 54.737 23.065 0-1.8336 8.223-9.9949 51.856-51.467 35.555-33.794 35.211-33.402 32.68-37.266-1.3482-2.0577-2.2194-2.4597-4.2343-1.954-1.6041 0.4026-3.137 0.0988-4.1692-0.82639-0.89783-0.8047-6.8074-3.7806-13.132-6.6131-14.048-6.2912-16.028-7.3253-23.048-12.037-3.0515-2.0482-6.9464-4.4469-8.6553-5.3306-1.7089-0.88371-3.7669-2.2666-4.5734-3.073-0.80644-0.80645-2.9898-2.5044-4.8519-3.7733s-5.3404-4.4317-7.7296-7.0286c-2.3892-2.5968-7.657-7.2591-11.706-10.36-4.0492-3.1014-9.2363-8.1212-11.527-11.155-2.2906-3.0339-7.3696-8.7586-11.287-12.722-17.61-17.82-21.49-24.17-15.62-25.54 1.375-0.32234 2.5-1.2408 2.5-2.041 0-2.1777-8.3632-1.4065-11.5 1.0605-1.375 1.0814-3.85 2.5783-5.5 3.3265-1.65 0.74818-5.475 3.7967-8.5 6.7744s-7.5415 6.6074-10.037 8.066c-2.4952 1.4586-5.1008 3.7017-5.7903 4.9848s-2.8257 3.3594-4.7471 4.6142c-1.9214 1.2547-4.274 3.5648-5.228 5.1335s-6.42 7.0671-12.147 12.219c-5.7267 5.1516-14.493 13.203-19.482 17.893-4.9882 4.6895-10.982 10.015-13.32 11.834-5.1372 3.9981-1.8074 15.969 5.7393 20.633 0.57681 0.35649 2.2233 2.9788 3.6588 5.8274s4.1419 7.4983 6.0142 10.333l3.4041 5.1535-0.1124 12.347c-0.152 16.696 0.81284 30.121 2.6841 37.347 0.85458 3.3 1.6789 10.239 1.8318 15.42l0.27804 9.4202 5.6373 4.6478c6.61 5.45 32.88 21.01 35.47 21.01 5.9738 0 18.066 7.008 15.278 8.8542-0.76838 0.50882-12.312 0.68744-26.5 0.41007-13.826-0.27029-27.739-0.42234-30.917-0.3379-3.9053 0.10376-6.7242-0.4054-8.6973-1.5709-2.5194-1.4882-3.3032-1.5437-5.7219-0.40506-1.5415 0.72566-6.3374 1.6461-10.658 2.0454-11.575 1.0698-12.824 6.0364-4.2837 17.033 4.8505 6.2461 8.6388 12.979 8.6388 15.354 0 0.80471 1.125 2.8001 2.5 4.4342s2.5 3.453 2.5 4.0419c0 0.58897 1.2719 2.549 2.8264 4.3556 3.7863 4.4004 11.776 17.924 18.188 30.785 2.8791 5.775 6.7019 12.131 8.4951 14.125 3.6266 4.0325 7.8868 11.049 9.0309 14.875 0.41125 1.375 1.7589 3.85 2.9948 5.5 2.6783 3.5757 9.4652 16.946 9.4652 18.646 0 1.1666 1.9924 5.5548 9.4682 20.854 3.9606 8.1054 5.6273 11.021 12.002 21 7.5234 11.776 11.507 19.969 15.47 31.811 3.9443 11.789 4.8345 13.819 8.8504 20.189 1.2137 1.925 2.7142 5.075 3.3344 7 0.62021 1.925 1.7267 4.1894 2.4589 5.032 2.2691 2.6112 13.383 28.819 17.864 42.126 2.3445 6.9622 5.2278 13.885 6.4074 15.385 1.1795 1.4995 2.1446 3.3543 2.1446 4.1217 0 2.3452 5.0449 13.54 8.1084 17.993 1.5904 2.3116 2.8916 5.0792 2.8916 6.1502 0 1.0711 0.67357 2.5064 1.4968 3.1897 0.82325 0.6832 2.3508 4.0073 3.3947 7.3867 1.0438 3.3795 2.8016 7.7131 3.9063 9.6302 1.1046 1.9171 2.3206 5.0607 2.7022 6.9857 0.38159 1.925 1.5828 5.0435 2.6694 6.93 2.7607 4.7932 5.8599 13.214 5.2353 14.224-0.28671 0.4639 0.58377 2.9815 1.9344 5.5946 4.6228 8.9438 7.5547 16.752 8.1674 21.751 0.85827 7.0024 3.5451 16.701 5.1468 18.579 0.7407 0.8683 1.347 2.8933 1.3472 4.5 0.00028 1.6067 0.92331 5.3492 2.0512 8.3167s1.7904 6.0737 1.4723 6.9027c-1.2417 3.2358 1.4813 8.4174 4.0807 7.765 2.135-0.5359 2.3953-0.2697 2.3953 2.4494 0 1.6778 0.91123 5.7555 2.025 9.0616 1.1137 3.3061 2.3053 8.0565 2.648 10.557 0.70125 5.1162 2.8488 6.7296 5.0337 3.7818 1.5787-2.13 1.1396-6.0096-1.214-10.728-1.912-3.8326-1.9088-8.0947 0.007-9.6849 1.0033-0.8326 1.5-3.0809 1.5-6.7891 0-11.399 2.2926-0.461 4.4621 21.289 0.76807 7.7 2.134 20.525 3.0354 28.5 2.1003 18.582 2.3262 21.32 3.3164 40.179 0.91881 17.5 0.9861 17.673 8.3733 21.416 2.647 1.3413 4.8128 2.8037 4.8128 3.2498 0 0.446 4.3875 4.2377 9.75 8.426s11.983 9.8908 14.712 12.672c5.1498 5.248 6.3616 5.7568 9.593 4.0275zm100.55-17.1c3.5745-3.4375 9.4221-9.9578 12.995-14.49 3.5726-4.5317 7.3964-8.7215 8.4974-9.3108 5.1943-2.7799 5.436-20.207 0.79674-57.45-0.61661-4.95-1.2503-11.25-1.4083-14-1.0758-18.732-2.6703-34.87-3.9521-40-0.82448-3.3-1.5061-7.4921-1.5147-9.3157-0.009-1.8237-0.50942-4.2385-1.113-5.3662-0.67583-1.2628-1.0808-8.4397-1.0542-18.684 0.0435-16.757-0.96735-36.178-2.8436-54.634-1.9259-18.944-5.3207-62.9-6.9895-90.5-1.5428-25.516-2.0782-32.15-3.9944-49.5-5.1344-46.487-6.177-58.644-6.4753-75.5-0.24303-13.735-0.42223-14.889-3.3968-21.877-1.7271-4.0574-3.6292-9.2324-4.2268-11.5-3.2412-12.299-6.5281-14.778-12.79-9.6471-1.9976 1.6368-5.8384 4.6743-8.5351 6.75-7.1274 5.4863-17.047 15.738-21.021 21.726-1.8985 2.8602-4.1933 5.8158-5.0997 6.568-0.90635 0.75221-2.514 3.2101-3.5725 5.4621-1.0585 2.2519-5.9556 8.0267-10.882 12.833-12.6 12.24-23.02 24.31-23.02 26.6 0 1.0685-1.6328 3.1881-3.6284 4.7103-1.9956 1.5221-4.4768 4.7467-5.5137 7.1658-1.0369 2.419-2.7792 5.6535-3.8716 7.1878-2.6334 3.6983-2.7852 22.544-0.2867 35.6 0.93478 4.8845 1.7634 11.581 1.8415 14.881 0.078 3.3 0.63406 9.825 1.2356 14.5 1.6971 13.19 2.0118 18.712 3.7307 65.467 0.47863 13.019 1.8203 26.69 4.0761 41.533 0.79405 5.225 1.9199 12.65 2.5018 16.5 0.58195 3.85 1.4436 11.725 1.9148 17.5 1.4551 17.834 2.9014 31.278 3.9266 36.5 0.53988 2.75 1.4898 7.925 2.111 11.5 0.62116 3.575 1.7668 9.5138 2.5458 13.197 0.77905 3.6836 1.4165 8.5054 1.4165 10.715 0 2.2097 0.63478 5.9458 1.4106 8.3026 2.5616 7.7811 5.5894 20.68 5.5894 23.812 0 2.7657 2.0779 7.28 8.2724 17.972 1.1152 1.925 4.6189 6.2 7.786 9.5s6.9049 7.7213 8.3062 9.8251c2.7898 4.1882 2.6267 4.01 19.153 20.93 6.3151 6.4654 11.482 12.226 11.482 12.801 0 0.5751 1.6799 1.7477 3.7332 2.6056s4.814 2.4099 6.1348 3.449c4.6368 3.6473 8.5278 2.5688 15.734-4.3609zm-56.885-76.24c-6.6118-5.0485-7.5789-22.041-1.4735-25.892 2.4199-1.5264 2.7861-0.5727 1.5898 4.1406-2.8461 11.213 5.5731 21.097 11.218 13.169 3.8375-5.3893 0.90474-13.809-5.8725-16.859-4.6065-2.073-3.078-8.0695 2.0569-8.0695 2.261 0 14.049 5.4283 15.41 7.0961 9.5467 11.701 7.3859 33.047-2.6237 25.919-2.5091-1.7867-2.9294-1.8317-4.0864-0.4376-4.3086 5.1915-10.197 5.53-16.218 0.9322zm-4.8141-64.583c-19.902-3.1083-18.747-28.932 1.3278-29.678 10.859-0.4037 10.508-0.5883 14.594 7.6601 4.7475 9.5832 3.6094 18.09-2.4202 18.09-0.8776 0-2.7901 0.8262-4.25 1.836-4.0441 2.7974-4.3252 2.8609-9.2514 2.0915zm6.3392-8.9779c6.1953-1.7206 4.4335-13.965-2.0064-13.944-10.173 0.033-15.039 8.5783-7.5265 13.218 3.2775 2.024 4.5192 2.1186 9.5329 0.7262zm-28.842-65.624c-9.9703-4.9737-7.4435-26.953 3.2629-28.382 2.2899-0.30565 4.7649-1.0464 5.5-1.646 10.211-8.3299 19.754 1.0722 18.188 17.92l-0.85174 9.1669-5.5 2.2606c-6.5386 2.6875-15.952 2.9981-20.599 0.6797zm18.729-7.5363c0.66601-1.0776 0.21113-9.6141-0.66579-12.494-0.20174-0.6627-2.108-2.0931-4.236-3.1788l-3.8692-1.9739-2.7584 2.9225c-2.9259 3.1-5.116 9.1495-4.188 11.568 1.5445 4.025 13.675 6.4612 15.717 3.1566zm-30.248-73.672c-8.5102-8.5102 3.83-31.075 17.014-31.111 7.8428-0.0216 17.037 11.455 14.187 17.709-0.6 1.19-1.09 3.27-1.09 4.49 0 3.87-2.74 6.68-6.52 6.68-2.3216 0-3.7314 0.60407-4.4222 1.8948-2.8927 5.4051-13.864 5.5326-19.174 0.22283zm14.711-4.7708c9.5286-6.2434 10.908-12.899 4.1657-20.097-5.3706-5.7332-14.715 2.5054-14.745 13-0.022 7.6534 4.7969 10.886 10.58 7.0969zm-20.375-58.343c-11.58-12.54-4.34-31.54 11.28-29.72 2.75 0.32085 6.0112 0.58728 7.2471 0.59206 9.3669 0.0362 13.562 14.333 6.5029 22.163-7.091 7.8659-20.633 11.571-25.032 6.8496zm15.848-7.0388c3.9536-2.1159 2.0725-9.8077-3.0457-12.454-8.6349-4.4653-14.674 2.9935-8.4311 10.413 2.7678 3.2894 7.5544 4.1408 11.477 2.0416zm-280.18 337.82c2.2699-2.2698 5.0243-5.9823 6.1209-8.25 2.9449-6.0896 5.7979-10.37 11.746-17.621 6.2424-7.6105 10.694-21.034 8.2732-24.951-1.629-2.6357-15.483 8.0718-23.799 18.393-3.7609 4.6682-5.1911 4.0936-2.9474-1.1841 0.8792-2.0681 1.8913-4.8852 2.249-6.2602 0.35777-1.375 1.5854-4.4877 2.7281-6.9172 2.4331-5.1731 4.2085-11.807 6.8329-25.532 1.0463-5.472 2.3529-10.4 2.9034-10.95 0.55054-0.5506 1.015-2.1485 1.0322-3.551s1.1381-4.8 2.4909-7.55c4.2327-8.6045 1.2931-10.295-6.9542-4-2.5219 1.925-4.7403 3.5-4.9298 3.5-0.93547 0 0.78266-10.701 1.9295-12.018 8.1492-9.3551 12.755-21.154 8.8429-22.655-3.8215-1.4664-17.844 21.116-19.047 30.673-0.31144 2.475-1.4317 5.7342-2.4894 7.2426-1.0577 1.5085-2.3397 4.9391-2.8488 7.6236s-1.9606 6.8503-3.2255 9.2573c-2.3591 4.4892-3.4353 20.574-1.5056 22.504 1.5967 1.5967 5.306-4.926 6.532-11.486 1.2458-6.6664 3.5908-10.124 5.5426-8.1725 0.9735 0.9735-2.0858 13.45-7.8539 32.031-2.4592 7.9217-2.5574 8.9422-1.4433 15 0.65745 3.575 1.4946 10.325 1.8602 15 1.0834 13.85 2.3775 15.455 7.9599 9.8729zm494.71-27.85 2.6319-3.977-2.3194-15.773c-1.2756-8.6751-2.3962-18.275-2.4902-21.334-0.094-3.0584-0.46111-6.4751-0.81587-7.5929-1.3043-4.1093 9.4061-13.346 15.475-13.346 2.4715 0 4.1306-0.9524 7.1035-4.0775 17.198-18.079 45.229-15.929 65.249 5.0061 6.2856 6.573 7.8511-0.9529 1.8017-8.6617-1.6258-2.0718-3.4914-5.4146-4.1458-7.4285-1.2407-3.8185-2.6404-4.8384-6.64-4.8384-1.3109 0-3.8881-1.3211-5.7272-2.9359-3.6723-3.2243-13.78-6.1289-18.464-5.306-9.74 1.711-26.261 7.4846-26.261 9.1775 0 0.5706-1.4998 1.6642-3.333 2.4302-1.8332 0.7659-6.2721 4.2595-9.8644 7.7634-15.62 15.236-15.233 15.094-16.059 5.9074l-0.49101-5.4635 8.5893-9.0365c4.7241-4.9701 12.344-12.643 16.933-17.05 6.2367-5.9897 8.1755-8.4519 7.6774-9.75-1.0364-2.7009-2.7472-2.1023-7.8983 2.7633-2.6202 2.475-4.9418 4.5-5.1591 4.5-1.3133 0-0.0225-3.4408 1.9907-5.3066 1.3122-1.2161 3.107-3.7821 3.9885-5.7023 1.8727-4.0793 6.4198-12.08 12.318-21.673 2.3057-3.7502 5.3883-10.407 6.8502-14.793 1.4618-4.386 3.7378-9.2581 5.0578-10.827 1.3199-1.5686 2.3998-3.9486 2.3998-5.2889s0.38327-3.2182 0.8517-4.1733c0.46844-0.955 1.8856-3.8082 3.1493-6.3403 2.4076-4.8244 2.1213-6.8961-0.95304-6.8961-1.895 0-3.048 1.8622-3.048 4.9227 0 0.9675-2.0916 3.9682-4.6479 6.6682-4.4818 4.7336-7.1649 9.7759-22.567 42.409-4.2275 8.9569-4.637 9.7187-7.7956 14.5-2.4719 3.7418-2.4708 4.2124 0.0107 5 2.7173 0.8624 2.5137 2.2994-0.75 5.2937-1.5125 1.3876-6.2438 5.911-10.514 10.052l-7.7641 7.5288-0.0123-3.4371c-0.007-1.8905-0.0675-4.8504-0.13496-6.5775-0.0675-1.7272 0.25154-3.9772 0.70889-5 0.45736-1.0229 0.88316-5.4597 0.94623-9.8597 0.0631-4.4 1.0706-14.075 2.239-21.5 3.8034-24.17 4.009-33.312 2.9811-132.5-0.65869-63.56-1.7961-85.995-4.9541-97.718-2.577-9.5663-3.4288-11.272-3.5232-7.0563-0.37565 16.78-0.0223 38.412 0.89604 54.859 1.5379 27.542 0.6036 107-1.4336 121.92-0.82615 6.05-1.7841 17.075-2.1287 24.5-0.8122 17.498-3.1775 38.427-4.9162 43.5-2.6379 7.6969-2.7993 10.354-0.59387 9.7777 1.6497-0.4314 1.9577 0.013 1.9783 2.8557 0.0134 1.8516 0.51778 5.3916 1.1208 7.8666 0.64473 2.6464 1.1993 17.475 1.3464 36 0.18151 22.862 0.68586 34.242 1.8392 41.5 0.874 5.5 2.076 13.15 2.6711 17 1.8994 12.288 2.7825 13.294 6.6016 7.5229zm-811.68-34.1c15.273-15.984 15.734-17.47 5.9204-19.101-11.695-1.9442-10.988-2.298-13.431 6.7234-2.0512 7.5751-6.3632 18.79-7.7624 20.19-1.546 1.546-0.56929 4.3103 1.523 4.3103 1.466 0 5.9123-3.9199 13.75-12.122zm907.08-4.5c0-4.9708-26.727-24.343-33.628-24.375-1.1703-0.01-3.8703-0.744-6-1.6413-6.3964-2.6951-17.791-3.9377-25.645-2.7966-10.041 1.4588-3.7564 3.3427 8.658 2.5953 4.341-0.2613 17.032 2.5155 20.115 4.4011 1.1 0.6729 3.0037 1.5228 4.2304 1.8888 5.0569 1.5083 16.459 9.2177 25.472 17.223 5.2174 4.6338 6.7972 5.2624 6.7972 2.7048zm-600.85-23.588c3.4705-8.9067 3.4881-9.5076 0.35062-11.976-4.7265-3.7178-2.9485-11.386 3.0632-13.211 7.4135-2.2507 23.788-37.373 20.07-43.048-2.9636-4.5231-8.3326-0.8702-10.631 7.233-1.5834 5.5823-7.2966 14.544-10.157 15.934-1.688 0.8199-4.1665 4.4287-7.438 10.83-2.6985 5.2801-5.4495 10.598-6.1132 11.816-1.8296 3.36 1.994 26.797 4.9622 30.417 1.5344 1.871 2.6271 0.3888 5.894-7.9955zm-300.15-9.8c1.925-2.7417 5.3-6.0929 7.5-7.447 12.872-8 17.969-15.6 10.41-15.6-6.2136 0-2.7438-12.331 4.0791-14.496 1.0206-0.324 3.5623-2.4823 5.6482-4.7963s5.692-5.4166 8.0137-6.8946c10.544-6.7127 9.3979-15.919-1.3349-10.724-2.374 1.1-4.316 2.5-4.316 3 0 0.7912-20.448 21.379-25.909 26.086-2.4786 2.1364-3.8326 10.223-2.0678 12.35 1.0159 1.2241 0.9557 1.8381-0.31798 3.2455-1.562 1.7-8.705 17.5-8.705 19.3 0 2.5763 3.918 0.2711 7-4.1185zm286.24-21.8c0.85383-0.9625 2.9227-4.7927 4.5975-8.5116 1.6748-3.7188 4.646-8.7152 6.6026-11.103 1.9566-2.3877 3.5575-5.2053 3.5575-6.2612s1.648-4.3845 3.6622-7.397c4.3816-6.5531 6.9502-15.514 6.5332-22.792-0.33969-5.9291-1.7161-6.4597-4.216-1.6252-0.8363 1.6172-2.7488 4.7324-4.25 6.9225-1.5012 2.1902-2.7295 4.7551-2.7295 5.6999 0 2.9611-6.0142 10.797-9.3597 12.195-2.6671 1.1144-3.4065 2.186-4.5284 6.5635-0.73744 2.8773-2.6336 7.7803-4.2137 10.896-4.5408 8.9525-1.0166 21.457 4.3442 15.414zm-7.2795-25.177c1.102-2.16 2.91-4.215 4.018-4.5666 1.1197-0.3554 2.2604-1.8312 2.5683-3.3228 0.3046-1.4758 1.3949-4.9333 2.4228-7.6833s2.1766-6.125 2.5526-7.5c0.37602-1.375 1.2569-3.4128 1.9574-4.5284 0.70057-1.1157 2.7232-5.6157 4.4946-10 1.7715-4.3844 3.4496-8.5341 3.7291-9.2216 2.4048-5.9145-7.4827 3.5062-11.146 10.619-5.31 10.4-10.56 15.1-10.56 9.6 0-5.5355-2.8317-1.7991-6.6422 8.7645-4.7254 13.1 1.0572 28.742 6.6051 17.867zm-260.96-9.6c2.475-3.0715 5.9625-7.386 7.75-9.5878s3.25-4.8351 3.25-5.8519c0-3.0217 3.9068-4.9621 9.9904-4.9621 11.228 0 16.107-6.3784 9.1157-11.916-4.5304-3.5881-4.9542-3.6521-8.9605-1.3528-5.4087 3.1042-5.3602 2.1199 0.70168-14.231 4.305-11.62 7.841-17.5 10.515-17.5 4.18 0 12.637-7.13 12.637-10.65 0-2.64-2.646-4.35-6.74-4.35-1.579 0-4.396-1.12-6.26-2.5-4.1388-3.0535-3.2518-3.1707-7.9202 1.0468-4.2884 3.8743-12.566 8.4423-15.311 8.449-1.0641 0.003-1.9785 1.0636-2.3736 2.7542-0.35344 1.5125-2.4546 6.92-4.6692 12.017-5.2358 12.049-3.6522 12.964 7.3663 4.2544 6.559-5.16 11.908-6.49 11.908-2.9 0 3.7514-14.914 14.9-20 14.95-3.6077 0.036-4.6409 1.0006-5.8831 5.4941-1.5402 5.5717-1.4797 5.7386 1.818 5.0143 6.1352-1.3475 8.7601 4.3179 4.4009 9.4985-1.8702 2.2226-2.3125 3.3836-1.4839 3.8957 0.86983 0.5375 0.67282 1.7634-0.74896 4.6605-8.9256 18.187-8.4553 25.439 0.89708 13.833zm250.21-16.138c1.3028-5.0279 4.8541-10.453 6.4433-9.843 2.8809 1.1055 6.3651-4.7177 5.3377-8.921-1.609-6.5831-1.9029-21.057-0.5348-26.336 2.251-8.6869 0.20587-12.734-2.4177-4.7844-0.61336 1.8585-1.9983 4.1782-3.0776 5.155-1.0793 0.97675-1.9624 3.0011-1.9624 4.4984 0 1.4975-0.74813 3.3402-1.6625 4.0951-3.0024 2.4785-5.4347 9.4123-4.7668 13.589 0.47923 2.997 0.0478 4.8954-1.9789 8.7071-3.047 5.7306-3.0438 5.6914-1.0345 12.457 1.8015 6.0663 4.2833 6.6734 5.6542 1.3832zm445.25-21.663c1.5965-5.5992 1.4519-10.601-0.30644-10.601-0.71619 0-3.1777 13.201-3.1606 16.95 0.0128 2.7994 1.7828-0.4418 3.467-6.3486zm-453.29-3.5477c1.0153-2.9955 2.717-7.2705 3.7815-9.5 3.6277-7.5978 3.7016-9.5537 0.36124-9.5537-4.5559 0-5.1648-1.3352-4.5696-10.019 0.80481-11.742-2.8153-15.407-4.3569-4.4115-0.30309 2.1619-1.3618 5.9558-2.3526 8.4308-0.99084 2.475-2.5939 7.9191-3.5624 12.098l-1.7608 7.5979 3.397 5.6869c4.3897 7.3486 6.4861 7.2725 9.0627-0.3291zm455.39-17.498c-0.41225-2.7491-0.10438-5.403 0.90781-7.8255 0.84238-2.0161 1.5316-5.4252 1.5316-7.5757s0.675-5.5255 1.5-7.5 1.4993-4.842 1.4985-6.3721c-0.0008-1.5302 2.2443-11.107 4.9891-21.282 10.059-37.289 13.083-50.749 15.504-69 0.91187-6.875 2.4881-16.325 3.5028-21 2.2584-10.406 3.7674-20.247 4.5234-29.5 0.31456-3.85 1.2375-9.8871 2.051-13.416 1.3098-5.6813 6.1058-35.531 8.4977-52.887 0.47775-3.4668 1.3307-7.9668 1.8954-10s1.0292-6.9628 1.0323-10.955c0.003-3.9918 0.86337-13.667 1.9118-21.5 1.0484-7.8332 2.6105-20.992 3.4713-29.242 0.86083-8.25 2.2611-21.525 3.1118-29.5 1.8428-17.276 1.8801-19.654 0.32349-20.616-2.0692-1.2788-18.924-0.3784-21.92 1.171-1.5365 0.79457-3.9706 1.4447-5.4091 1.4447s-3.5983 0.52879-4.7997 1.1751c-1.2013 0.64629-3.7593 1.5022-5.6843 1.9019-3.6689 0.76193-7.9563 2.1817-14.268 4.725-4.1505 1.6723-16.938 2.3324-20.482 1.0572-3.9443-1.4194-0.83731-12.829 3.5-12.852 0.6875-0.004 1.25 0.44317 1.25 0.99317s0.675 1 1.5 1c1.7951 0 1.9166-1.36 0.34611-3.8748-0.90329-1.4464-0.82522-2.3169 0.3595-4.0084 2.4166-3.4502 1.294-20.091-1.8082-26.805-1.32-2.9-2.4-5.95-2.4-6.81 0-0.86739-1.3015-3.9328-2.8922-6.8119-1.5907-2.8792-3.4476-7.0348-4.1264-9.2348-1.2319-3.9926-3.6008-7.5-5.0654-7.5-3.4056 0-4.8686 18.709-1.916 24.5 1.1 2.1576 2.0049 4.8402 2.0108 5.9614 0.0197 3.7086 2.9783 11.898 5.1233 14.181 2.6864 2.8596 1.9708 6.1501-2.5573 11.759-1.82 2.2543-3.4819 4.5487-3.693 5.0987-0.21109 0.55-3.0252 4.917-6.2536 9.7045-8.3962 12.451-7.0117 20.658 2.9552 17.517 9.4429-2.9754 25.024-5.6299 38.915-6.6298 7.7-0.55425 16.25-1.6968 19-2.5389 2.75-0.84214 6.2671-1.536 7.8157-1.542 1.5487-0.006 3.7698-0.5214 4.9358-1.1454 2.3161-1.2396 7.4603 3.1738 6.1572 5.2823-0.65549 1.0606-2.2068 13.618-2.8233 22.852-0.20193 3.025-0.86431 9.1-1.4719 13.5-0.60764 4.4-1.5454 14.403-2.0839 22.229-0.53852 7.8259-1.4909 17.051-2.1163 20.5-0.62546 3.449-1.3143 10.052-1.5307 14.672-0.27806 5.9367-1.0145 9.6449-2.5103 12.64-1.4608 2.9249-1.9748 5.4347-1.6586 8.0985 0.25196 2.1231-0.14302 5.3082-0.87774 7.078s-1.3359 6.353-1.3359 10.185c0 3.8319-0.48483 8.2338-1.0774 9.7821s-1.2216 5.2901-1.3978 8.3151c-0.17623 3.025-1.7441 12.025-3.4841 20s-3.575 19.225-4.0777 25c-0.50275 5.775-1.3568 12.75-1.8979 15.5-1.2949 6.5809-1.6599 13.238-0.77428 14.124 1.2428 1.2428 0.76857 3.4851-1.2907 6.1031-1.422 1.8078-2 4.0568-2 7.782 0 2.8817-0.7079 7.2085-1.5731 9.6151-0.86521 2.4066-1.9602 6.4007-2.4333 8.8757-0.47309 2.475-1.7869 7.7412-2.9196 11.703-1.1327 3.9614-1.9918 8.2364-1.9091 9.5s-1.0452 7.0224-2.5064 12.797c-1.9418 7.6746-2.6964 13.325-2.8045 21-0.0813 5.775-0.75671 13.567-1.5009 17.315-1.9366 9.7544-1.8314 16.805 0.23906 16.011 1.2532-0.4808 1.4594-1.4966 0.96839-4.7708zm-604.22-155.85c-0.82785-24.06-0.8238-24.138 1.5532-29.995 2.2583-5.5642 2.5264-11.799 0.53535-12.451-3.1579-1.034-7.9314 4.2551-7.9762 8.8378-0.0265 2.7101-1.1389 6.9895-2.75 10.58-3.88 8.66-4.48 12.28-2.02 12.28 2.8746 0 4.3224 1.9818 4.347 5.95 0.0121 1.9525 0.84175 5.3546 1.8437 7.5601 1.002 2.2056 2.1375 5.6931 2.5234 7.75 1.5042 8.0182 2.4218 3.083 1.9541-10.51zm459.35-8.5c1.4296-1.5125 6.118-7.25 10.419-12.75 4.3007-5.5 9.072-11.536 10.603-13.413 1.531-1.8772 3.6067-4.7592 4.6128-6.4044 3.5114-5.7422 16.21-20.276 28.424-32.531 6.7688-6.7917 13.258-14.217 14.421-16.5 1.1629-2.2833 3.0847-5.5014 4.2708-7.1514 1.186-1.65 2.7356-4.1693 3.4436-5.5984 0.78281-1.5803 3.3242-3.5143 6.4862-4.9359l5.1991-2.3374-0.15575-12.564c-0.17952-14.482-0.85183-19.888-3.658-29.419-1.4893-5.0579-1.8585-8.3341-1.4087-12.5 0.3981-3.687 0.11864-7.2067-0.80556-10.146-3.0402-9.6675-7.7606-27.629-7.8995-30.059-0.0805-1.4072-1.3474-3.986-2.8155-5.7307l-2.6692-3.1722-5.5808 2.4681c-5.3335 2.3587-6.9243 4.545-4.4291 6.0871 0.63344 0.39148 1.6956-0.032 2.3602-0.94098 2.3166-3.1682 3.2062-1.5849 4.8962 8.7134l1.7011 10.366-3.5547 6.4669c-1.9551 3.5568-3.5546 7.5001-3.5546 8.7629s-1.125 5.4147-2.5 9.2266c-1.375 3.8118-2.5 7.8738-2.5 9.0266s-1.0981 3.5357-2.4402 5.2953-3.3557 5.8041-4.4747 8.9876c-1.119 3.1836-2.7208 6.5468-3.5598 7.4738-0.83893 0.92701-1.5253 2.1412-1.5253 2.6981 0 1.4161-7.9631 17.495-9.5937 19.372-0.73701 0.84817-2.9622 5.5659-4.9449 10.484-1.9827 4.918-4.025 9.448-4.5384 10.067-0.51347 0.61869-1.8226 3.7089-2.9092 6.8672-1.0866 3.1582-2.8329 7.1593-3.8807 8.8912s-2.2117 4.1616-2.5866 5.3992c-0.37483 1.2377-2.647 5.8037-5.0494 10.147-2.4023 4.343-4.6769 9.6304-5.0547 11.75-0.3778 2.1193-1.5174 5.4282-2.5325 7.3532-2.4079 4.5665-5.8501 14.446-6.7942 19.5-0.41095 2.2-1.3121 5.0427-2.0026 6.3171-2.8622 5.2828 2.4172 8.8387 6.5815 4.4329zm-319.71-12c-0.01-2.0625-0.69684-6.9-1.5273-10.75-0.83047-3.85-2.2082-10.6-3.0615-15-0.85337-4.4-2.6683-12.95-4.0333-19-4.4596-19.767-6.6434-32.89-6.5099-39.12 0.0819-3.8205-0.61684-8.2941-1.8597-11.907-1.095-3.1827-1.9909-6.9802-1.9909-8.439 0-3.215-1.6952-5.7-5.017-7.3547-1.518-0.75615-3.2602-3.1694-4.483-6.2096-1.1-2.735-3.3692-6.9972-5.0427-9.4715s-4.413-7.4238-6.0878-10.999c-2.651-5.6587-8.8343-15.731-13.922-22.676-1.4811-2.0222-1.4118-2.6817 0.97906-9.3096 2.8512-7.9043 3.1087-10.184 1.4501-12.839-1.1832-1.8946 1.172-8.1746 3.0658-8.1746 4.6604 0 10.197-4.1376 8.6652-6.4756-2.2859-3.4887-2.0498-5.159 1.892-13.384 5.7552-12.009 2.2312-13.158-10.459-3.4086-0.25228 0.19382-0.70228 2.471-1 5.0604-0.45374 3.9464-0.91089 4.7604-2.8262 5.0321-4.835 0.68587-8.1731 9.4782-9.9283 26.15l-0.78687 7.4744-3.2454-3.4744c-4.1692-4.4634-2.3927-11.429 5.9146-23.19 2.3485-3.3249 5.1653-12.47 4.4306-14.384-2.1473-5.5957-12.025 1.3306-13.102 9.1877-0.37061 2.7019-1.0816 6.4876-1.5801 8.4126-0.49844 1.925-0.90876 4.9766-0.91182 6.7814-0.008 4.5226-2.6114 5.3782-5.6426 1.8542l-2.3218-2.6993 2.4794-6.5872c4.1784-11.101 3.1623-13.204-4.7777-9.8861-9.8799 4.1281-11.423 7.9045-5.9151 14.473 7.19 8.59 10.77 16.07 7.67 16.07-1.9841 0-1.8893 1.9 0.25526 5.1178 0.95961 1.4398 3.0586 4.5898 4.6644 7s4.0795 6.1822 5.4971 8.3822 3.1264 4.3516 3.7973 4.7812c0.67096 0.42968 2.0855 2.7381 3.1435 5.1298s3.9978 6.8952 6.533 10.008c2.5352 3.1125 4.6353 6.4291 4.667 7.3702 0.0635 1.8842 2.0496 4.9358 9.1924 14.124 2.6125 3.3605 4.75 6.4852 4.75 6.9438 0 0.45861 0.9 1.6483 2 2.6438 1.1 0.99549 2 2.4406 2 3.2114 0 0.77076 1.3969 2.6773 3.1042 4.2367 3.3572 3.0664 6.8958 13.375 6.8958 20.09 0 1.9697 0.93512 7.3794 2.078 12.022 7.5655 30.729 10.192 40.515 12.753 47.523 1.5918 4.3548 3.6539 10.505 4.5825 13.668 1.9298 6.5722 3.5943 7.505 3.5688 2zm-111.54-4.6606c0.63538-2.4982 0.52075-6.503-0.35466-12.39-0.71141-4.7845-1.5083-11.737-1.7709-15.449-0.59348-8.3912-1.9246-8.7032-9.2051-2.1573-4.7201 4.2438-5.1082 4.9376-5.1082 9.134 0 2.4977-0.5221 6.2839-1.1602 8.4138-1.3314 4.4438-0.59475 5.8122 2.1921 4.0717 2.7032-1.6882 2.6287-1.7483 4.3902 3.5378 3.9486 11.849 8.7027 13.938 11.017 4.8394zm671.8-5.4089c2.5433-4.3055 2.6014-16.596 0.28474-60.18-0.19003-3.575-0.85777-10.325-1.4839-15-0.6261-4.675-1.2681-11.425-1.4266-15-0.32597-7.3508-2.0296-18.39-4.3212-28-0.85249-3.575-2.1122-10.699-2.7994-15.831-1.19-8.8876-2.5663-12.424-4.1992-10.791-1.9335 1.9335 0.34147 25.701 4.7018 49.122 1.1263 6.05 2.7161 16.584 3.5328 23.409 0.81671 6.8248 1.8935 14.025 2.3928 16 0.49934 1.9752 0.8405 4.4913 0.75815 5.5913-0.0824 1.1 0.2334 9.903 0.70168 19.562 0.83506 17.225 0.12699 25.773-2.585 31.208-2.1994 4.4079 1.8346 4.326 4.4433-0.0902zm-250.21-2.43c4.0643-8.9539 1.8536-17.944-5.3526-21.767-3.2737-1.7367-5.1378-3.6861-7.0946-7.4194-3.7514-7.1569-6.6524-11.723-9.8297-15.472-1.5125-1.7847-2.75-3.9441-2.75-4.7987 0-0.85461-1.4818-3.6326-3.293-6.1733-4.5357-6.3628-10.217-16.917-14.859-27.606-2.1467-4.9423-4.9429-10.567-6.2138-12.5-1.2709-1.9327-5.3708-8.6889-9.1108-15.014-3.74-6.325-7.9223-13.185-9.294-15.245-1.3716-2.0596-3.5585-7.8436-4.8597-12.853-1.3012-5.0098-3.3792-10.384-4.6177-11.943-1.2385-1.5588-3.7669-4.8872-5.6186-7.3966-1.86-2.51-3.75-4.56-4.2-4.56-0.45516 0-2.5401-1.5728-4.6332-3.4952-4.701-4.3175-4.4866-4.3267-8.1916 0.35128-3.7406 4.7229-5.312 8.546-4.0367 9.8212 0.57495 0.57495-0.61949 1.0227-3.1221 1.1704-10.212 0.60257-10.882 3.447-4.9808 21.152 9.1773 27.534 12.182 37.93 11.545 39.939-0.90354 2.8468 1.0446 5.0607 4.4532 5.0607 2.1116 0 3.929 1.4114 8.0481 6.25 2.9263 3.4375 5.8081 6.7 6.404 7.25 1.0534 0.97219 12.859 13.516 21.209 22.535 2.2737 2.4558 6.4795 6.4901 9.3462 8.9651 7.8054 6.7389 14.735 14.099 16.716 17.756 0.97047 1.7907 2.5675 3.5106 3.5489 3.8221 0.98145 0.3115 4.2023 3.5714 7.1574 7.2442 7.1977 8.9458 18.044 18.865 20.896 19.109 0.43939 0.0377 1.667-1.844 2.728-4.1815zm-402.03-14.73c0-6.2452-5.5319-15.205-7.4608-12.084-0.8371 1.3545 0.49717 9.0838 2.1256 12.313 1.9595 3.8862 5.3352 3.7408 5.3352-0.22976zm-67.16-40.61c-0.52-14.24-9.84-12.09-9.84 2.27 0 0.17359 1.6044 2.0915 3.5654 4.262 5.4899 6.0766 6.6932 4.8238 6.2763-6.5345zm16.96 8.39c1.8119-1.8119 1.4502-4.5424-1.05-7.9259-2.1174-2.8655-2.2319-3.852-1.9424-16.743 0.43194-19.236-1.8698-23.579-8.1315-15.345-2.214 2.9115-2.6879 4.3615-2.194 6.7136 0.34643 1.65 1.2178 6.825 1.9364 11.5 2.6127 16.997 7.2679 25.914 11.382 21.8zm442.76-10.399c0.38475-3.0794 0.34267-7.9169-0.0935-10.75-1.0984-7.1343-0.74414-105.6 0.38496-107.01 0.49947-0.62658 1.2223-2.1637 1.6064-3.4159 0.38403-1.2522 1.7891-2.9914 3.1224-3.865 4.61-3.0206 3.4006-5.9055-8.18-19.512-17.798-20.912-27.39-19.844-51.247 5.7011-4.2539 4.555-7.7518 7.4522-8.9974 7.4522-6.9364 0-6.1123 10.346 2.2301 28 1.4295 3.025 2.6034 6.445 2.6088 7.5999 0.005 1.155 2.2598 6.2409 5.0098 11.302 2.75 5.0612 5 9.754 5 10.428 0 1.232 6.3015 15.958 12.565 29.361 8.6784 18.573 11.556 24.107 13.405 25.781 1.0986 0.99422 3.3066 4.1071 4.9067 6.9175 8.3601 14.684 16.642 20.31 17.679 12.011zm-420.35-31.74c-0.59187-6.8487-0.82448-13.415-0.5169-14.591 0.31795-1.2159-0.0924-2.8794-0.95107-3.8556-0.97244-1.1056-1.7451-4.9223-2.1696-10.717-1.2004-16.386-1.6124-17.002-6.416-9.5888-5.9255 9.1446-6.5658 11.619-4.7964 18.535 2.115 8.2672 2.7601 11.842 2.8396 15.738 0.0816 3.9967 1.3992 6.8158 3.1856 6.8158 0.72212 0 2.1407 1.9125 3.1524 4.25 5.1232 11.837 7.0692 9.577 5.6724-6.5865zm474.26-5.6909c19.328-37.459 23.952-69.566 11.999-83.32-1.9847-2.2838-5.4901-6.4919-7.7898-9.3512-15.39-19.135-34.877-39.916-36.493-38.918-5.2457 3.242 1.6051 40.63 8.2417 44.979 2.3687 1.552 8.57 13.502 8.57 16.515 0 0.9089 0.9 3.3317 2 5.3841s2 4.8016 2 6.1095c0 1.3078 0.71345 4.347 1.5854 6.7536 1.8589 5.1305 4.335 29.27 4.3979 42.876 0.0697 15.066 1.3036 17.083 5.4887 8.9726zm-457.67-15.12c0.16445-1.3708-0.85821-5.6111-2.2726-9.4229-3.5132-9.4683-4.2826-21.947-1.9604-31.797 2.6688-11.32 0.52391-18.653-3.3626-11.497-0.93692 1.7253-3.0939 5.2634-4.7934 7.8626l-3.0899 4.7257 0.78792 10.387c0.93219 12.29 1.4552 14.205 6.3859 23.387 5.59 10.41 7.6309 11.972 8.3049 6.3534zm75.253-75.519c1.6917-5.3942 3.3221-8.4682 5.662-10.675 1.8074-1.7048 3.2862-4.0747 3.2862-5.2665s1.5554-4.3553 3.4564-7.03c5.347-7.523 8.0978-13.209 6.947-14.36-1.8868-1.8868-9.6475 3.1084-13.201 8.4966-1.8134 2.75-4.3319 6.125-5.5966 7.5-6.1023 6.6347-10.239 24.123-6.7109 28.374 2.143 2.5822 3.6959 0.80676 6.1565-7.0392zm419.75-8.3669c4.2346-3.3177 9.2742-8.0857 11.199-10.596 1.925-2.5099 6.4334-8.2329 10.019-12.718 10.684-13.366 17.793-30.884 11.907-29.345-1.7799 0.46546-1.9739 0.18369-1.4706-2.1366 0.8455-3.8977-1.7549-7.6661-11.455-16.6-4.675-4.3058-11.902-11.034-16.061-14.951-4.1586-3.9171-9.0716-8.022-10.918-9.122-1.8462-1.1-4.766-2.9-6.4884-4-3.7972-2.4251-25.483-20.49-27.405-22.83-2.6077-3.1738-4.693-1.9369-8.1211 4.8168-1.811 3.568-4.7336 8.1805-6.4947 10.25s-3.7838 4.8878-4.4951 6.2628c-1.8237 3.5257-7.8901 10.426-19.767 22.485-11.452 11.627-11.806 12.493-6.5 15.89 2.0625 1.3205 12.301 10.889 22.753 21.263s21.027 20.192 23.5 21.819c5.3557 3.5218 9.2534 7.209 10.88 10.293 0.65286 1.2375 1.8182 2.25 2.5897 2.25 0.77147 0 2.8569 2.025 4.6343 4.5s3.8348 4.5 4.5719 4.5c0.73714 0 2.1109 0.9 3.0527 2 2.8009 3.2712 5.8696 2.3916 14.069-4.0322zm-397.26-0.054c1.7565-3.4663 2.3881-5.9481 1.983-7.7924-0.73583-3.3502 5.0078-11.272 9.5313-13.145 2.23-0.91 2.95-1.87 2.95-3.89 0-2.53 1.56-5.08 3.09-5.08 0.38152 0 0.23907 1.791-0.31655 3.98-1.0096 3.9775-0.42931 11.381 1.082 13.804 1.256 2.0137 3.5496 0.52062 6.5903-4.29 1.5386-2.4341 3.9044-5.151 5.2575-6.0375 2.1262-1.3931 2.4148-2.2359 2.1266-6.2096-0.32762-4.5167-0.24407-4.6606 4.7438-8.1722 14.51-10.21 16.5-12.76 13.36-17.17-3.45-4.84-13.93-1.49-13.93 4.47 0 5.9881-5.1777 10.817-7.613 7.1006-1.8496-2.8228-4.5408-3.1923-6.4547-0.88625-0.72194 0.86988-3.9192 2.8974-7.105 4.5056-4.3812 2.2116-6.2822 3.8841-7.8028 6.8648-1.1058 2.1674-2.6335 4.3024-3.3951 4.7444-5.1347 2.9801-12.387 19.18-10.642 23.771 0.55676 1.4644 1.0123 3.9833 1.0123 5.5975 0 4.6051 2.6389 3.5811 5.5437-2.1513zm47.69-22.66c0.84917-0.9625 3.2029-5.0687 5.2305-9.1249s5.34-9.5123 7.361-12.125c2.021-2.6124 4.4659-6.1994 5.433-7.971 0.96718-1.7716 2.6547-3.4554 3.75-3.7419 3.1599-0.82633 2.8258-7.9503-0.4427-9.4395-4.6652-2.1256-10.01 4.5078-18.966 23.539-7.1712 15.239-8.4975 25.813-2.3659 18.863zm28.275-4.5924c0.32177-1.1867 1.7642-4.7296 3.2055-7.8732 2.7653-6.0315 1.9113-11.36-2.393-14.933-2.11-1.7512-2.6261-0.34882-1.0323 2.8053 1.6928 3.35 1.4085 4.4526-2.6016 10.089-3.1841 4.4755-3.8914 9.0985-1.7811 11.641 1.5814 1.9055 3.8477 1.0538 4.6024-1.7296zm225.49-44.179c1.377-0.70119 4.3469-3.2332 6.5997-5.6266s5.9637-6.0975 8.2464-8.2312c2.2826-2.1337 4.1503-4.2367 4.1503-4.6733 0-0.43658 1.0634-2.0658 2.3632-3.6205 1.2997-1.5547 2.713-3.943 3.1406-5.3074 0.42759-1.3644 1.598-3.6144 2.6009-5s2.3873-4.7693 3.0765-7.5193c1.4353-5.7276 7.7249-16.395 10.766-18.258 2.9897-1.8324 2.64-2.5583-3.4467-7.1538-8.4985-6.4164-5.2713-9.2756 8.6717-7.6826 33.252 3.7992 68.867 2.1887 73.828-3.3386 1.375-1.5318 3.5125-3.3143 4.75-3.961 4.2237-2.2074 1.4943-18.012-4.4571-25.809-3.2321-4.2343-3.441-4.9072-2.4877-8.0136 0.97356-3.1722 0.86818-3.457-1.6322-4.4118-2.78-1.07-0.98-3.88 2.49-3.88 0.69762 0 2.2991-1.0976 3.5589-2.4391 1.5256-1.6246 3.6234-2.5429 6.2822-2.75 10.18-0.79 3.02-12.81-7.64-12.81-2.4252 0-5.4272-0.71287-6.6712-1.5842-1.8158-1.2718-2.8749-1.3704-5.3717-0.5-4.9027 1.7091-10.159 1.4314-9.4186-0.49763 0.33385-0.86998 0.60699-2.2187 0.60699-2.9971 0-4.0179 7.1587-9.5198 11.533-8.8639 2.6513 0.39758 4.4834 0.22534 4.9078-0.46141 0.37249-0.60269 1.6632-1.1024 2.8682-1.1106 1.205-0.008 3.1425-0.57061 4.3054-1.25 8.9892-5.2516 11.41-6.2135 16.866-6.7009 7.7292-0.69059 9.7428-4.1043 5.211-8.8345-1.48-1.55-2.69-3.26-2.69-3.81 0-1.8278-6.4558-7.2426-9.5-7.9681-11.13-2.65-10.54-10.42 0.78-10.42 4.1435 0 5.2435-0.44854 7.7024-3.1407 2.7148-2.9723 3.0834-3.0862 6.8765-2.1234 14.453 3.6685 20.991-8.4454 8.1196-15.044-6.1174-3.136-24.181-20.354-26.025-24.808-1.3592-3.2815-3.1685-4.1323-6.2757-2.9509-1.2685 0.48229-4.8871 1.1993-8.0414 1.5934-5.74 0.71-8.64 2.39-8.64 4.99 0 2.3664-3.127 3.2771-9.3231 2.7152-5.9043-0.53538-5.9618-0.51546-5.3703 1.8609 0.32882 1.3212 0.90815 3.6988 1.2874 5.2838l0.68954 2.8817-6.6418-0.63167c-3.653-0.34743-9.5668-0.9091-13.142-1.2482-6.0354-0.57243-6.5-0.78911-6.5-3.0314 0-5.2221-11.518-3.7004-36.5 4.8221-7.6373 2.6055-7.5825 2.5393-6.2407 7.5317 1.318 4.904-0.70503 8.294-4.9495 8.294-5.2908 0-7.4832 2.7647-6.763 8.5286 0.87636 7.0142-0.005 8.2644-9.3205 13.228-9.96 5.31-17.22 4.75-17.22-1.33 0-0.70464-2.8422-1.7771-6.75-2.547-4.8448-0.95453-7.3145-2.0061-8.75-3.7255-8.236-9.8653-8.0445-9.7281-11.729-8.3956-1.8769 0.67869-4.5509 1.234-5.9423 1.234-8.771 0-11.35 3.4543-8.4648 11.336 2.8199 7.7027 6.7402 10.433 9.729 6.7758 3.005-3.6769 9.2928-3.6083 9.721 0.10617 0.33312 2.8897-7.7252 11.729-10.726 11.765-1.96 0.03-10.09-4.85-10.09-6.04 0-0.53861-1.2375-1.5055-2.75-2.1487-4.104-1.7452-7.2494-4.8719-7.255-7.212-0.003-1.1416-1.0754-3.4136-2.3837-5.0487l-2.3787-2.973-6.7092 1.1492c-3.69 0.63208-6.989 1.429-7.3309 1.771-0.71093 0.71093-0.43244 1.1257 6.1342 9.1372 2.6547 3.2388 5.3385 7.0137 5.9641 8.3887 8.5889 18.88 32.49 29.958 42.148 19.535 2.5624-2.7653 9.5609-5.8379 9.5609-4.1975 0 16.554-29.532 22.058-43.122 8.0362-4.6065-4.7527-5.8292-4.377-15.12 4.6459-8.6249 8.3762-16.026 12.931-21.204 13.051-5.0616 0.1165-6.6182 1.272-9.3966 6.9754-1.5443 3.1701-4.0112 6.3502-5.8904 7.5934-1.7783 1.1765-5.1533 4.5515-7.5 7.5l-4.26 5.36 0.15952 8c0.34723 17.413 0.40536 17.659 5.7009 24.094 6.0967 7.4085 22.15 23.9 35.739 36.715 9.4873 8.9468 13.144 11.821 21.542 16.932 1.5726 0.95707 5.7566 3.7696 9.2977 6.25s7.2162 4.5099 8.167 4.5099c0.9507 0 4.8034 1.6442 8.5616 3.6538 15.61 8.347 28.45 10.35 37.337 5.8245zm-144.99-126.35c0-1.55-4.11-6.13-5.51-6.13-3.6709 0-2.2533 4.333 1.9788 6.0485 2.7176 1.1016 3.5347 1.1215 3.5347 0.0864zm-12.5-3.2045c0-1.4951-0.66234-2.5305-1.753-2.7406-2.2488-0.43307-3.3512 2.3773-1.7088 4.3562 1.7335 2.0887 3.4618 1.2821 3.4618-1.6157zm44.319-1.7616c0.29857-3.1045 0.14047-3.2944-2.4914-2.9918-3.1429 0.3613-4.2454 3.012-2.2519 5.414 2.0332 2.4498 4.3906 1.2461 4.7434-2.4222zm-10.68-3.42c3.795-3.5242 7.3816-8.6929 6.1366-8.8436-9.0142-1.0913-10.501-0.20525-11.065 6.5948-0.53017 6.3931 0.13735 6.6977 4.928 2.2488zm-32.508-6.2245c1.2149-3.166-4.9923-8.587-8.8786-7.754-2.391 0.51248-2.2027 1.7684 0.86869 5.7952 2.7793 3.6438 6.97 4.6687 8.0099 1.9588zm8.7062-4.6917c1.3-2.08-0.69-4.84-3.49-4.84-2.4644 0-3.3088 2.2671-1.8557 4.9822 1.2913 2.4128 3.775 2.3439 5.3444-0.14837zm40.948-9.4007c3.69-1.97 6.71-4.23 6.71-5.04 0-2.3342-2.9797-2.8449-6.0426-1.0356-1.7976 1.0619-3.0481 1.2961-3.4498 0.6461-0.34656-0.56075-1.7031-0.75025-3.0145-0.42111-1.428 0.35841-3.2813-0.0298-4.6206-0.96785-2.9568-2.071-4.8725-0.4986-4.8725 3.9992 0 2.5379 0.43503 3.3855 1.75 3.4094 0.9625 0.0175 2.6235 0.6925 3.6911 1.5 2.536 1.9181 2.1032 2.0104 9.8416-2.0987zm-56.064-2.5433c-0.34236-2.9127-3.6045-6.3876-5.1182-5.4521-1.8917 1.1691-1.2145 5.3694 1.1305 7.0118 2.8788 2.0164 4.3409 1.4446 3.9877-1.5597zm32.518-2.8491c-0.61094-6.7375 0.22988-8.0898 4.8221-7.755 2.5295 0.18439 2.9848-0.17086 3.2575-2.5413 0.30716-2.6704-2.7377-5.4136-3.5233-3.1742-1.0795 3.077-2.1457 3.7976-3.7048 2.5037-2.3894-1.983-4.7182-0.56838-4.3793 2.6603 0.24408 2.3252-0.3071 3.0578-3.4597 4.5983-4.7242 2.3084-4.8993 4.9963-0.5 7.6786 6.3282 3.8584 8.1115 2.9127 7.4874-3.9703zm57.082-0.94131c0.49243-3.2352-2.782-2.5762-6.6827 1.3448-1.8869 1.8968-3.0548 3.8795-2.6608 4.5171 1.049 1.6974 8.9471-3.2577 9.3435-5.8619zm-26.05-7.67c2.36-1.65 3.01-4.44 1.03-4.44-1.37 0-5.81 3.95-5.81 5.17 0 1.3196 2.3668 0.95748 4.7775-0.73101zm-7.1342-0.95603c0.68-1.77-1.3-4.48-3.27-4.48-1.4001 0-1.9463 4.0979-0.71089 5.3333 1.1794 1.1794 3.3789 0.71142 3.9766-0.84606zm-53.088-6.5488c1.0559-1.1668 2.6419-1.8586 3.654-1.5939 0.98358 0.25721 2.0403 0.0599 2.3483-0.43846 0.78342-1.2676-8.8276-1.1352-12.243 0.16858-2.7152 1.0366-2.7462 1.1253-0.87397 2.5 2.6969 1.9803 4.9272 1.7808 7.1146-0.63624zm-28.56-12.51c3.025-0.84627 7.975-2.1444 11-2.8847 6.9486-1.7006 23.23-7.5872 28.692-10.374 2.2881-1.1673 7.1156-3.0926 10.728-4.2784 7.6877-2.5237 15.87-8.669 11.58-8.6969-8.6417-0.0561-21.194-2.0812-24.912-4.019-2.28-1.2-5.09-2.17-6.24-2.17-6.191 0-26.5-8.979-27.805-12.293-0.47799-1.2136-1.5608-5.9854-2.4062-10.604-0.84541-4.6186-2.0335-8.8936-2.6402-9.5-7.231-7.2281-46.85 17.936-51.006 32.397-4.7939 16.679-0.33225 24.781 16.558 30.069 16.632 5.2069 24.428 5.7089 36.446 2.3467zm58-1.3103c11.887-1.2681 20.314-3.3751 23.11-5.7783 1.157-0.99431 2.3004-1.1213 4.0628-0.45119 2.5291 0.96156 7.3819 0.28599 17.827-2.4818 3.025-0.80156 7.525-1.8534 10-2.3375 12.052-2.3573 17.135-3.5203 24.5-5.6061 4.4-1.2461 14.075-3.6953 21.5-5.4427s16.5-4.4889 20.168-6.0923c3.6672-1.6034 7.4088-2.9152 8.3146-2.9152 0.90585 0 3.7554-0.87451 6.3324-1.9434 2.577-1.0688 8.2854-2.9212 12.685-4.1162 4.4-1.1951 11.338-3.496 15.419-5.1132 12.252-4.8563 32.918-9.9421 39.581-9.741 5.0968 0.15384 15.677-1.5751 18.331-2.9956 1.1208-0.59982 4.2049-1.0932 6.8535-1.0964 7.7059-0.009 15.594-1.6412 21.346-4.4163 2.9391-1.4178 5.9345-2.5779 6.6566-2.5779 2.2559 0 1.432-1.4897-0.93715-1.6945-16.627-1.4373-23.369-2.5086-29.692-4.7176-14.021-4.8988-45.545-5.5647-71.058-1.5011-7.425 1.1826-18 2.7159-23.5 3.4074-18.153 2.2822-37.302 6.8857-43 10.337-1.65 0.99948-6.375 3.0648-10.5 4.5896s-8.85 3.3691-10.5 4.0984c-1.65 0.72935-4.1726 1.6183-5.6057 1.9754-1.4331 0.35712-4.7044 2.3836-7.2694 4.5032-2.5651 2.1196-6.9043 4.5981-9.6428 5.5077-2.7385 0.90957-7.7473 3.6916-11.131 6.1823-3.3834 2.4907-9.3331 5.8824-13.222 7.5371-3.8885 1.6547-8.4334 4.0176-10.1 5.251-1.6664 1.2333-10.68 5.7141-20.03 9.9573s-17.45 8.1631-18 8.711c-1.205 1.2003 10.736 0.74898 27.5-1.0394zm289.97-73.643c11.922-2.6912 21.229-7.3705 22.476-11.3 0.34516-1.0875 1.2386-2.2118 1.9854-2.4984 0.74684-0.28658 2.1349-2.9156 3.0846-5.8424 0.94972-2.9267 2.8522-6.529 4.2278-8.0052 5.414-5.8098-1.8164-22.489-11.684-26.953-7.4009-3.348-9.8352-3.8683-25.062-5.3569-7.975-0.77964-17.425-1.7032-21-2.0524-10.327-1.0086-11.039 0.0199-7.5692 10.918 7.4261 23.322 2.3067 36.575-16.664 43.142-10.01 3.465-10.978 6.846-2.2664 7.9208 26.679 3.2917 37.985 3.2976 52.472 0.0273zm-288.97-16.91c4.125-0.0336 14.025 0.0964 22 0.2889 18.004 0.43454 41.187-0.46129 46.5-1.7968 2.2-0.553 8.4054-1.0162 13.79-1.0293 8.0274-0.0196 10.548-0.41211 14-2.1805 5.8792-3.0116 17.198-5.8059 23.601-5.8262 3.1385-0.01 7.1073-0.80739 9.5-1.9088 2.2602-1.0404 8.1595-3.2357 13.11-4.8785 16.61-5.5125 26.474-9.1828 31.44-11.7 2.7128-1.3747 9.4421-3.8065 14.954-5.4041 6.7164-1.9467 12.052-4.2606 16.178-7.0154 3.3857-2.2609 6.7252-4.1107 7.421-4.1107 2.5001 0 13.068-5.3236 16.007-8.0636 1.8218-1.6984 4.3746-2.9225 6.5-3.1166 4.6378-0.42371 5.1562-4.4026 1.636-12.556-1.3687-3.1702-2.7688-7.5639-3.1113-9.7639-0.34248-2.2-1.2371-6.025-1.988-8.5-0.75091-2.475-1.8653-9-2.4765-14.5-1.6523-14.87-3.0907-23.471-4.7664-28.5-1.3151-3.9471-3.8849-20.23-7.3386-46.5-1.0223-7.7762-3.2013-19.267-5.0471-26.616-0.49-1.985-0.9-7.077-0.9-11.312 0-11.371-2.2127-14.177-7.0757-8.9746-3.5579 3.8065-14.935 10.173-20.547 11.497-2.6825 0.63304-6.9022 1.9938-9.3772 3.0239s-8.325 3.0437-13 4.4746-11.089 3.4588-14.254 4.5063c-3.17 1.048-6.68 1.905-7.8 1.905-1.1251 0-3.3133 0.6555-4.8626 1.4567-1.5493 0.80117-5.522 1.8923-8.8283 2.4248-3.3063 0.53246-10.128 2.3473-15.159 4.0329-5.83 1.9532-10.861 3.0022-13.872 2.8922-2.5984-0.09491-6.0743 0.3452-7.7243 0.97802-9.3676 3.5927-23.884 7.4248-33.269 8.7825-5.9019 0.85378-12.531 2.1687-14.731 2.922-2.2 0.75332-6.8049 1.6188-10.233 1.9232-3.4283 0.30445-9.7283 1.6369-14 2.9609-9.5833 2.9704-23.98 6.0303-40.767 8.6646-3.85 0.60417-9.25 1.5202-12 2.0355-2.75 0.51538-11.975 1.3946-20.5 1.9538-8.525 0.55922-20 1.457-25.5 1.995-5.5 0.53805-13.15 0.71995-17 0.40422-9.1943-0.75402-11.94 0.82495-9.2872 5.3407 0.94205 1.6036 1.9953 4.8995 2.3406 7.3242 0.34525 2.4248 2.387 8.5122 4.5372 13.528 2.1502 5.0154 3.9094 10.523 3.9094 12.238 0 1.7157 1.5255 6.8372 3.3899 11.381 1.8645 4.5439 4.1427 11.625 5.0627 15.735 0.92002 4.1102 2.0414 7.9352 2.492 8.5 1.2383 1.5521 5.6918 12.607 10.528 26.135 2.3809 6.6594 5.0134 13.432 5.85 15.05 0.83662 1.6179 2.5195 6.0692 3.7396 9.892 1.2202 3.8227 3.269 9.0507 4.5529 11.618 1.2839 2.567 2.6298 6.5145 2.9908 8.7722 0.8471 5.2975 2.095 5.968 4.798 2.578l2.1828-2.7374 3.9564 2.685c2.8202 1.9139 4.7396 2.5283 6.6833 2.1396 1.8358-0.36715 4.4498 0.34026 8 2.165 5.5969 2.8767 16.271 4.4808 22.773 3.4223 1.925-0.31336 6.875-0.59723 11-0.63082zm-81-165.68c5.225-0.59893 12.2-1.2057 15.5-1.3484 24.027-1.0389 33.364-2.2532 54.5-7.0886 30.71-7.0256 49.234-10.884 57.5-11.978 7.2894-0.96416 51.29-11.264 64-14.981 4.4-1.2869 10.025-2.7948 12.5-3.3509 9.5299-2.1411 19.808-4.9562 21.614-5.92 1.0374-0.55356 7.7362-2.6794 14.886-4.7241 7.15-2.0447 14.575-4.5012 16.5-5.459 1.925-0.95776 5.22-2.0075 7.3222-2.3328 2.2146-0.34269 5.474-1.9799 7.7496-3.8926 2.1601-1.8156 5.6814-4.7742 7.8253-6.5745 7.3522-6.1742 6.4073-10.424-2.7239-12.253-3.13-0.624-8.6-2.027-12.18-3.118-3.58-1.09-10.55-2.214-15.5-2.496-4.95-0.283-12.27-1.201-16.26-2.04-6.15-1.292-9.76-1.3566-23.53-0.4223-8.94 0.6073-19.01 1.1033-22.36 1.1033-3.8677 0-8.9748 0.94758-13.973 2.5926-5.9275 1.9508-11.307 2.812-21.729 3.4788-7.6185 0.48743-16.618 1.5434-20 2.3466-3.3815 0.8032-7.7233 1.658-9.6483 1.8996s-7.1 1.6645-11.5 3.1619c-19.145 6.5155-23.497 7.8993-32 10.175-4.95 1.3246-13.275 4.0339-18.5 6.0207s-11.3 3.9721-13.5 4.4117c-12.706 2.539-36.464 12.943-50.433 22.085-5.74 3.754-10.97 6.827-11.61 6.827-3.44 0-10.46 8.629-10.46 12.852 0 11.73 4.223 13.521 26 11.024zm-20.27 1596.4c-2.7042-4.1684-14.74-92.846-16.74-123.34-0.55812-8.5083-1.4636-19.949-2.0122-25.424-0.8426-8.4088-0.76671-10.185 0.48881-11.44 2.2195-2.2195 2.7958-0.8921 3.0928 7.1228 0.68342 18.445 2.7303 43.876 4.0061 49.772 0.77351 3.575 1.6339 11 1.912 16.5 0.27807 5.5 0.98158 14.05 1.5633 19 2.1919 18.65 3.0206 25.172 3.9388 31 0.51996 3.3 1.4488 10.425 2.064 15.833 0.61525 5.408 1.5635 11.109 2.1072 12.668 1.1288 3.2381 0.77834 10.159-0.42082 8.311zm75.454-33.948c-0.65348-5.9754-1.6379-17.389-2.1876-25.364-0.54969-7.975-1.6852-21.475-2.5232-30-0.83808-8.525-1.9692-21.35-2.5137-28.5-1.07-14.052-4.4861-53.531-6.1004-70.5-2.2952-24.127-2.1741-80 0.17338-80 0.46151 0 0.87182 6.9996 0.91181 15.555 0.04 8.5552 0.53809 17.631 1.1069 20.17 0.5688 2.5381 0.75641 5.8794 0.41691 7.4252-0.33951 1.5457-0.14113 5.182 0.44083 8.0805 1.1962 5.9577 3.3108 31.601 5.5883 67.77 0.84852 13.475 1.9482 27.2 2.4437 30.5 0.49552 3.3 0.93417 9.6 0.97479 14 0.0406 4.4 0.28563 10.925 0.54449 14.5 0.25885 3.575 0.755 13.475 1.1026 22 0.34755 8.525 0.78364 17.3 0.96908 19.5 1.3916 16.509 1.5451 21.296 0.74955 23.364-0.70598 1.8358-1.1748-0.064-2.0974-8.5zm304.61-18.4c-0.33162-1.375-1.6011-8.35-2.821-15.5s-2.8148-16.375-3.5442-20.5c-0.72939-4.125-1.8094-10.875-2.3999-15-1.2276-8.5745-4.3479-26.868-7.0786-41.5-1.0264-5.5-2.3219-13.15-2.8789-17-0.55694-3.85-1.7337-11.275-2.615-16.5-0.88129-5.225-1.6142-10.175-1.6287-11-0.0805-4.5856-3.1645-22.828-6.2381-36.898-1.5612-7.1471-1.2835-14.654 0.50129-13.551 0.97137 0.6003 2.7053 6.5689 3.8911 13.394 0.43524 2.5051 1.5159 7.2547 2.4015 10.555 0.88558 3.3 2.5607 12.525 3.7225 20.5s2.5418 16.975 3.0668 20c0.52495 3.025 1.3338 8.425 1.7974 12 0.46364 3.575 1.5737 11.45 2.4667 17.5 0.89306 6.05 2.5216 17.075 3.619 24.5s2.6898 18.225 3.5385 24c0.84876 5.775 1.9255 12.075 2.3927 14 1.2744 5.2509 3.293 27.069 2.8218 30.5-0.40273 2.9327-0.4255 2.9439-1.0149 0.5zm167.88 1.3333c-0.36667-0.3666-0.66918-2.0541-0.67225-3.75-0.003-1.6958-0.43422-4.6583-0.95813-6.5833-1.4536-5.3409-5.5403-33.364-9.1146-62.5-0.53978-4.4-2.5561-19.004-4.4807-32.453s-3.3048-24.96-3.0671-25.579c0.42079-1.0965-0.0678-6.0208-2.3284-23.468-1.2973-10.012-5.0739-28.648-8.5112-42-6.2279-24.191-6.9659-29.621-3.756-27.637 1.097 0.678 4.805 11.606 8.1904 24.137 2.9685 10.988 3.6217 13.141 5.9959 19.76 3.3317 9.2879 5.8661 27.904 6.1453 45.141 0.0982 6.0655 0.80659 12.94 1.597 15.5 0.78125 2.5298 2.0621 14.5 2.8462 26.6 0.7842 12.1 2.126 28.3 2.9817 36 0.85573 7.7 2.2039 20.525 2.996 28.5 0.79206 7.975 1.8892 17.62 2.4381 21.433 0.99874 6.9386 0.9458 8.1479-0.30207 6.9zm-41.421-44.232c-0.68534-1.8696-1.2058-5.2446-1.1566-7.5l0.0894-4.1008 1.4129 5c1.8358 6.4967 1.5584 11.795-0.34568 6.6008zm-208.19-16.1c0.028-3.0709 2.8695-13.325 3.9884-14.393 0.87617-0.8361 0.98512-0.033 0.44541 3.283-0.72981 4.4843-4.4585 13.828-4.4338 11.11zm204.58-5.75c-0.91262-5.5213-0.79171-9.8105 0.24525-8.7 1.0827 1.1594 2.0585 12.45 1.076 12.45-0.38579 0-0.98036-1.6875-1.3213-3.75zm-566.3-9.812c-0.36086-0.9403 0.58305-5.1361 2.0976-9.3239 1.5145-4.1877 3.5903-10.654 4.6128-14.37 3.7793-13.734 5.2842-12.361 2.0622 1.8812-1.011 4.4689-2.2002 8.711-2.6427 9.427-0.44252 0.716-1.0663 4.0296-1.3862 7.3636-0.59732 6.2255-3.2175 8.9996-4.7438 5.0223zm564.19-3.3914c-0.38332-0.6203-1.606-7.072-2.7172-14.337-4.589-30.005-5.0344-32.778-7.7244-48.089-1.15-6.5-2.09-13.4-2.09-15.2 0-1.8476-0.84004-6.6268-1.8668-10.62-4.6-18-8.13-36.6-8.13-43 0-3.7614 1.8067-0.6622 3.4746 5.9604 0.9366 3.7188 2.7701 10.812 4.0744 15.762s3.07 14.4 3.9238 21c0.85374 6.6 2.1749 14.925 2.9359 18.5 2.0404 9.5854 3.2577 17.041 5.0615 31 0.88837 6.875 2.5467 18.277 3.6853 25.337 1.9208 11.912 1.6689 17.423-0.62659 13.709zm-264.96-96.2c-0.37647-1.7875-1.098-6.625-1.6035-10.75-0.50545-4.125-1.3991-9.975-1.9859-13-4.144-21.362-5.2004-33.076-4.4762-49.63 0.38428-8.7832 0.19663-20.739-0.44731-28.5-1.0654-12.842-2.3469-29.831-3.6106-47.87-0.32751-4.675-0.7498-13.675-0.93842-20-0.3202-10.738-1.3664-18.21-3.58-25.571-1.406-4.6753-1.1241-7.3685 1.158-11.061 2.8079-4.5432 4.8674-4.3891 5.106 0.382 0.10318 2.0625 0.3176 5.325 0.47649 7.25 1.0244 12.41 2.0019 32.561 1.6456 33.924-0.23338 0.8925 0.32826 9.7122 1.2481 19.6 0.91982 9.8872 1.8205 28.327 2.0015 40.977 0.18102 12.65 0.79711 28.4 1.3691 35 0.57198 6.6 1.063 16.5 1.0913 22 0.0282 5.5 0.72379 14.05 1.5457 19 3.7226 22.418 4.5208 44.966 1.0001 28.25zm238.54-50.703c-1.3792-6.4312-1.4576-14.256-0.11985-11.97 1.5367 2.6271 3.2093 15.129 2.1639 16.175-0.58739 0.5874-1.3549-0.9916-2.0441-4.2052z"/>
</svg>
