<?xml version="1.0" encoding="UTF-8" standalone="no"?>
<svg xmlns:rdf="http://www.w3.org/1999/02/22-rdf-syntax-ns#" xmlns="http://www.w3.org/2000/svg" height="368pt" width="252pt" version="1.1" xmlns:cc="http://creativecommons.org/ns#" xmlns:dc="http://purl.org/dc/elements/1.1/" viewBox="0 0 252 368">
<path d="m226.59 3.53c26.61-4.27 28.73 33.63 12.85 46.91-1.67 3.35-12.76 6.17-5.54 8.63 15.13 2.77 20.18 24.18 9.48 34.42-8.48 9.07-25.35 4.18-28.37-7.52 1.33-8.9 12.49 8.92 15.92 0.01 8.41-11.46-11.07-19.64-19.37-13.46-24.83 12.91-22.43 47.27-11.4 68.61 1.53-17.76 19.41-31.73 36.69-24.21 17.87 4.24 15.07 38.81-5.4 33.89-1.89-5.37 9.33-4.49 8.4-10.88-0.35-8.87-13.15-8.37-16.96-1.96-9.43 13.22 2.49 27.52 6.53 40.6 20.29 47.38 26.08 109.16-8.8 151.09-5.79 6.86 7.29 2.43 10.81 4.42 14.24 1.9 15.38 23.85 3.58 29.4-4.55 1.97-16.74-0.37-15.32-6.92 5.47 1.75 13.58-1.71 8.63-7.95-12.82-4.76-25.22 3.28-37.75 4.96-41.64 9.82-94.52 13.74-126.75-19.64-2.33 4.31-10.04 20.43 0.48 12.26 6.31 8.2-11.17 15.47-17.33 8.93-3.25-2.44-5.08-11.55-9.94-6.13-9.9 11.88-32.52 7.47-34.29-8.95-4.74-11.9 10.25-29.31 21.46-18.82-5.03 1.69-16.74 2.62-11.91 11.31 6.47 9.48 21.62 2.91 25.11-6.29 8.76-20.51 6.55-46.31 25.09-61.75 14.81-16.01 37.79-13.35 56.68-19.34 9.02-1.46 16.92-16.14 6.66-21.15-7.04-3.79-7.06 7.87-11.75 10.22-6.03-7.26-3.2-20.21 6.06-23.2 12.43-5.04 32.01 3.07 31.02 18.32 1.13 13.83-11.93 23.81-23.9 25.73 17.47 9.11 20.61 37.65 42.91 42.05 17.97 5.65 35.13-17.72 23.7-32.9-4.27-5.63-17-12.18-21.73-5.33 8.7 0.39 13.38 10.73 10.11 18.83-8.3 9.95-26.59 2.46-25.05-10.73 2.94-19.49 33.54-21.55 42.77-5.87 15.14 20.19 6.29 53.16-17.28 62.53-16.29 7.49-35.08 5.02-50.95-2.38 13.05 26.49-31.3 37.22-38.58 13.59 2.77-5.43 9.63 4.3 13.99 0.55 8-3.78 2.75-17.04-5.73-15.93-15.05-1.42-33-12.74-28.29-30.25 4.85-16.97 30.07-17.11 35.92-1.19 2.74-16.5-18.29-27.27-31.88-19.89-22.82 8.06-23.48 39.58-11.04 56.74 15.45 24.04 46.5 30.07 73.17 28.39 9.92-2.39 26.38-6.24 19.94-19.87 11.62-8.29 18.26 9.01 9.9 16.75 23.52-5.1 44.48-22.04 53.9-44.12 2.19-7.76 7.67-21.34-1.73-26.52-14.1 5.28-6.68-18.88 3.37-15.65 4.23-1.13 12.17 12.46 10.39 1.25-2.34-19.49-11.34-48.93-34.18-50.67 4.32 5.71 12.32 12.34 9.13 20.33-5.02 16.37-33.98 14.31-36.47-2.41-5.99-13.28 4.21-28.45-3.72-41.03-4.81-8.13-22.5-9.01-22.49 2.72-0.87 4.02 8.48 9.85 1.45 10.77-15.34-3.19-21.4-24.86-10.11-36.13 11.76-13.28 31.74-7.86 44.24 0.08-8.36-32.34-14.78-71.99 11.49-98.4 15.62-14.08 47.28-23.36 40.3-49.81 0.83-7.17-13.88-7.94-11.02-0.04 2.43 3.26 0.61 10.82-3.91 5.99-10.12-6.73-5.06-22.91 6.81-22.99m-14.33 183.58c-4.59 2.58-5.93 10.6-0.84 13.5 9.72 6.98 17.53 16.06 23.11 26.64-1.57-14.72-9.31-32.66-22.27-40.14m-105.97 72.77c1.86 5.28 10.2 6.93 11.43 13.48 3.45 5.86 5.6 23.1 15.65 15.83 2.54-14.65-13.34-27.54-27.08-29.31z"/>
</svg>
