<?xml version="1.0" standalone="no"?>
<!DOCTYPE svg PUBLIC "-//W3C//DTD SVG 20010904//EN"
 "http://www.w3.org/TR/2001/REC-SVG-20010904/DTD/svg10.dtd">
<svg version="1.0" xmlns="http://www.w3.org/2000/svg"
 width="960.000000pt" height="480.000000pt" viewBox="0 0 960.000000 480.000000"
 preserveAspectRatio="xMidYMid meet">

<g transform="translate(0.000000,480.000000) scale(0.100000,-0.100000)"
fill="#000000" stroke="none">
<path d="M3566 3664 c-310 -75 -519 -437 -360 -622 84 -98 249 -100 322 -4 22
29 27 46 27 95 0 52 -3 61 -28 83 -33 28 -101 33 -133 9 -17 -13 -15 -14 32
-15 59 0 84 -20 84 -67 0 -62 -66 -113 -148 -113 -134 0 -197 142 -127 285 42
86 133 178 219 220 89 45 179 59 316 52 305 -17 568 -172 751 -443 53 -80 113
-198 125 -249 l7 -30 -44 38 c-102 88 -178 139 -249 166 -97 38 -219 55 -329
45 -99 -8 -87 -18 35 -28 194 -15 335 -76 455 -196 112 -112 200 -281 246
-472 10 -43 21 -78 26 -78 4 0 7 6 7 14 0 7 18 71 41 142 128 403 323 567 703
591 94 5 106 8 76 16 -19 5 -96 7 -170 4 -201 -6 -303 -46 -456 -178 -38 -33
-70 -55 -72 -49 -6 18 91 209 146 286 112 158 227 258 377 330 234 111 502
124 682 33 121 -61 226 -200 239 -314 10 -91 -54 -174 -146 -190 -106 -18
-200 93 -141 166 16 20 28 24 68 22 44 -1 46 0 29 13 -23 16 -89 19 -117 4
-50 -27 -64 -124 -26 -181 88 -131 281 -112 356 36 21 40 26 64 26 125 0 66
-4 84 -37 154 -70 145 -213 258 -383 301 -87 22 -260 20 -364 -5 -360 -87
-592 -317 -762 -759 -17 -42 -24 -13 -29 120 -5 109 -9 133 -27 157 -25 34
-31 34 -56 0 -16 -21 -21 -51 -28 -159 -5 -72 -11 -134 -13 -137 -3 -2 -13 15
-23 39 -9 24 -39 89 -66 143 -162 332 -370 518 -661 591 -80 20 -122 25 -220
24 -67 0 -147 -7 -180 -15z"/>
<path d="M4722 3464 c-78 -54 -64 -185 23 -214 100 -33 191 46 164 144 -14 52
-60 86 -118 86 -26 0 -56 -7 -69 -16z"/>
<path d="M4180 2780 c-204 -37 -331 -177 -364 -402 -4 -28 -3 -48 2 -48 5 0
54 27 108 60 54 32 112 62 128 66 l30 7 -46 -59 c-61 -78 -71 -100 -113 -245
-50 -167 -92 -254 -153 -311 -61 -57 -115 -75 -165 -54 -47 19 -78 66 -79 118
0 47 26 78 69 78 32 0 73 -42 73 -75 0 -32 14 -25 36 16 14 28 14 32 -6 63
-33 54 -121 80 -184 56 -63 -23 -87 -147 -47 -235 57 -126 195 -156 354 -78
102 51 166 121 257 283 143 251 258 337 508 375 23 4 42 12 42 19 0 7 -29 30
-65 51 -36 21 -65 40 -65 43 0 3 34 2 76 -1 75 -7 75 -7 68 16 -39 128 -169
233 -319 257 -67 11 -81 11 -145 0z"/>
<path d="M5170 2762 c-70 -23 -127 -59 -168 -106 -32 -37 -82 -126 -82 -147 0
-7 23 -9 78 -5 85 7 86 11 -14 -54 -30 -19 -54 -37 -54 -41 0 -3 33 -12 73
-19 210 -37 341 -125 439 -294 132 -227 174 -282 257 -335 136 -87 270 -92
355 -13 87 82 90 251 4 298 -52 29 -143 4 -187 -52 -27 -34 -26 -47 4 -81 l24
-28 1 26 c0 63 67 99 118 63 48 -33 18 -145 -49 -179 -82 -43 -207 44 -268
189 -11 24 -36 99 -56 166 -41 139 -61 183 -116 258 -22 28 -35 52 -29 52 15
0 98 -43 176 -90 35 -22 67 -40 69 -40 10 0 4 79 -10 135 -34 127 -112 221
-233 278 -60 28 -78 32 -172 34 -80 2 -118 -1 -160 -15z"/>
<path d="M3270 2696 c-36 -12 -101 -41 -145 -63 -111 -56 -176 -75 -275 -82
l-85 -6 1 -39 c2 -40 25 -70 80 -102 19 -11 19 -12 0 -48 -11 -20 -43 -63 -73
-96 -88 -97 -199 -140 -360 -140 -93 0 -93 -15 -2 -48 91 -32 221 -28 297 12
71 36 121 83 179 167 l48 71 17 -42 c10 -23 22 -39 27 -35 6 3 31 46 58 96 55
106 144 208 206 238 56 27 149 28 196 3 37 -20 71 -72 71 -109 0 -21 -5 -23
-46 -23 -58 0 -79 -12 -93 -51 -14 -40 4 -84 52 -126 34 -29 39 -31 69 -21 85
30 158 157 144 252 -13 88 -86 169 -179 200 -65 22 -110 20 -187 -8z"/>
<path d="M6142 2706 c-124 -41 -206 -177 -172 -288 27 -92 95 -158 161 -158
56 1 99 50 99 111 0 55 -26 81 -88 87 -58 5 -62 13 -36 68 36 75 159 103 249
57 75 -39 169 -157 236 -295 13 -27 27 -48 31 -48 5 0 17 19 26 41 l18 42 42
-64 c87 -134 182 -196 316 -206 58 -5 88 -1 142 15 38 12 78 28 89 36 19 14
15 15 -45 16 -103 1 -201 18 -258 46 -66 32 -161 123 -192 184 -21 42 -22 45
-5 55 50 29 67 52 72 98 l6 47 -59 0 c-80 0 -165 22 -260 66 -218 100 -288
117 -372 90z"/>
<path d="M2556 2443 c-28 -15 -62 -14 -100 2 -16 7 -18 4 -13 -21 3 -16 9 -48
12 -71 4 -24 10 -43 13 -43 37 0 128 101 120 134 -3 13 -6 13 -32 -1z"/>
<path d="M7014 2428 c7 -36 68 -102 103 -113 25 -7 28 2 36 88 4 42 2 47 -12
41 -36 -15 -71 -15 -93 0 -33 24 -41 20 -34 -16z"/>
<path d="M4619 2331 c-109 -43 -231 -150 -272 -239 -34 -72 -31 -197 6 -274
29 -59 113 -162 127 -153 4 2 10 27 13 54 6 54 31 121 44 121 5 0 14 -42 21
-93 16 -130 49 -220 131 -356 39 -65 71 -121 71 -124 0 -3 5 -18 11 -34 10
-28 11 -27 58 62 26 50 68 125 93 168 48 82 83 189 94 292 4 33 10 67 15 75
12 23 40 -52 47 -125 l5 -59 55 59 c77 85 104 143 110 235 3 61 0 86 -19 135
-42 112 -214 253 -334 272 -31 5 -36 3 -46 -23 -6 -16 -15 -125 -19 -244 -9
-230 -13 -263 -38 -258 -27 5 -41 82 -52 287 -6 108 -13 206 -15 219 -7 28
-41 29 -106 3z"/>
<path d="M4348 2201 c-63 -59 -86 -91 -157 -218 -225 -399 -373 -561 -586
-638 -41 -15 -75 -32 -75 -36 0 -15 63 -10 145 11 95 24 92 24 71 1 -27 -30
-154 -88 -231 -107 -98 -23 -204 -15 -284 22 -158 70 -253 270 -191 400 43 88
153 131 213 84 30 -23 47 -74 40 -114 -6 -32 -16 -38 -68 -47 l-40 -6 39 -17
c22 -10 49 -15 63 -11 36 9 63 61 63 123 0 79 -23 120 -84 148 -28 13 -61 24
-74 24 -83 0 -174 -57 -214 -134 -32 -62 -36 -167 -9 -254 24 -80 84 -174 136
-215 200 -157 534 -114 765 100 86 79 150 182 295 473 134 268 174 342 237
428 21 28 34 52 29 52 -5 0 -42 -31 -83 -69z"/>
<path d="M5159 2228 c73 -111 172 -288 232 -416 169 -359 266 -490 437 -591
137 -81 312 -117 444 -92 209 42 360 235 346 445 -7 105 -51 178 -134 220
-142 71 -297 -33 -265 -177 19 -80 62 -109 123 -84 l33 14 -37 7 c-105 20 -70
186 39 186 45 0 82 -20 126 -69 44 -48 51 -74 44 -150 -10 -114 -106 -245
-214 -293 -57 -25 -177 -34 -258 -19 -76 14 -287 113 -272 127 2 2 42 -5 88
-16 87 -21 149 -26 149 -12 0 4 -34 20 -75 35 -144 54 -286 171 -397 328 -25
35 -90 141 -143 234 -54 94 -118 198 -142 233 -61 86 -176 170 -124 90z"/>
<path d="M1585 2093 c-76 -6 -191 -25 -302 -50 -62 -14 -123 -23 -136 -19 -13
3 -41 19 -62 36 -21 16 -42 30 -46 30 -13 0 -11 -51 2 -89 8 -22 8 -36 1 -43
-28 -28 -227 -16 -295 18 -34 18 -42 14 -33 -19 14 -57 84 -99 190 -113 25 -4
46 -10 46 -15 0 -34 -372 -264 -525 -324 -60 -24 -80 -27 -145 -23 -116 7
-190 54 -190 121 0 33 17 70 29 62 5 -2 11 -18 14 -35 5 -21 16 -35 40 -46 31
-15 37 -15 69 0 89 42 73 160 -24 187 -153 41 -263 -95 -197 -241 45 -99 111
-140 226 -140 177 0 323 66 650 292 344 238 503 294 813 286 134 -3 150 -5
205 -31 112 -52 144 -104 145 -230 0 -94 -14 -130 -70 -180 -74 -68 -156 -88
-245 -62 -102 29 -171 127 -144 204 14 40 40 54 84 45 34 -6 35 -8 35 -51 0
-62 14 -83 54 -83 82 0 102 105 33 178 -32 34 -91 62 -132 62 -45 0 -105 -30
-138 -70 -23 -27 -28 -45 -39 -137 -3 -22 -3 -22 -73 9 -56 25 -87 32 -155 36
-77 3 -88 2 -119 -20 -63 -42 -61 -116 3 -146 37 -18 69 -2 104 50 19 29 31
38 54 38 31 0 117 -41 238 -112 123 -73 181 -92 285 -92 154 0 255 57 314 176
26 50 31 73 31 130 0 122 -47 228 -139 311 -94 84 -246 117 -456 100z"/>
<path d="M7759 2086 c-102 -22 -170 -59 -232 -126 -77 -83 -101 -147 -102
-270 0 -80 4 -102 23 -138 119 -223 358 -238 676 -43 79 49 163 84 182 77 7
-3 25 -23 39 -46 45 -71 112 -74 140 -6 46 109 -112 165 -281 101 -37 -14 -73
-30 -79 -35 -17 -14 -25 -2 -25 39 -1 70 -52 147 -113 170 -107 41 -237 -46
-237 -157 0 -42 26 -72 61 -72 56 0 69 15 69 75 0 54 0 54 34 60 125 24 117
-157 -11 -232 -92 -54 -229 -29 -304 54 -47 52 -64 101 -63 184 1 80 22 127
77 175 149 127 577 102 832 -48 39 -23 165 -104 280 -181 321 -213 472 -280
625 -281 89 0 139 22 192 84 85 99 72 246 -26 291 -138 63 -278 -58 -184 -158
42 -45 127 -18 143 44 6 27 7 27 21 9 16 -23 18 -69 4 -96 -6 -11 -32 -32 -58
-47 -42 -25 -57 -28 -137 -28 -89 0 -93 1 -197 52 -123 60 -367 209 -430 264
l-43 37 50 6 c89 12 129 27 167 66 21 21 38 45 38 54 0 20 9 20 -85 -4 -80
-20 -157 -25 -215 -13 l-33 6 7 74 6 74 -43 -34 c-23 -19 -50 -37 -61 -41 -10
-3 -100 10 -200 30 -213 42 -397 53 -507 30z"/>
<path d="M2364 2036 c-53 -23 -100 -73 -130 -138 -28 -60 -29 -70 -29 -203 0
-136 1 -142 30 -200 61 -122 175 -143 175 -32 0 56 -35 81 -80 57 -32 -17 -53
38 -58 151 -5 115 12 186 58 242 36 42 67 48 95 17 36 -40 79 -16 73 42 -2 24
-12 38 -37 55 -39 26 -54 28 -97 9z"/>
<path d="M7121 2014 c-26 -33 -27 -65 -3 -93 l17 -22 37 26 c47 32 61 32 91
-5 60 -70 84 -219 56 -340 -14 -62 -23 -71 -61 -58 -28 10 -34 9 -55 -17 -30
-34 -27 -71 8 -97 33 -25 66 -17 109 25 62 60 75 105 75 257 0 118 -3 142 -24
193 -41 104 -104 157 -185 157 -36 0 -48 -5 -65 -26z"/>
</g>
</svg>
