<?xml version="1.0" encoding="iso-8859-1"?>
<!-- Generator: Adobe Illustrator 16.0.0, SVG Export Plug-In . SVG Version: 6.00 Build 0)  -->
<!DOCTYPE svg PUBLIC "-//W3C//DTD SVG 1.1//EN" "http://www.w3.org/Graphics/SVG/1.1/DTD/svg11.dtd">
<svg version="1.1" id="Capa_1" xmlns="http://www.w3.org/2000/svg" xmlns:xlink="http://www.w3.org/1999/xlink" x="0px" y="0px"
	 width="193.279px" height="193.279px" viewBox="0 0 193.279 193.279" style="enable-background:new 0 0 193.279 193.279;"
	 xml:space="preserve">
<g>
	<g>
		<path d="M118.81,68.34c0.031,0,0.073,0,0.105,0c11.522,0,18.251,6.961,24.484,15.333c0.016,0.026,0.016,0.058,0.037,0.079
			c0.037,0.055,0.1,0.087,0.116,0.124c1.097,1.482,2.172,2.993,3.264,4.522c1.688,2.365,3.364,4.725,5.104,6.91
			c7.815,9.846,14.555,18.347,26.283,16.543c4.704-0.717,8.844-3.27,11.654-7.203c2.863-4.019,4.008-9.118,3.133-13.988
			c-0.707-3.958-2.9-7.399-6.202-9.693c-3.285-2.302-7.277-3.172-11.232-2.457c-1.181,0.211-1.956,1.329-1.745,2.505
			c0.205,1.179,1.345,1.967,2.505,1.737c2.815-0.506,5.669,0.116,8.005,1.751c2.357,1.643,3.929,4.087,4.43,6.908
			c0.675,3.723-0.211,7.636-2.404,10.716c-2.142,2.974-5.253,4.898-8.797,5.442c-8.816,1.339-13.932-4.493-22.243-14.961
			c-1.033-1.308-2.035-2.732-3.037-4.119c1.477-0.061,2.969-0.448,4.419-1.266c3.986-2.241,5.41-7.316,3.164-11.343
			c-1.914-3.404-6.265-4.614-9.655-2.695c-1.419,0.786-2.447,2.099-2.885,3.67c-0.443,1.577-0.237,3.24,0.564,4.656
			c0.906,1.604,2.541,2.558,4.25,2.682c-1.956,0.098-3.939-1.453-5.189-3c-6.57-8.815-14.544-17.2-28.033-17.2
			c-0.042,0-0.074,0-0.105,0c-2.331,0.011-4.524,0.438-6.645,1.053c2.162-3.7,3.707-7.998,3.602-12.814
			c-0.11-4.639-3.127-8.828-5.795-12.517c-2.3-3.18-4.456-6.184-4.087-8.409c0.337-1.901,1.714-2.51,3.971-3.365
			c1.83-0.686,4.577-1.722,4.514-4.669c-0.116-5.859-7.789-10.278-17.855-10.278l-0.665,0.013
			C85.6,13.211,77.655,18.05,77.753,24.006c0.071,2.956,2.742,3.839,4.699,4.488c2.289,0.767,3.715,1.324,4.113,3.204
			c0.477,2.207-1.577,5.292-3.742,8.564c-2.521,3.797-5.379,8.1-5.286,12.743c0.097,4.58,1.647,8.625,3.775,12.097
			c-2.173-0.648-4.43-1.097-6.816-1.107c-0.032,0-0.082,0-0.113,0c-13.495,0-21.487,8.391-28.047,17.205
			c-1.231,1.548-3.008,3.056-5.168,2.995c1.701-0.124,3.325-1.078,4.24-2.687c0.794-1.432,1.002-3.08,0.562-4.657
			c-0.442-1.572-1.463-2.874-2.879-3.66c-3.391-1.93-7.744-0.715-9.672,2.7c-2.23,4-0.809,9.086,3.175,11.332
			c1.463,0.817,2.942,1.216,4.417,1.266c-1.015,1.387-2.001,2.811-3.035,4.113c-8.309,10.463-13.466,16.306-22.241,14.967
			c-3.544-0.549-6.658-2.479-8.796-5.453c-2.193-3.08-3.08-6.982-2.404-10.71c0.514-2.821,2.085-5.29,4.43-6.908
			c2.341-1.635,5.178-2.257,8.002-1.75c1.15,0.221,2.3-0.56,2.505-1.738c0.211-1.184-0.562-2.294-1.745-2.505
			c-3.953-0.725-7.947,0.15-11.23,2.458c-3.301,2.294-5.513,5.734-6.212,9.688c-0.868,4.864,0.277,9.969,3.143,13.987
			c2.813,3.939,6.95,6.497,11.654,7.214c11.686,1.804,18.467-6.697,26.283-16.548c1.738-2.186,3.417-4.54,5.097-6.905
			c1.086-1.529,2.165-3.035,3.262-4.514c0.042-0.055,0.097-0.087,0.124-0.137c0.021-0.026,0.026-0.058,0.042-0.09
			c6.233-8.366,12.962-15.322,24.49-15.322c0.032,0,0.077,0,0.108,0c5.55,0.024,10.589,2.236,14.164,6.233
			c2.489,2.793,4.05,6.334,4.802,10.167c-1.015-0.804-2.188-1.474-3.555-1.943c-5.022-1.717-10.547,0.978-12.284,6.003
			c-1.458,4.266,0.82,8.922,5.065,10.368c0.751,0.264,1.5,0.385,2.268,0.385c2.89,0,5.6-1.819,6.61-4.704
			c0.517-1.511,0.409-3.148-0.298-4.596c-0.702-1.447-1.917-2.521-3.452-3.035c-1.128-0.382-2.359,0.216-2.742,1.345v0.005
			c-0.593,0.701-0.728,1.725-0.211,2.539c0.525,0.804,1.464,1.134,2.36,0.912c0.05,0.066,0.118,0.077,0.163,0.135
			c0.188,0.406,0.227,0.865,0.084,1.287c-0.475,1.381-1.959,2.13-3.38,1.645c-1.985-0.686-3.051-2.879-2.375-4.88
			c0.973-2.798,4.018-4.271,6.816-3.322c4.638,1.598,5.01,5.756,4.448,9.12c-1.095,3.206-3.035,6.043-5.735,8.216
			c-3.762,3.027-8.477,4.382-13.278,3.882c-7.684-0.834-13.257-7.763-12.43-15.457c0.649-5.911,6.004-10.156,11.892-9.556
			c1.166,0.15,2.257-0.73,2.381-1.914c0.119-1.187-0.741-2.252-1.912-2.375c-8.274-0.873-15.747,5.105-16.659,13.386
			c-0.73,6.803,2.413,13.089,7.612,16.822c-1.458-0.01-2.834-0.053-4.385,0.021c-13.165,0.591-23.24,4.904-30.175,11.006
			c-0.185,0.143-0.355,0.301-0.54,0.453c-0.093,0.079-0.156,0.143-0.243,0.217c-3.565,3.09-6.416,7.003-8.213,11.448
			c-1.103,0.512-13.722,6.587-14.834,17.914c-0.335,3.491,1.513,6.792,3.143,9.714c1.237,2.215,2.534,4.514,2.139,5.801
			c-0.264,0.896-0.857,1.181-2.65,1.635c-1.432,0.342-3.807,0.949-4.05,3.48c-0.443,4.65,5.065,8.728,12.796,9.476
			c0.789,0.09,1.54,0.116,2.302,0.116c6.734,0,11.713-2.863,12.095-6.95c0.261-2.536-1.959-3.575-3.288-4.198
			c-1.679-0.78-2.201-1.176-2.294-2.099c-0.118-1.345,1.572-3.354,3.217-5.289c2.144-2.558,4.612-5.447,4.941-8.923
			c0.87-8.959-5.961-16.073-9.363-19.021c1.426-3.375,3.618-6.592,6.549-9.439c4.564-4.113,10.537-6.681,17.152-6.681
			c11.101,0,20.136,9.038,20.136,20.134c0,8.09-6.183,14.691-14.051,15.515c-0.366-0.96-0.891-1.867-1.669-2.616
			c-2.781-2.727-7.56-2.668-10.259,0.101c-2.808,2.843-2.776,7.451,0.087,10.278c1.371,1.339,3.185,2.077,5.086,2.077
			c1.954,0,3.808-0.786,5.189-2.178c0.939-0.96,1.442-2.136,1.722-3.349c4.348-0.391,8.245-2.141,11.351-4.852
			c1.463,3.175,4.638,6.328,11.438,6.328c7.322,0,15.293-3.755,15.638-3.929c0.707-0.332,1.171-1.039,1.216-1.83
			c0.048-0.791-0.34-1.54-1.015-1.951c-4.105-2.531-5.72-4.419-6.872-6.497c-3.098-5.494-6.592-10.235-12.533-8.532
			c-0.422,0.11-0.746,0.29-1.102,0.433c-0.475-11.201-8.43-20.45-19.014-22.829c1.983-0.3,4.008-0.543,6.178-0.638
			c18.004-0.775,27.815,4.188,33.054,8.817c-3.839,4.608-6.027,10.02-6.027,15.646c0,1.197,0.983,2.157,2.151,2.157
			c1.197,0,2.16-0.976,2.16-2.157c0-4.371,1.707-8.754,4.649-12.481c2.939,3.718,4.648,8.11,4.648,12.481
			c0,1.197,0.97,2.157,2.151,2.157c1.176,0,2.157-0.976,2.157-2.157c0-5.632-2.188-11.047-6.028-15.646
			c5.227-4.62,14.982-9.604,33.07-8.817c2.141,0.105,4.177,0.338,6.164,0.633c-10.589,2.373-18.546,11.628-19.016,22.812
			c-0.348-0.143-0.675-0.316-1.092-0.432c-5.996-1.693-9.444,3.048-12.524,8.543c-1.187,2.066-2.806,3.96-6.887,6.486
			c-0.675,0.416-1.065,1.17-1.018,1.956c0.042,0.786,0.517,1.492,1.233,1.83c0.332,0.163,8.29,3.923,15.642,3.923
			c6.797,0,9.972-3.153,11.438-6.317c3.085,2.711,7.003,4.451,11.349,4.847c0.312,1.239,0.812,2.415,1.729,3.349
			c1.382,1.402,3.228,2.173,5.184,2.173c1.909,0,3.713-0.738,5.073-2.089c2.848-2.811,2.89-7.403,0.105-10.262
			c-2.731-2.764-7.515-2.816-10.257-0.105c-0.77,0.759-1.292,1.655-1.666,2.62c-7.879-0.816-14.064-7.419-14.064-15.509
			c0-11.105,9.028-20.134,20.134-20.134c6.618,0,12.588,2.584,17.154,6.691c2.933,2.848,5.121,6.06,6.55,9.439
			c-3.406,2.959-10.241,10.062-9.376,19.012c0.338,3.49,2.795,6.381,4.952,8.922c1.65,1.936,3.338,3.945,3.222,5.284
			c-0.105,0.929-0.617,1.318-2.299,2.104c-1.329,0.622-3.55,1.672-3.302,4.187c0.385,4.098,5.363,6.956,12.098,6.956
			c0.765,0,1.508-0.031,2.299-0.11c7.758-0.749,13.258-4.825,12.814-9.487c-0.264-2.521-2.621-3.117-4.055-3.47
			c-1.788-0.454-2.384-0.738-2.647-1.624c-0.38-1.298,0.896-3.597,2.136-5.812c1.635-2.922,3.491-6.223,3.138-9.714
			c-1.107-11.359-13.796-17.434-14.834-17.919c-1.799-4.43-4.609-8.321-8.18-11.412c-0.11-0.095-0.211-0.195-0.321-0.29
			c-0.143-0.127-0.301-0.258-0.448-0.38c-6.93-6.122-17.022-10.446-30.206-11.037c-1.54-0.073-2.927-0.031-4.361-0.021
			c1.329-0.96,2.584-2.036,3.639-3.35c3.069-3.817,4.472-8.605,3.939-13.479c-0.907-8.266-8.433-14.288-16.654-13.381
			c-1.191,0.124-2.051,1.199-1.914,2.375c0.138,1.189,1.202,2.065,2.373,1.912c5.917-0.588,11.265,3.646,11.892,9.558
			c0.406,3.718-0.659,7.383-3.017,10.305c-2.352,2.916-5.685,4.746-9.402,5.152c-4.804,0.511-9.519-0.85-13.278-3.882
			c-3.048-2.457-5.126-5.774-6.102-9.502c-0.231-3.069,0.56-6.439,4.614-7.839c1.351-0.469,2.806-0.377,4.093,0.253
			c1.271,0.627,2.246,1.706,2.699,3.056c0.686,2.015-0.374,4.208-2.383,4.894c-0.649,0.232-1.382,0.189-2.015-0.11
			c-0.633-0.322-1.113-0.85-1.345-1.524c-0.138-0.422-0.111-0.881,0.095-1.287c0.031-0.071,0.11-0.082,0.153-0.134
			c0.875,0.222,1.835-0.113,2.356-0.912c0.522-0.799,0.391-1.828-0.2-2.529c0-0.005,0-0.01,0-0.016
			c-0.38-1.128-1.603-1.706-2.742-1.35c-1.519,0.524-2.747,1.598-3.459,3.04c-0.707,1.442-0.802,3.066-0.285,4.596
			c0.596,1.762,1.861,3.186,3.528,4.002c0.97,0.47,2.004,0.707,3.032,0.707c0.775,0,1.529-0.121,2.268-0.385
			c4.256-1.45,6.533-6.106,5.083-10.378c-0.838-2.442-2.589-4.406-4.904-5.54c-2.32-1.134-4.946-1.289-7.383-0.459
			c-1.26,0.438-2.362,1.052-3.327,1.793c0.76-3.771,2.31-7.264,4.768-10.012C108.226,70.576,113.251,68.369,118.81,68.34z
			 M151.657,79.406c-0.231-0.417-0.306-0.902-0.168-1.36c0.126-0.467,0.422-0.839,0.844-1.071c1.328-0.762,3.032-0.269,3.765,1.036
			c0.665,1.195,0.665,2.571,0.127,3.71c0.005-0.372-0.09-0.767-0.279-1.11c-0.396-0.704-1.129-1.097-1.898-1.097
			c-0.349,0-0.729,0.089-1.045,0.274C152.533,80.052,151.916,79.881,151.657,79.406z M40.298,79.778
			c-1.02-0.567-2.365-0.221-2.942,0.82c-0.201,0.346-0.298,0.736-0.292,1.113c-0.538-1.14-0.538-2.511,0.113-3.694
			c0.524-0.907,1.463-1.413,2.426-1.413c0.464,0,0.928,0.113,1.36,0.355c0.411,0.227,0.707,0.599,0.831,1.058
			c0.132,0.472,0.077,0.957-0.156,1.374C41.411,79.881,40.802,80.07,40.298,79.778z M21.053,147.23
			c0.752,0.068,1.427,0.427,1.912,1.018c0.475,0.58,0.696,1.313,0.633,2.067c-0.137,1.439-1.379,2.568-2.813,2.568v2.156
			l-0.282-2.172c-1.55-0.153-2.7-1.54-2.55-3.091c0.143-1.455,1.334-2.552,3.064-2.552C21.032,147.226,21.042,147.226,21.053,147.23
			z M30.508,152.394c-0.206,2.135-2.107,4.382-3.937,6.549c-2.215,2.616-4.514,5.326-4.206,8.49
			c0.335,3.533,3.098,4.831,4.762,5.601c0.2,0.101,0.459,0.222,0.675,0.332c-0.777,1.36-4.461,3.001-9.531,2.5
			c-5.031-0.49-8.354-2.716-8.859-4.276c0.232-0.069,0.517-0.127,0.728-0.195c1.772-0.443,4.746-1.182,5.756-4.594
			c0.892-3.037-0.841-6.138-2.521-9.139c-1.395-2.479-2.813-5.036-2.603-7.177c0.562-5.754,5.339-9.988,8.817-12.329
			c-0.298,1.645-0.475,3.322-0.475,5.057c-2.9,0.701-5.147,3.054-5.461,6.165c-0.382,3.923,2.502,7.425,6.426,7.799
			c0.076,0.011,0.622,0.037,0.688,0.037c0,0,0,0,0.01,0c3.697,0,6.755-2.779,7.106-6.454c0.171-1.915-0.38-3.761-1.593-5.248
			c-0.788-0.943-1.803-1.555-2.9-1.998c0-0.042,0.021-0.084,0.021-0.121c0-1.498,0.2-2.959,0.443-4.388
			c0.042-0.216,0.071-0.427,0.113-0.638C26.962,141.287,31.081,146.466,30.508,152.394z M50.574,157.94
			c-1.105,1.129-3.045,1.14-4.164,0.053c-1.149-1.149-1.17-3.026-0.031-4.176c0.562-0.56,1.297-0.881,2.106-0.881
			c0.789,0,1.5,0.311,2.057,0.838C51.691,154.908,51.702,156.78,50.574,157.94z M70.61,148.48c2.927,4.16,6.932,4.546,8.092,4.546
			c0.18,0,0.298-0.011,0.319-0.011c1.205-0.101,2.096-1.129,1.993-2.331c-0.098-1.187-1.205-2.057-2.323-1.982
			c-0.068,0-3.583,0.184-5.576-4.572c-0.087-0.575-0.098-1.324,0.221-1.957c0.356-0.759,1.181-1.318,2.428-1.677
			c0.483-0.137,0.896-0.2,1.282-0.2c1.84,0,3.541,1.819,6.312,6.702c1.221,2.168,2.753,3.961,4.979,5.712
			c-2.727,0.97-6.6,2.057-10.167,2.057c-5.751,0-7.296-2.795-7.939-4.862C70.193,149.688,70.241,148.955,70.61,148.48z
			 M142.771,153.77c0.554-0.543,1.276-0.839,2.047-0.839c0.801,0,1.55,0.327,2.114,0.881c1.139,1.155,1.118,3.032-0.042,4.161
			c-1.118,1.097-3.048,1.086-4.161-0.042c-0.559-0.56-0.854-1.298-0.844-2.1C141.892,155.051,142.208,154.334,142.771,153.77z
			 M115.129,154.767c-3.56,0-7.441-1.087-10.168-2.057c2.215-1.74,3.755-3.523,4.983-5.706c3.317-5.896,4.82-7.299,7.594-6.508
			c1.239,0.349,2.057,0.907,2.421,1.65c0.327,0.649,0.306,1.43,0.211,2.052c-1.92,4.472-5.168,4.546-5.59,4.504
			c-1.318-0.085-2.199,0.807-2.289,1.982c-0.105,1.202,0.786,2.23,1.983,2.331c0.031,0,0.132,0.011,0.327,0.011
			c1.16,0,5.157-0.375,8.089-4.546c0.369,0.475,0.422,1.218,0.38,1.402C122.416,151.972,120.887,154.767,115.129,154.767z
			 M172.551,147.215c1.461,0,2.652,1.097,2.811,2.552c0.143,1.562-1.007,2.948-2.547,3.102l-0.29,2.172v-2.156
			c-1.461,0-2.663-1.103-2.811-2.568c-0.074-0.76,0.147-1.487,0.633-2.078C170.816,147.657,171.491,147.299,172.551,147.215z
			 M169.435,138.988c0.242,1.435,0.442,2.884,0.442,4.388c0,0.047,0.021,0.089,0.021,0.126c-1.097,0.438-2.125,1.05-2.89,1.988
			c-1.213,1.472-1.777,3.343-1.604,5.258c0.358,3.681,3.428,6.449,7.114,6.449c0.079,0,0.627-0.026,0.701-0.037
			c3.913-0.369,6.803-3.881,6.423-7.81c-0.311-3.096-2.568-5.458-5.469-6.154c0-1.729-0.179-3.417-0.475-5.062
			c3.476,2.352,8.253,6.57,8.817,12.334c0.211,2.146-1.233,4.704-2.6,7.183c-1.683,3.012-3.412,6.112-2.516,9.145
			c1.018,3.406,3.977,4.145,5.748,4.588c0.222,0.068,0.507,0.126,0.744,0.2c-0.491,1.582-3.755,3.775-8.876,4.271
			c-5.083,0.47-8.754-1.139-9.528-2.5c0.216-0.11,0.475-0.231,0.675-0.332c1.672-0.78,4.419-2.072,4.767-5.61
			c0.312-3.153-1.987-5.864-4.213-8.479c-1.835-2.168-3.733-4.409-3.939-6.55c-0.569-5.928,3.549-11.106,6.539-14.049
			C169.366,138.566,169.397,138.777,169.435,138.988z M103.379,107.59c2.184,1.751,4.651,3.021,7.251,3.85
			c-6.412,1.973-10.91,4.804-13.982,7.536c-3.071-2.727-7.585-5.553-13.995-7.531c2.607-0.827,5.086-2.093,7.288-3.865
			c1.854-1.481,3.333-3.274,4.606-5.199v8.849c0,1.192,0.979,2.151,2.154,2.151c1.189,0,2.16-0.97,2.16-2.151v-8.717
			C100.126,104.395,101.57,106.135,103.379,107.59z M91.841,54.695c-0.053-2.673,2.086-4.886,4.844-4.941
			c2.607,0,4.786,2.127,4.839,4.746c0.031,1.292-0.454,2.523-1.351,3.462c-0.686,0.706-1.571,1.091-2.499,1.292
			c-0.312-0.153-0.62-0.267-0.994-0.267c-0.356,0-0.691,0.113-0.986,0.271C93.547,58.806,91.896,57.013,91.841,54.695z
			 M98.86,73.297v-9.788c1.688-0.406,3.211-1.271,4.435-2.549c1.688-1.772,2.595-4.101,2.558-6.539
			c-0.11-4.952-4.208-8.976-9.334-8.976c-0.011,0-0.011,0-0.011,0c-5.044,0.103-9.078,4.287-8.975,9.342
			c0.103,4.206,3.083,7.733,7.013,8.693v9.336C89.8,69.318,82.062,62.228,81.879,52.936c-0.077-3.296,2.278-6.842,4.556-10.273
			c2.689-4.044,5.239-7.862,4.385-11.852c-0.938-4.385-4.585-5.59-6.977-6.395c-0.577-0.195-1.458-0.485-1.685-0.485
			c-0.032,0-0.053,0.005-0.053,0.01c-0.066-2.981,5.854-6.438,13.835-6.604l0.566-0.005c7.91,0,13.463,3.185,13.638,5.746
			c-0.222,0.231-1.197,0.593-1.83,0.838c-2.362,0.896-5.948,2.247-6.713,6.669c-0.686,4.01,1.998,7.738,4.841,11.662
			c2.415,3.338,4.915,6.795,4.978,10.077C111.627,62.109,103.363,69.827,98.86,73.297z"/>
	</g>
</g>
<g>
</g>
<g>
</g>
<g>
</g>
<g>
</g>
<g>
</g>
<g>
</g>
<g>
</g>
<g>
</g>
<g>
</g>
<g>
</g>
<g>
</g>
<g>
</g>
<g>
</g>
<g>
</g>
<g>
</g>
</svg>
