<?xml version="1.0" standalone="no"?>
<!DOCTYPE svg PUBLIC "-//W3C//DTD SVG 20010904//EN"
 "http://www.w3.org/TR/2001/REC-SVG-20010904/DTD/svg10.dtd">
<svg version="1.0" xmlns="http://www.w3.org/2000/svg"
 width="510.000000pt" height="444.000000pt" viewBox="0 0 510.000000 444.000000"
 preserveAspectRatio="xMidYMid meet">

<g transform="translate(0.000000,444.000000) scale(0.100000,-0.100000)"
fill="#000000" stroke="none">
<path d="M2926 4235 c-74 -28 -118 -89 -118 -162 0 -52 20 -85 72 -120 78 -54
200 2 187 85 -4 25 -4 25 -6 -5 -1 -38 -50 -83 -89 -83 -74 0 -138 73 -127
145 18 120 176 161 331 86 79 -39 203 -158 242 -232 17 -32 18 -38 5 -21 -27
33 -74 62 -102 62 -13 0 -32 11 -43 25 -11 14 -46 44 -79 66 -45 30 -59 46
-59 64 0 30 -11 32 -33 7 -54 -59 23 -153 163 -197 77 -25 120 -48 154 -84 16
-17 34 -28 39 -24 6 3 7 1 3 -5 -4 -7 -2 -12 3 -12 6 0 11 -7 11 -16 0 -13 -4
-13 -25 4 -64 51 -211 55 -303 9 -29 -15 -73 -42 -99 -62 -53 -40 -88 -44
-127 -14 -19 15 -26 30 -26 53 0 57 53 85 96 50 17 -14 17 -15 1 -10 -25 8
-57 -11 -57 -33 0 -48 74 -53 86 -5 16 62 -44 108 -104 80 -61 -29 -68 -92
-17 -143 34 -34 38 -35 88 -30 l52 6 -24 -19 c-26 -22 -37 -25 -46 -10 -9 15
-34 12 -89 -9 l-49 -18 41 -28 c50 -33 81 -29 112 15 26 36 40 38 40 6 0 -41
18 -75 68 -129 65 -70 82 -96 82 -128 0 -33 -50 -79 -86 -79 -59 0 -99 95 -56
133 26 24 46 22 32 -2 -7 -15 -6 -23 6 -35 19 -19 26 -20 42 -4 17 17 15 53
-4 68 -22 19 -70 16 -93 -4 -62 -56 -7 -176 81 -176 34 0 87 36 99 67 15 41 1
82 -46 128 -66 64 -95 112 -95 158 0 49 37 115 78 139 l29 17 -24 -46 c-27
-55 -29 -102 -6 -150 57 -122 243 -84 243 50 0 33 -36 87 -59 87 -5 0 4 -13
20 -29 19 -20 29 -39 28 -58 -1 -16 -3 -21 -6 -11 -6 24 -42 33 -60 15 -18
-18 -9 -39 12 -30 19 7 19 -11 0 -27 -20 -16 -43 -6 -55 24 -5 13 -15 28 -22
33 -23 14 -42 87 -31 119 7 22 20 32 56 43 97 30 213 -26 252 -121 13 -32 13
-38 1 -38 -43 0 -44 -68 -1 -88 37 -17 59 -15 89 9 21 16 26 28 24 53 -2 25
-8 32 -30 34 -21 3 -29 11 -39 40 -41 131 -122 285 -186 357 -40 46 -132 112
-193 139 -79 36 -191 45 -254 21z m265 -621 c34 -34 98 -43 136 -20 l28 17
-28 -25 c-43 -39 -99 -36 -143 8 -31 31 -34 39 -33 88 l2 53 6 -48 c5 -31 16
-56 32 -73z m397 31 c-3 -3 -9 2 -12 12 -6 14 -5 15 5 6 7 -7 10 -15 7 -18z
m-48 -11 c0 -8 -4 -12 -10 -9 -5 3 -10 13 -10 21 0 8 5 12 10 9 6 -3 10 -13
10 -21z"/>
<path d="M3487 4083 c-20 -20 -3 -58 48 -110 72 -73 108 -146 108 -220 0 -45
2 -52 11 -37 6 11 11 60 11 109 0 82 -3 97 -33 158 -22 45 -45 75 -65 88 -32
19 -68 25 -80 12z"/>
<path d="M2345 4029 c-662 -85 -1219 -545 -1429 -1179 -33 -101 -63 -227 -55
-234 2 -2 20 -6 39 -8 l35 -6 26 107 c138 563 581 1023 1143 1185 152 45 259
59 438 60 93 1 168 3 168 5 0 2 -5 21 -12 42 l-11 39 -136 -1 c-75 -1 -167 -6
-206 -10z"/>
<path d="M2415 3873 c-151 -13 -364 -71 -512 -138 -337 -154 -627 -450 -779
-795 -72 -163 -128 -387 -106 -425 7 -13 13 7 26 76 36 197 122 406 243 587
80 122 290 330 413 411 171 113 355 190 553 233 86 19 134 22 304 23 141 0
203 3 203 11 0 19 -205 30 -345 17z"/>
<path d="M3872 3819 c-51 -26 -78 -58 -93 -111 -26 -100 40 -198 134 -198 70
0 127 83 96 139 -42 74 -145 55 -125 -24 13 -51 95 -40 97 13 l0 27 10 -24
c13 -32 -16 -81 -55 -94 -61 -20 -126 44 -126 126 0 45 36 97 83 121 103 50
247 -51 247 -174 0 -55 -30 -108 -118 -207 -44 -51 -89 -107 -98 -125 l-17
-33 -9 30 c-4 17 -6 42 -3 56 15 67 -37 109 -132 109 -57 0 -57 -1 -37 -18 12
-9 31 -36 43 -59 24 -47 60 -77 84 -68 23 10 29 -9 38 -126 10 -137 30 -179
109 -226 61 -37 121 -43 170 -18 42 22 37 25 -11 9 -47 -17 -96 -7 -150 29
-79 52 -105 192 -53 294 48 98 145 163 255 171 126 9 224 -63 249 -181 17 -85
-13 -156 -75 -177 -75 -25 -155 34 -155 113 1 60 14 72 83 72 61 -1 69 11 23
33 -62 31 -136 -31 -136 -113 0 -107 123 -180 220 -130 64 33 93 127 66 217
-33 114 -136 190 -261 192 -38 1 -83 -3 -98 -7 l-29 -8 27 35 c52 69 64 159
30 226 -33 64 -136 129 -205 130 -19 0 -54 -10 -78 -21z"/>
<path d="M3742 3783 c2 -10 10 -18 18 -18 8 0 16 8 18 18 2 12 -3 17 -18 17
-15 0 -20 -5 -18 -17z"/>
<path d="M3704 3745 c-4 -9 -2 -21 4 -27 15 -15 44 -1 40 19 -4 23 -36 29 -44
8z"/>
<path d="M3692 3683 c-7 -12 -7 -25 3 -43 7 -14 19 -41 28 -62 23 -54 77 -90
140 -95 l52 -3 -47 13 c-25 7 -58 21 -72 31 -46 29 -87 116 -55 116 6 0 9 12
7 28 -4 33 -41 43 -56 15z"/>
<path d="M3344 3556 c-61 -27 -84 -95 -44 -131 22 -20 62 -13 42 7 -7 7 -12
24 -12 39 0 38 33 59 93 59 72 0 134 -36 164 -95 l16 -30 -24 22 c-109 100
-284 4 -239 -132 18 -55 99 -85 141 -52 39 30 44 90 10 112 -7 4 -7 -3 1 -19
24 -54 -30 -99 -84 -72 -53 27 -56 97 -6 146 37 38 102 41 155 9 36 -22 50
-45 82 -128 l19 -52 -21 7 c-12 3 -28 11 -34 16 -19 15 -43 2 -43 -23 0 -18 4
-20 38 -15 48 8 57 0 125 -110 31 -50 78 -115 103 -143 26 -29 45 -53 43 -55
-8 -7 -69 15 -65 23 3 5 -7 11 -23 14 -51 10 -97 61 -121 131 -22 68 -38 88
-83 105 -21 8 -34 8 -50 -1 l-22 -13 21 -3 c33 -5 104 -94 104 -130 0 -35 53
-88 98 -98 46 -10 48 -12 11 -13 -44 -1 -95 -18 -131 -43 -33 -23 -47 -66 -27
-79 23 -14 37 -11 71 20 55 47 115 72 180 75 33 1 62 -2 64 -6 3 -4 -14 -8
-38 -8 -61 0 -109 -28 -135 -80 -13 -24 -23 -56 -22 -70 1 -18 5 -13 15 21 18
57 55 96 105 109 50 14 96 -2 180 -63 36 -25 93 -59 128 -76 64 -30 67 -48 5
-37 -19 4 -43 2 -55 -4 -25 -14 -49 -68 -49 -111 0 -28 2 -30 16 -18 9 8 35
23 57 34 39 19 50 31 61 68 4 13 16 17 48 17 l43 -1 -30 -13 c-39 -17 -70 -52
-90 -98 -21 -52 -19 -86 11 -146 40 -80 120 -121 210 -107 81 12 153 104 140
179 l-6 31 13 -30 c6 -17 27 -56 45 -86 36 -63 41 -112 17 -164 -29 -59 -102
-76 -98 -22 1 15 -2 27 -7 27 -13 0 -30 -34 -30 -59 0 -25 37 -61 62 -61 33 0
75 28 91 62 14 28 17 30 17 10 0 -31 -26 -92 -52 -119 -45 -48 -163 -15 -131
36 14 23 5 35 -14 20 -33 -28 -6 -80 52 -96 l30 -8 -40 -6 c-39 -6 -39 -7 7
-4 57 2 107 37 132 90 l17 36 19 -23 c15 -19 22 -21 37 -12 24 15 29 52 8 60
-21 8 -32 -3 -17 -18 16 -16 15 -28 -3 -28 -23 0 -38 39 -31 81 6 35 -3 100
-20 142 -6 16 -3 16 32 1 42 -18 107 -20 144 -6 69 27 108 118 79 187 l-12 30
-6 -30 c-4 -19 -19 -38 -45 -55 -21 -15 -42 -33 -47 -42 -10 -18 15 -58 38
-58 26 0 8 -11 -32 -20 -54 -12 -122 11 -167 57 -58 60 -73 124 -43 188 l13
30 1 -48 c1 -37 7 -54 26 -72 33 -34 87 -34 120 0 30 30 31 54 4 89 -24 30
-51 34 -70 9 -11 -15 -11 -16 1 -5 30 26 70 0 70 -47 0 -35 -19 -52 -61 -53
-41 -1 -69 31 -69 79 0 45 19 79 70 128 80 76 113 200 76 288 -35 84 -135 115
-189 59 -15 -15 -27 -33 -27 -40 0 -7 -13 -12 -29 -12 -43 0 -82 -17 -119 -53
-65 -62 -63 -158 3 -216 42 -36 33 -38 -65 -15 -76 18 -185 68 -255 118 -75
54 -179 160 -235 243 -80 115 -107 180 -195 470 -2 6 -13 9 -25 6 -15 -4 -19
-11 -14 -27 18 -64 18 -62 -12 -33 -16 16 -41 35 -57 43 -42 22 -117 27 -153
10z m1305 -502 c72 -51 67 -201 -8 -286 -99 -110 -301 -62 -301 72 0 47 30 93
73 113 50 24 82 22 101 -8 9 -14 27 -27 41 -31 19 -5 25 -13 25 -34 0 -39 -9
-59 -32 -71 -17 -9 -18 -8 -9 10 6 11 11 24 11 30 0 16 -38 51 -55 51 -20 0
-55 -36 -55 -55 0 -27 47 -65 79 -65 46 0 91 43 91 89 0 20 -6 43 -12 50 -11
10 -9 11 5 5 12 -4 7 6 -15 29 -18 20 -44 40 -56 45 l-24 8 27 32 c31 37 75
43 114 16z m-95 -123 c-2 -3 -12 3 -22 13 -16 17 -16 18 5 5 12 -7 20 -15 17
-18z m-38 -290 c-9 -16 -18 -47 -22 -70 l-7 -41 -34 30 c-25 23 -44 30 -74 30
-73 0 -115 -74 -69 -120 27 -27 56 -25 85 5 28 27 30 37 15 66 -14 25 2 24 26
-2 42 -46 13 -138 -51 -165 -131 -55 -259 75 -199 202 31 65 63 78 204 85 69
3 128 6 133 7 4 1 1 -11 -7 -27z"/>
<path d="M4127 3402 c-21 -23 -21 -36 -2 -52 12 -10 18 -10 30 0 21 17 19 29
-7 39 -20 8 -21 10 -6 16 27 11 58 -12 58 -44 0 -32 -21 -52 -113 -109 -124
-77 -152 -223 -55 -282 35 -21 102 -27 113 -10 3 6 -1 10 -9 10 -21 0 -56 48
-56 76 0 13 16 41 35 63 42 47 47 86 11 102 -19 9 -31 8 -56 -5 -52 -25 -17
10 45 45 65 38 79 49 93 76 17 31 15 50 -8 73 -25 25 -52 26 -73 2z m-108
-372 c7 -14 25 -35 39 -47 15 -13 21 -23 15 -23 -7 0 -27 13 -44 28 -25 22
-32 37 -35 77 -3 39 -2 43 4 20 5 -16 14 -41 21 -55z"/>
<path d="M2748 3373 c-34 -35 -67 -109 -68 -148 0 -30 0 -31 -57 -30 -56 0
-58 -1 -55 -25 2 -16 -5 -30 -19 -41 l-22 -17 19 -33 c31 -53 78 -79 142 -79
50 0 53 -1 41 -17 -12 -15 -12 -16 6 -9 11 5 34 12 51 17 66 19 187 160 160
186 -3 4 -6 -3 -6 -14 0 -12 -9 -31 -20 -44 l-20 -24 10 28 c5 16 9 43 9 60
-2 27 -2 28 -6 7 -8 -46 -24 -88 -38 -100 -11 -9 -9 1 5 33 17 37 20 63 18
146 -2 66 -7 101 -14 101 -6 0 -28 -11 -49 -25 -20 -15 -39 -24 -41 -22 -2 2
-7 20 -11 41 l-8 37 -27 -28z m65 -103 c50 -59 54 -119 13 -199 l-17 -33 -32
25 c-18 13 -42 42 -55 63 -33 56 -27 145 12 204 l28 43 13 -36 c7 -20 24 -50
38 -67z m63 65 c-3 -8 0 -39 6 -69 7 -38 7 -66 0 -93 l-10 -38 -1 41 c-1 28
-11 55 -31 85 l-30 44 26 23 c29 25 49 29 40 7z m-198 -169 c12 -12 7 -14 -42
-15 -54 0 -71 11 -48 33 11 11 73 -1 90 -18z m61 -86 c27 -27 47 -51 43 -54
-20 -11 -79 -17 -118 -11 -32 4 -54 16 -79 41 -19 19 -35 41 -35 49 0 20 49
35 97 30 34 -4 51 -14 92 -55z"/>
<path d="M3512 3243 c2 -10 10 -18 18 -18 8 0 16 8 18 18 2 12 -3 17 -18 17
-15 0 -20 -5 -18 -17z"/>
<path d="M3146 3215 c-4 -19 -11 -35 -16 -35 -6 0 -10 4 -10 8 0 5 -18 18 -39
30 l-39 22 5 -37 c3 -22 -2 -57 -11 -83 -17 -48 -20 -88 -10 -115 5 -12 9 -13
14 -5 5 8 9 7 13 -3 3 -9 0 -14 -8 -13 -20 3 -25 9 -41 53 l-15 38 6 -35 c3
-19 17 -46 30 -60 14 -14 25 -29 25 -33 0 -15 48 -56 73 -62 15 -4 30 -11 33
-16 3 -5 10 -7 15 -3 5 3 7 9 5 13 -3 4 17 7 45 7 53 0 87 18 123 68 20 26 20
28 3 37 -10 6 -17 22 -17 38 0 23 -5 30 -29 34 -15 3 -37 4 -48 1 -18 -5 -21
0 -25 44 -4 45 -52 142 -69 142 -4 0 -10 -16 -13 -35z m45 -36 c27 -54 28
-113 1 -165 -19 -38 -59 -74 -81 -74 -5 0 -17 20 -27 45 -21 57 -10 104 41
165 19 23 35 48 35 56 0 24 9 16 31 -27z m-94 9 l23 -22 -21 -22 c-11 -12 -27
-39 -34 -61 -14 -37 -14 -37 -14 -8 -1 44 11 135 17 135 3 0 16 -10 29 -22z
m221 -150 c-3 -8 -24 -14 -52 -15 -40 -1 -45 1 -35 13 15 18 92 19 87 2z m10
-52 c14 -14 14 -17 -4 -37 -42 -47 -107 -61 -173 -38 l-32 11 35 26 c20 14 36
29 36 34 0 29 110 33 138 4z"/>
<path d="M3473 3218 c2 -7 10 -13 17 -13 7 0 15 6 18 13 2 7 -5 12 -18 12 -13
0 -20 -5 -17 -12z"/>
<path d="M1760 3040 c-63 -11 -142 -44 -208 -87 -61 -38 -193 -165 -232 -223
-13 -19 5 -4 39 33 156 168 334 256 495 245 95 -6 158 -47 180 -114 5 -18 0
-23 -36 -33 -203 -61 -462 -300 -544 -502 -26 -62 -32 -155 -14 -190 43 -80
208 -55 348 53 157 122 292 379 292 559 0 78 -1 77 110 86 81 6 145 -6 179
-35 21 -17 21 -17 -35 -62 -81 -65 -170 -181 -295 -382 -134 -216 -179 -277
-267 -359 -99 -94 -228 -149 -347 -149 -84 0 -146 54 -131 114 3 14 13 26 21
26 31 0 65 24 65 46 0 48 -66 34 -100 -21 -12 -19 -20 -50 -20 -75 0 -34 6
-48 33 -75 46 -46 101 -59 188 -46 226 36 393 158 565 417 39 58 61 83 71 80
8 -3 28 -6 44 -6 41 0 38 -17 -22 -139 -43 -85 -53 -115 -57 -172 -4 -65 -3
-69 26 -98 17 -17 38 -31 46 -31 22 0 20 -9 -7 -30 -29 -23 -73 -104 -81 -152
-8 -46 7 -106 35 -142 12 -15 44 -39 72 -53 44 -23 65 -27 137 -27 173 0 331
84 511 271 46 48 166 189 266 313 99 124 188 232 198 240 9 8 -27 -48 -80
-123 -245 -347 -366 -579 -334 -639 5 -10 14 -18 19 -18 19 0 85 76 210 245
138 185 348 441 437 533 l55 57 -47 -60 c-151 -194 -239 -318 -279 -395 -98
-186 -99 -318 -2 -350 85 -28 257 64 369 198 98 117 136 241 85 276 -63 45
-175 -15 -273 -146 -42 -55 -101 -158 -92 -158 2 0 18 22 36 50 94 145 245
260 302 229 28 -14 23 -48 -17 -128 -51 -101 -148 -197 -255 -250 -91 -46
-145 -53 -172 -23 -37 41 -13 107 128 347 142 241 283 442 427 608 125 142
-21 35 -203 -150 -162 -163 -354 -389 -527 -617 -76 -99 -143 -187 -150 -196
-28 -33 36 83 121 220 50 80 169 276 265 435 96 160 176 294 179 298 3 5 -4 4
-15 -2 -11 -6 -65 -59 -120 -118 -97 -104 -130 -143 -381 -447 -204 -248 -357
-382 -498 -437 -77 -30 -231 -33 -280 -6 -105 57 -115 158 -26 257 56 63 138
103 212 104 46 0 56 -3 77 -27 49 -58 24 -128 -63 -175 -42 -23 -52 -32 -35
-32 31 0 92 26 119 52 33 31 46 79 34 126 -14 50 -45 78 -102 92 -39 10 -57 9
-110 -6 -110 -30 -179 -12 -179 45 0 16 26 79 57 141 50 97 57 120 58 170 0
58 0 58 42 80 60 32 138 113 168 174 40 82 43 157 10 238 -6 15 6 24 66 53
109 51 188 69 304 68 142 0 271 -40 379 -116 16 -12 26 -16 23 -10 -17 28
-156 109 -231 134 -149 52 -333 35 -503 -46 l-74 -36 -27 19 c-57 40 -160 54
-275 37 -43 -7 -43 -7 -62 35 -31 69 -93 105 -193 114 -31 2 -77 1 -102 -4z
m290 -238 c0 -61 -35 -183 -75 -263 -52 -104 -111 -184 -192 -259 -83 -78
-148 -113 -224 -118 -49 -4 -60 -1 -79 18 -19 19 -22 30 -17 74 21 201 280
477 537 572 50 18 50 18 50 -24z m375 -65 c13 -87 -38 -199 -129 -285 -30 -29
-61 -53 -68 -54 -27 -3 -98 -3 -98 1 0 7 102 184 133 231 37 56 127 150 144
150 6 0 15 -19 18 -43z"/>
<path d="M4220 2865 c0 -8 7 -15 15 -15 8 0 15 7 15 15 0 8 -7 15 -15 15 -8 0
-15 -7 -15 -15z"/>
<path d="M4223 2824 c-8 -21 13 -42 28 -27 13 13 5 43 -11 43 -6 0 -13 -7 -17
-16z"/>
<path d="M4254 2785 c-8 -21 2 -45 19 -45 8 0 20 7 27 15 10 12 10 18 0 30 -7
8 -19 15 -27 15 -7 0 -16 -7 -19 -15z"/>
<path d="M2996 2719 c-26 -20 -37 -71 -17 -83 17 -11 -1 -56 -23 -57 -15 -1
-16 -3 -5 -6 9 -2 19 -17 21 -32 3 -23 1 -27 -16 -24 -12 2 -28 -1 -36 -6 -23
-16 17 -54 49 -46 15 4 28 1 33 -7 7 -9 8 -7 3 7 -13 39 -18 85 -8 85 5 0 22
-13 38 -30 16 -16 24 -30 17 -30 -6 0 -19 -11 -28 -25 -13 -20 -14 -28 -4 -40
7 -8 9 -15 4 -15 -4 0 -3 -5 4 -12 18 -18 15 -28 -8 -28 -11 0 -20 -6 -20 -13
0 -19 21 -37 43 -37 16 0 19 -5 13 -31 -12 -61 -39 -98 -154 -210 -64 -64
-125 -131 -135 -150 l-18 -34 22 30 c24 32 77 84 200 200 95 88 134 161 134
250 0 75 -25 128 -76 164 -51 35 -54 73 -7 86 37 11 55 47 44 89 -8 32 -33 34
-70 5z m93 -344 c-1 -55 -2 -57 -11 -30 -6 17 -17 38 -24 48 -10 15 -9 24 4
48 14 24 18 26 24 11 4 -9 7 -44 7 -77z"/>
<path d="M2686 2685 c-3 -8 -16 -15 -30 -15 -31 0 -45 -35 -23 -58 12 -11 19
-12 29 -4 10 8 16 5 25 -14 11 -23 9 -27 -20 -45 -42 -25 -44 -24 -39 10 2 16
0 31 -6 34 -13 9 -52 -30 -52 -52 0 -13 -10 -20 -36 -24 -90 -15 -164 -111
-164 -214 0 -99 53 -165 204 -254 49 -28 110 -70 134 -93 31 -28 41 -34 33
-18 -14 26 -105 96 -184 141 -156 89 -212 202 -156 317 28 58 44 71 65 49 11
-11 25 -14 44 -10 16 3 31 2 35 -4 11 -18 54 -12 65 8 15 30 12 38 -6 13 -19
-28 -54 -30 -54 -2 0 25 17 26 23 3 4 -16 5 -16 6 -1 2 24 -18 32 -37 16 -15
-13 -19 -13 -34 3 -16 17 -16 19 19 28 30 9 42 7 62 -5 22 -15 24 -15 17 1 -5
15 -2 16 21 10 26 -6 93 -42 93 -50 0 -1 -6 -15 -14 -30 -19 -36 -8 -65 33
-89 39 -22 57 -16 66 23 9 41 -18 91 -49 91 -12 0 -31 9 -40 19 -10 11 -31 25
-47 31 -30 13 -39 30 -15 30 8 0 26 14 40 31 25 30 28 51 17 132 -2 13 -19 8
-25 -8z m14 -45 c10 -18 9 -19 -15 -10 -15 6 -24 6 -20 1 8 -14 -9 -21 -24
-11 -8 4 -11 15 -8 24 9 23 54 20 67 -4z"/>
<path d="M2770 2604 c-22 -20 -40 -43 -40 -51 0 -18 59 -43 103 -43 33 0 67
24 67 48 0 6 8 16 18 21 9 6 12 11 5 11 -7 0 -23 11 -37 25 -35 35 -68 32
-116 -11z m56 9 c-6 -16 -6 -16 12 0 18 17 20 17 33 0 13 -16 12 -17 -3 -5
-12 10 -18 10 -24 1 -4 -7 0 -17 10 -24 15 -11 14 -13 -9 -18 -19 -3 -25 -1
-21 9 3 8 1 14 -3 14 -5 0 -12 -6 -14 -12 -3 -8 -6 -6 -6 4 -1 12 -6 15 -18
11 -16 -6 -16 -5 -4 10 7 9 17 14 22 11 5 -3 9 0 9 5 0 6 5 11 11 11 6 0 8 -7
5 -17z"/>
<path d="M582 2545 l-27 -25 27 13 c16 6 28 15 28 19 0 11 52 -13 75 -34 17
-16 18 -21 7 -39 -12 -18 -11 -20 5 -17 21 4 29 43 13 63 -6 7 -31 20 -56 29
-43 14 -45 14 -72 -9z"/>
<path d="M861 2476 c-8 -10 -9 -16 -1 -21 5 -3 10 -1 10 4 0 6 5 11 10 11 20
0 9 -29 -12 -33 -22 -4 -22 -4 -2 -6 27 -1 46 21 38 43 -8 20 -28 21 -43 2z"/>
<path d="M435 2460 c-8 -24 1 -40 21 -40 16 0 19 16 4 25 -15 9 -12 25 5 25
17 0 35 -30 35 -61 0 -30 6 -21 14 21 3 21 2 30 -3 22 -6 -11 -10 -9 -14 7 -7
28 -53 29 -62 1z"/>
<path d="M593 2462 c-34 -5 -70 -55 -83 -115 -10 -44 -10 -59 3 -89 l15 -36
-41 19 c-131 59 -260 -31 -232 -162 l7 -33 15 27 c7 15 32 38 53 52 49 31 54
67 13 89 l-28 14 43 11 c105 29 232 -68 232 -176 0 -39 -22 -113 -34 -113 -2
0 -2 18 1 40 10 72 -27 120 -92 120 -29 0 -65 -32 -64 -57 0 -14 2 -13 9 5 11
26 52 44 77 35 39 -13 53 -35 53 -82 0 -51 -12 -73 -81 -142 -96 -97 -107
-255 -23 -328 48 -43 103 -43 146 -1 17 17 27 34 23 38 -3 4 -11 -1 -17 -12
-15 -26 -72 -48 -100 -37 -48 19 -72 57 -76 125 -5 76 9 126 51 172 42 49 83
67 148 67 124 0 197 -105 139 -200 -36 -60 -131 -83 -181 -45 -13 11 -34 21
-47 24 l-22 6 20 -28 c29 -40 84 -63 138 -57 142 16 196 206 79 277 -32 20
-32 20 -6 20 43 0 174 -37 231 -66 177 -90 326 -241 420 -428 36 -72 88 -216
117 -323 9 -33 15 -40 30 -36 16 4 18 10 10 36 -14 50 -11 51 30 14 59 -54
132 -70 195 -43 78 32 92 136 19 136 -23 0 -23 -1 -7 -26 16 -24 16 -27 -3
-52 -45 -61 -150 -49 -220 24 -52 54 -56 75 -8 38 92 -70 226 -15 229 95 1 52
-29 93 -78 105 -30 8 -41 6 -64 -11 -34 -25 -42 -82 -15 -104 16 -13 17 -12 5
3 -38 48 19 113 77 88 29 -11 51 -46 51 -78 0 -58 -81 -120 -142 -108 -70 13
-114 68 -153 195 l-7 24 37 -22 c40 -23 65 -22 65 4 0 20 -28 31 -42 17 -21
-21 -66 16 -108 87 -48 84 -98 151 -153 209 l-41 42 43 0 c57 0 106 24 131 65
27 44 25 56 -2 15 -33 -48 -83 -72 -137 -67 -31 4 -63 19 -116 56 -41 28 -106
66 -145 85 -69 33 -77 47 -28 46 12 -1 36 -1 53 -1 37 -1 60 26 69 82 8 49 3
58 -21 37 -10 -8 -33 -21 -51 -28 -35 -14 -57 -43 -48 -66 4 -11 -6 -14 -47
-14 l-52 0 40 23 c58 33 85 78 85 143 0 66 -13 100 -53 142 -60 62 -171 75
-243 27 -66 -43 -86 -147 -38 -204 45 -54 135 -51 165 5 11 22 11 30 -2 52
-16 30 -70 42 -95 21 -17 -14 -18 -70 -1 -88 10 -11 8 -11 -10 -2 -102 53 -40
201 84 201 158 0 211 -204 73 -284 -29 -17 -56 -22 -158 -25 l-124 -3 16 30
c9 18 16 56 16 90 0 49 -5 67 -37 118 -46 75 -55 151 -24 201 33 52 108 59 99
9 -6 -32 20 -23 28 10 12 46 -30 84 -83 76z"/>
<path d="M805 2448 c-6 -12 -30 -34 -54 -48 -54 -31 -70 -53 -55 -77 18 -29
70 -28 99 1 21 21 25 34 25 86 0 33 -1 60 -3 60 -1 0 -7 -10 -12 -22z"/>
<path d="M2895 2418 c-20 -17 -28 -34 -28 -56 0 -45 19 -64 62 -60 33 3 36 6
36 33 0 24 -4 30 -23 31 -20 2 -20 1 -2 -3 30 -6 23 -47 -8 -51 -49 -7 -69 45
-34 88 20 24 59 30 102 16 19 -6 22 -5 14 4 -6 6 -29 14 -51 17 -32 4 -45 1
-68 -19z"/>
<path d="M4340 2297 c-35 -17 -62 -74 -56 -115 4 -28 3 -32 -9 -22 -8 6 -26
10 -42 8 -22 -2 -28 -8 -28 -28 0 -20 5 -25 25 -25 27 0 35 25 11 33 -8 3 -11
0 -7 -7 4 -6 2 -11 -4 -11 -7 0 -10 6 -8 13 8 23 38 19 64 -10 15 -15 24 -22
20 -15 -14 24 5 51 59 81 46 26 55 36 55 59 0 21 -7 32 -25 40 -31 14 -25 14
-55 -1z"/>
<path d="M4072 2011 c-31 -183 -139 -433 -259 -600 -85 -118 -221 -256 -337
-343 -153 -115 -372 -216 -564 -263 -52 -12 -70 -21 -63 -28 24 -24 248 46
412 129 371 185 657 516 788 909 44 132 63 237 48 253 -10 10 -15 -2 -25 -57z"/>
<path d="M4367 2039 c7 -7 15 -10 18 -7 3 3 -2 9 -12 12 -14 6 -15 5 -6 -5z"/>
<path d="M401 2019 c-1 -9 7 -23 17 -30 15 -12 16 -12 6 1 -6 8 -14 22 -17 30
-5 13 -6 12 -6 -1z"/>
<path d="M4157 1898 c-77 -292 -218 -538 -432 -753 -159 -159 -346 -284 -555
-371 -44 -19 -50 -23 -28 -24 15 0 46 -7 68 -16 l41 -17 85 43 c387 191 708
554 854 965 35 100 72 244 65 255 -3 4 -20 10 -39 12 l-34 4 -25 -98z"/>
<path d="M814 1845 c-9 -23 4 -47 23 -43 22 4 30 38 11 49 -19 13 -28 11 -34
-6z"/>
<path d="M548 1805 c-34 -19 -48 -44 -48 -84 0 -21 6 -32 21 -36 11 -4 23 -4
26 -1 4 3 -1 6 -9 6 -13 0 -14 8 -8 42 5 23 16 48 26 55 24 17 39 17 25 -1
-18 -22 -9 -68 14 -76 11 -4 30 -4 43 1 17 6 22 16 22 42 0 19 -6 40 -13 46
-24 19 -71 22 -99 6z"/>
<path d="M852 1783 c2 -10 10 -18 18 -18 8 0 16 8 18 18 2 12 -3 17 -18 17
-15 0 -20 -5 -18 -17z"/>
<path d="M1455 1764 c-45 -38 -84 -57 -145 -70 l-55 -11 38 -8 c86 -17 212 18
237 66 27 50 -24 66 -75 23z"/>
<path d="M860 1735 c0 -8 7 -15 15 -15 8 0 15 7 15 15 0 8 -7 15 -15 15 -8 0
-15 -7 -15 -15z"/>
<path d="M575 1660 c21 -24 26 -25 19 -6 -3 8 -13 17 -22 21 -13 5 -13 2 3
-15z"/>
<path d="M963 1672 c-6 -4 8 -7 30 -8 53 -1 119 -35 150 -76 70 -93 55 -226
-35 -324 -76 -83 -177 -121 -273 -103 -62 12 -97 32 -139 80 -128 150 -1 375
143 254 43 -37 56 -83 37 -130 -12 -28 -20 -36 -33 -31 -9 4 -37 4 -61 0 -41
-6 -44 -8 -27 -20 23 -17 85 -18 105 -1 53 41 64 105 29 167 -49 87 -163 106
-226 37 -71 -78 -62 -202 22 -295 66 -73 193 -108 288 -79 l48 15 -24 -31
c-42 -55 -57 -94 -57 -147 0 -117 99 -213 221 -214 69 -1 127 33 154 89 25 54
17 146 -16 181 -29 32 -71 54 -100 54 -70 0 -130 -92 -95 -145 35 -53 109 -52
122 1 6 21 2 31 -16 46 -12 10 -28 18 -35 18 -16 0 -42 -30 -47 -55 -4 -17 -6
-16 -13 8 -6 22 -3 35 12 55 61 82 173 26 173 -86 0 -56 -21 -95 -65 -122
-100 -62 -251 24 -263 148 -6 70 28 137 122 239 41 46 83 97 92 115 l17 32 11
-34 c7 -19 9 -44 5 -55 -10 -30 10 -74 42 -90 32 -17 156 -21 127 -4 -10 5
-30 31 -44 57 -33 58 -50 72 -85 72 -31 0 -32 4 -44 158 -7 92 -22 128 -73
174 -53 48 -143 73 -179 50z"/>
<path d="M1340 1644 c55 -24 87 -62 116 -136 29 -76 52 -98 104 -98 33 1 34 1
12 13 -12 7 -34 30 -48 50 -13 20 -29 37 -34 37 -6 0 -10 15 -10 33 0 18 -7
43 -16 56 -20 29 -89 61 -129 60 l-30 0 35 -15z"/>
<path d="M990 1640 c-19 -4 -28 -8 -19 -9 26 -2 59 -45 59 -77 0 -21 -10 -40
-35 -64 -44 -42 -48 -86 -10 -100 69 -26 138 64 115 151 -6 21 -25 50 -45 67
-21 19 -29 33 -22 36 17 6 -1 5 -43 -4z"/>
<path d="M1086 1606 c28 -28 34 -42 34 -75 0 -23 -6 -56 -13 -74 -16 -37 -80
-98 -129 -123 -70 -35 -96 -76 -76 -119 12 -28 53 -44 69 -28 7 7 2 9 -14 6
-19 -4 -29 1 -41 20 -24 35 -5 69 57 103 66 36 127 91 144 131 27 66 12 142
-37 180 -30 25 -27 12 6 -21z"/>
<path d="M1616 1391 c-4 -7 -5 -15 -2 -18 9 -9 19 4 14 18 -4 11 -6 11 -12 0z"/>
<path d="M1560 1355 c0 -8 9 -15 20 -15 11 0 20 7 20 15 0 8 -9 15 -20 15 -11
0 -20 -7 -20 -15z"/>
<path d="M1983 1292 c-40 -6 -73 -47 -73 -91 0 -36 8 -49 61 -108 69 -76 79
-96 79 -157 0 -50 -38 -110 -89 -140 l-33 -18 26 39 c35 52 42 118 19 163 -24
47 -76 80 -125 80 -55 0 -108 -50 -112 -105 -2 -22 -1 -27 1 -11 l5 29 12 -24
c13 -28 49 -32 54 -6 2 10 -3 17 -13 17 -20 0 -15 20 9 34 14 9 21 6 36 -14
10 -14 26 -33 34 -42 22 -25 40 -92 32 -123 -15 -58 -128 -73 -217 -27 -43 21
-60 37 -81 77 -15 28 -28 52 -28 55 0 3 10 10 22 15 72 31 -5 111 -77 81 -55
-24 -62 -91 -9 -98 23 -3 30 -13 58 -93 54 -149 102 -232 186 -316 153 -154
336 -200 469 -118 55 33 23 45 -35 12 -92 -52 -206 -32 -334 58 -68 48 -140
131 -178 204 -14 28 -12 27 31 -12 33 -30 55 -43 76 -43 20 0 34 -8 45 -25 10
-14 41 -42 71 -61 56 -35 76 -59 68 -81 -7 -19 12 -16 30 5 10 10 17 31 17 47
0 37 -71 106 -131 129 -24 8 -70 25 -102 37 -33 12 -75 37 -98 58 -21 21 -39
33 -39 27 -1 -14 -15 11 -25 42 l-6 22 37 -25 c108 -73 263 -54 398 49 57 43
102 48 133 14 33 -36 36 -61 12 -91 -24 -31 -69 -36 -90 -11 -12 15 -11 16 8
10 37 -12 68 35 41 62 -34 34 -89 -17 -72 -66 14 -40 54 -56 97 -39 108 46 35
199 -80 168 -47 -13 -51 -9 -17 18 30 23 40 26 49 11 9 -15 34 -12 89 8 l48
19 -36 22 c-22 14 -47 21 -67 19 -39 -4 -50 -24 -17 -31 21 -5 21 -5 -2 -4
-14 1 -34 -6 -44 -15 -26 -23 -35 -23 -29 1 9 36 -18 89 -83 162 -64 71 -75
99 -58 144 8 19 55 45 84 45 33 0 70 -44 70 -82 0 -38 -7 -51 -36 -66 -20 -11
-22 -9 -20 21 1 28 -2 32 -24 32 -32 0 -41 -42 -14 -62 50 -37 114 0 114 66 0
65 -60 114 -127 103z m-64 -278 c38 -32 54 -85 40 -136 -5 -21 -11 -38 -13
-38 -2 0 -1 21 1 48 5 58 -12 91 -57 115 -38 19 -90 17 -119 -5 -10 -7 -4 -1
11 15 38 37 94 37 137 1z m-331 -56 c2 -10 -1 -18 -7 -18 -6 0 -11 7 -11 15 0
9 -9 15 -21 15 -16 0 -20 -5 -16 -20 3 -11 1 -20 -4 -20 -11 0 -12 34 -2 44
13 13 58 1 61 -16z"/>
<path d="M947 1244 c-10 -11 5 -34 22 -34 23 0 31 9 24 26 -5 14 -34 19 -46 8z"/>
<path d="M1254 1105 c55 -19 88 -45 111 -88 17 -31 18 -40 7 -57 -6 -11 -12
-26 -12 -34 0 -16 34 -31 50 -21 12 8 13 55 1 55 -5 0 -11 14 -15 31 -3 17
-15 43 -26 59 -23 32 -94 70 -131 70 -19 -1 -16 -4 15 -15z"/>
<path d="M1364 875 c-4 -9 -2 -21 4 -27 15 -15 44 -1 40 19 -4 23 -36 29 -44
8z"/>
<path d="M1445 826 c-17 -108 39 -264 108 -301 28 -16 41 -18 54 -9 34 21 26
49 -30 105 -63 63 -96 122 -113 199 l-11 55 -8 -49z"/>
<path d="M2658 833 c-27 -31 -38 -60 -38 -100 1 -33 2 -36 12 -18 6 11 26 37
45 58 35 39 40 69 12 75 -8 1 -22 -5 -31 -15z"/>
<path d="M1335 831 c-8 -15 3 -31 21 -31 9 0 14 7 12 17 -4 20 -24 28 -33 14z"/>
<path d="M2666 719 c-28 -22 -34 -56 -15 -91 6 -11 9 -22 7 -24 -3 -2 -14 16
-26 40 -28 56 -45 70 -77 62 -30 -8 -33 -22 -5 -29 17 -4 20 -14 20 -65 0 -52
3 -63 22 -76 31 -22 64 -20 88 4 16 16 20 33 20 84 0 60 16 97 33 79 4 -3 7 1
7 9 0 14 -19 28 -39 28 -5 0 -20 -9 -35 -21z"/>
<path d="M3684 732 c2 -4 1 -14 -4 -22 -6 -10 -28 -15 -72 -15 -92 -1 -117
-20 -108 -85 4 -30 31 -45 93 -50 51 -4 62 -8 61 -22 -2 -22 9 -23 26 -4 23
29 7 60 -45 88 -44 25 -46 27 -18 22 45 -9 77 1 92 30 15 28 6 66 -15 66 -8 0
-13 -4 -10 -8z m-96 -133 c11 0 12 -2 4 -6 -15 -6 -42 14 -42 31 0 6 5 3 11
-6 5 -10 18 -18 27 -19z"/>
<path d="M3755 669 c-27 -17 -58 -35 -70 -39 -17 -7 -15 -9 16 -15 54 -10 129
24 129 59 0 34 -15 33 -75 -5z"/>
<path d="M2125 663 c-11 -3 -29 -12 -40 -20 l-20 -15 20 7 c95 37 193 -31 182
-127 -5 -34 11 -57 27 -41 12 12 6 94 -9 123 -27 53 -104 88 -160 73z"/>
<path d="M3443 624 c-9 -23 9 -48 37 -52 19 -3 21 0 15 15 -4 10 -10 26 -12
36 -7 22 -32 22 -40 1z"/>
<path d="M3011 609 c-13 -10 -34 -19 -48 -19 -13 0 -33 -5 -44 -11 -14 -7 -29
-7 -52 2 -26 9 -39 8 -69 -4 -35 -15 -98 -87 -98 -111 0 -6 5 -3 11 6 5 10 29
29 53 43 37 21 55 25 129 25 81 0 89 2 118 28 38 34 39 73 0 41z"/>
<path d="M3080 618 c-22 -10 -23 -12 -6 -16 10 -2 33 -13 50 -23 17 -10 41
-19 54 -19 31 0 30 -43 -3 -75 -33 -34 -81 -32 -154 6 -111 58 -210 40 -330
-62 -77 -65 -133 -108 -144 -109 -4 0 6 18 22 41 16 22 33 53 36 70 4 16 15
34 26 39 25 14 25 40 0 40 -11 0 -26 3 -35 6 -18 7 -23 -25 -6 -42 15 -15 -9
-80 -49 -126 -86 -101 -240 -90 -246 17 -3 44 -25 62 -25 21 0 -80 56 -126
152 -126 70 0 151 40 243 119 99 86 154 113 234 118 55 3 72 0 105 -19 109
-65 94 -214 -26 -250 -76 -22 -168 34 -168 104 0 33 47 88 75 88 20 0 57 -19
67 -34 12 -17 9 -64 -4 -72 -7 -4 -8 -3 -4 5 11 17 -21 61 -44 61 -29 0 -54
-43 -40 -69 15 -28 73 -28 100 -1 49 49 6 130 -70 130 -117 0 -139 -159 -30
-215 38 -20 124 -19 167 1 43 21 65 54 73 108 l5 41 34 -47 c66 -92 161 -111
256 -52 129 81 180 93 180 44 0 -27 32 -41 45 -19 21 32 -37 65 -98 56 l-37
-6 49 45 c62 57 94 74 155 81 96 11 161 -36 161 -118 0 -77 -93 -108 -151 -50
-33 34 -37 61 -11 84 23 21 46 22 66 1 9 -8 16 -12 16 -7 0 18 -25 33 -57 33
-65 0 -81 -73 -28 -126 19 -19 35 -24 74 -24 65 0 100 28 107 85 15 124 -132
192 -262 121 -28 -15 -81 -61 -121 -105 -81 -88 -120 -111 -190 -111 -63 0
-96 23 -149 102 l-42 63 29 6 c70 15 106 63 95 124 -12 60 -82 91 -146 63z"/>
<path d="M2430 595 c0 -14 12 -43 27 -66 31 -47 53 -123 47 -165 l-4 -29 15
30 c32 66 9 221 -36 245 -31 17 -49 12 -49 -15z"/>
<path d="M3371 583 c-65 -32 -142 -131 -141 -180 1 -10 7 -1 15 21 20 57 66
108 126 139 29 16 55 30 58 33 11 10 -27 2 -58 -13z"/>
<path d="M3328 510 c-21 -11 -38 -21 -38 -23 0 -1 36 -3 81 -5 79 -2 80 -2 77
20 -2 19 -10 23 -43 25 -25 2 -54 -5 -77 -17z"/>
<path d="M2330 475 c-26 -12 -31 -18 -20 -25 8 -5 24 -3 41 6 37 19 52 18 83
-7 28 -22 36 -75 14 -97 -17 -17 -58 -15 -80 5 -25 22 -23 -2 2 -27 11 -11 27
-20 35 -20 29 0 64 23 75 50 34 81 -61 154 -150 115z"/>
<path d="M2194 449 c-3 -6 -1 -16 5 -22 8 -8 11 -8 11 1 0 18 26 15 71 -9 27
-13 39 -25 35 -35 -3 -8 1 -14 9 -14 16 0 20 27 7 46 -22 34 -122 58 -138 33z"/>
<path d="M3231 339 c-1 -8 6 -24 15 -35 15 -19 15 -19 6 1 -5 11 -12 27 -15
35 -5 13 -6 13 -6 -1z"/>
<path d="M3596 272 c-8 -13 11 -35 23 -28 16 10 14 36 -3 36 -8 0 -17 -4 -20
-8z"/>
<path d="M3602 218 c6 -18 28 -21 28 -4 0 9 -7 16 -16 16 -9 0 -14 -5 -12 -12z"/>
</g>
</svg>
