<?xml version="1.0" standalone="no"?>
<!DOCTYPE svg PUBLIC "-//W3C//DTD SVG 20010904//EN"
 "http://www.w3.org/TR/2001/REC-SVG-20010904/DTD/svg10.dtd">
<svg version="1.0" xmlns="http://www.w3.org/2000/svg"
 width="229.000000pt" height="230.000000pt" viewBox="0 0 229.000000 230.000000"
 preserveAspectRatio="xMidYMid meet">

<g transform="translate(0.000000,230.000000) scale(0.100000,-0.100000)"
fill="#000000" stroke="none">
<path d="M1825 2266 c-52 -24 -119 -89 -135 -132 -16 -42 -11 -40 18 7 48 75
133 119 231 119 114 0 176 -68 168 -185 -3 -56 -3 -58 9 -30 35 81 -6 188 -88
231 -43 22 -145 18 -203 -10z"/>
<path d="M1671 2074 c0 -11 3 -14 6 -6 3 7 2 16 -1 19 -3 4 -6 -2 -5 -13z"/>
<path d="M1931 2037 c-1 -28 6 -44 24 -62 29 -30 59 -31 103 -5 34 21 45 38
13 20 -27 -14 -84 -13 -105 3 -10 7 -21 29 -26 47 l-8 35 -1 -38z"/>
<path d="M1672 1960 c0 -14 2 -19 5 -12 2 6 2 18 0 25 -3 6 -5 1 -5 -13z"/>
<path d="M1907 1922 c-34 -35 -47 -72 -47 -132 0 -44 -2 -48 -21 -43 -15 4
-22 0 -26 -16 -5 -19 -9 -16 -40 29 -19 29 -48 79 -65 113 -19 39 -28 51 -24
32 10 -49 68 -154 144 -261 77 -108 89 -134 45 -92 -16 15 -41 32 -56 37 -52
20 -50 11 4 -17 68 -35 74 -52 18 -52 -30 0 -54 8 -81 26 -40 28 -46 39 -25
47 7 3 5 6 -5 6 -39 2 -6 -49 49 -78 27 -14 88 -14 113 -1 16 8 24 2 55 -48
85 -137 109 -313 60 -458 -14 -41 -57 -132 -95 -203 -39 -70 -70 -131 -70
-134 0 -4 5 -7 11 -7 5 0 8 4 5 9 -3 5 1 11 9 15 9 3 12 12 8 23 -3 10 -2 15
2 10 5 -4 25 9 46 29 39 38 100 64 131 56 10 -2 30 -18 44 -35 21 -25 25 -38
20 -66 -6 -38 -37 -71 -66 -71 -18 0 -43 24 -53 50 -4 10 -6 9 -6 -6 -1 -11 7
-28 17 -37 61 -55 152 45 117 129 -16 38 -41 54 -85 54 -40 0 -66 -13 -112
-58 -21 -20 -38 -32 -38 -28 0 4 27 53 61 109 74 122 99 189 106 287 10 139
-29 249 -149 425 -100 147 -98 144 -65 123 32 -21 53 -23 64 -5 4 8 25 17 45
20 48 7 94 30 138 67 34 29 33 29 -25 -5 -59 -35 -132 -61 -142 -51 -10 10 48
84 88 112 21 14 39 29 39 31 0 9 -48 -22 -84 -56 -21 -20 -36 -28 -33 -19 27
78 31 148 8 163 -4 2 -20 -8 -34 -23z m15 -133 c-11 -22 -18 -49 -15 -59 3
-12 0 -20 -7 -20 -7 0 -10 7 -7 14 4 11 1 13 -10 9 -13 -5 -15 3 -11 59 3 54
9 73 33 104 l30 39 3 -53 c2 -38 -3 -66 -16 -93z m-72 -69 c0 -5 -4 -10 -10
-10 -5 0 -10 5 -10 10 0 6 5 10 10 10 6 0 10 -4 10 -10z m45 -30 c3 -5 -1 -10
-9 -10 -9 0 -16 5 -16 10 0 6 4 10 9 10 6 0 13 -4 16 -10z"/>
<path d="M2071 1871 c-8 -5 4 -7 33 -4 l47 6 -10 -27 c-14 -35 -5 -33 14 4
l16 30 -43 0 c-24 0 -49 -4 -57 -9z"/>
<path d="M1703 1402 c-25 -20 -63 -81 -63 -102 0 -8 9 -1 20 17 53 87 175 81
222 -11 14 -28 23 -67 26 -120 4 -75 4 -79 -14 -71 -11 4 -27 10 -36 12 -10 3
-18 9 -18 14 0 13 14 11 29 -3 11 -11 13 -10 9 2 -3 8 -14 16 -26 18 -17 3
-22 -2 -22 -17 0 -18 -6 -21 -45 -21 -25 0 -60 -6 -78 -14 -33 -14 -88 -66
-70 -66 6 0 13 7 16 15 4 8 24 23 45 34 32 16 48 18 95 12 59 -8 76 -16 63
-28 -4 -4 -11 -2 -15 5 -6 10 -18 7 -52 -13 -34 -19 -39 -25 -22 -25 l22 0
-23 -23 c-34 -34 -74 -107 -82 -151 -6 -37 -6 -38 17 -31 34 11 75 41 97 73
37 51 92 167 82 170 -5 2 -10 11 -10 20 1 15 2 15 14 0 22 -29 34 -21 42 28
16 110 -14 215 -76 268 -38 32 -112 36 -147 8z"/>
<path d="M1631 1254 c0 -11 3 -14 6 -6 3 7 2 16 -1 19 -3 4 -6 -2 -5 -13z"/>
<path d="M1640 1213 c0 -32 41 -63 83 -63 40 0 77 27 77 57 0 14 -3 13 -16 -5
-23 -34 -95 -31 -123 4 -19 24 -21 24 -21 7z"/>
<path d="M2175 1069 c-17 -8 -15 -8 8 -4 40 8 35 -17 -15 -71 -47 -51 -85 -74
-123 -74 -23 0 -25 2 -14 23 6 12 28 40 48 62 l36 40 -38 -35 c-46 -42 -73
-88 -59 -102 14 -14 77 6 118 37 39 30 94 101 94 122 0 15 -25 16 -55 2z"/>
<path d="M1876 969 c-15 -56 -25 -103 -23 -105 2 -3 16 41 31 97 15 55 26 103
23 105 -2 2 -16 -41 -31 -97z"/>
<path d="M1688 1033 c12 -2 30 -2 40 0 9 3 -1 5 -23 4 -22 0 -30 -2 -17 -4z"/>
<path d="M1831 804 c0 -11 3 -14 6 -6 3 7 2 16 -1 19 -3 4 -6 -2 -5 -13z"/>
<path d="M1205 642 c-18 -27 -18 -27 2 -9 11 9 23 14 26 10 4 -3 7 -1 7 5 0
23 -19 21 -35 -6z"/>
<path d="M944 646 c-51 -22 -74 -61 -74 -124 0 -50 3 -58 38 -92 70 -70 198
-81 358 -29 108 34 123 49 21 19 -37 -10 -65 -14 -62 -9 4 5 39 27 79 49 83
45 123 83 135 128 10 32 10 32 -28 32 -40 0 -67 -16 -133 -79 -33 -30 -38 -32
-38 -16 -1 16 -4 14 -16 -9 -12 -21 -13 -31 -5 -36 9 -5 7 -11 -4 -20 -13 -11
-14 -10 -9 4 5 12 2 15 -9 10 -13 -5 -17 4 -20 48 l-3 53 -2 -57 c-2 -51 -4
-56 -22 -51 -16 4 -20 0 -20 -20 0 -20 6 -26 30 -29 17 -3 30 0 30 5 0 6 2 8
5 5 3 -3 3 -12 0 -21 -14 -35 -183 -27 -235 11 -94 69 -62 216 50 229 56 6 88
-16 96 -68 5 -29 2 -41 -15 -58 -15 -15 -17 -21 -7 -21 20 0 45 26 52 55 7 27
-18 80 -45 95 -27 14 -110 12 -147 -4z m216 -206 c0 -5 -2 -10 -4 -10 -3 0 -8
5 -11 10 -3 6 -1 10 4 10 6 0 11 -4 11 -10z"/>
<path d="M1781 630 c-1 -12 -11 -15 -41 -12 -34 4 -41 1 -48 -19 -5 -13 -7
-32 -4 -42 6 -24 48 -40 71 -27 12 6 22 5 29 -2 20 -20 13 -28 -17 -22 -38 8
-75 -26 -65 -59 9 -29 23 -38 59 -35 27 3 30 7 33 41 3 34 6 37 32 35 37 -3
60 18 60 53 0 30 -30 55 -56 45 -11 -4 -13 0 -8 19 8 34 -4 32 -18 -2 l-11
-28 -7 35 c-4 19 -8 28 -9 20z"/>
<path d="M191 579 c-85 -26 -152 -92 -177 -175 -46 -155 30 -276 171 -273 27
1 41 3 30 6 -75 17 -99 27 -129 53 -112 98 -38 339 116 381 58 15 160 6 231
-21 33 -12 127 -67 210 -123 166 -109 240 -148 332 -172 123 -31 288 -11 387
49 51 30 188 135 188 143 0 5 6 9 -130 -76 -141 -86 -191 -103 -310 -103 -141
-1 -214 26 -434 162 -99 60 -204 119 -235 131 -64 25 -197 34 -250 18z"/>
<path d="M702 558 c9 -7 28 -31 42 -52 27 -40 35 -42 15 -3 -16 30 -50 67 -63
67 -5 0 -3 -6 6 -12z"/>
<path d="M682 525 c0 -16 2 -22 5 -12 2 9 2 23 0 30 -3 6 -5 -1 -5 -18z"/>
<path d="M1933 513 c-18 -2 -33 -8 -33 -14 0 -5 16 -27 36 -49 20 -22 34 -40
31 -40 -4 0 24 -31 62 -68 61 -62 107 -134 126 -200 21 -74 -178 44 -256 151
-16 22 -29 38 -29 35 0 -4 -15 9 -34 28 -19 19 -39 34 -44 34 -19 0 -35 -71
-29 -129 7 -82 42 -164 92 -218 36 -40 46 -46 57 -35 15 15 18 155 4 216 l-9
38 43 -46 c43 -46 164 -116 202 -116 18 0 19 5 13 38 -10 58 -49 135 -91 182
l-39 43 45 -7 c30 -4 37 -3 20 3 -71 23 -180 103 -180 131 0 6 15 10 33 11
127 4 189 -16 263 -83 64 -59 60 -67 -31 -69 -59 -1 -59 -1 -23 -11 46 -12
112 1 116 23 5 25 -87 107 -142 128 -54 20 -150 31 -203 24z m-100 -170 c34
-37 75 -128 83 -186 7 -51 -3 -137 -16 -137 -17 0 -68 60 -88 104 -26 54 -39
134 -34 199 5 54 17 59 55 20z"/>
<path d="M690 487 c-1 -27 67 -110 82 -101 4 3 8 22 8 42 l-1 37 -12 -28 -12
-29 -21 24 c-12 13 -26 32 -32 43 -6 11 -12 16 -12 12z"/>
<path d="M550 436 c0 -15 -7 -26 -17 -29 -14 -4 -12 -5 5 -6 34 -2 27 -16 -25
-51 -27 -18 -38 -30 -26 -27 19 4 19 1 -11 -42 -47 -65 -71 -152 -50 -174 11
-11 59 20 94 59 46 53 70 112 71 178 1 37 6 55 13 53 6 -3 10 -11 8 -18 -3
-12 -1 -12 10 -1 11 11 10 16 -7 28 -11 8 -21 19 -21 24 -1 6 -2 15 -3 20 0 6
-10 10 -21 10 -15 0 -20 -7 -20 -24z m30 -7 c0 -5 -4 -9 -10 -9 -5 0 -10 7
-10 16 0 8 5 12 10 9 6 -3 10 -10 10 -16z m0 -58 c0 -5 -9 -11 -21 -14 -16 -4
-18 -3 -8 9 13 16 29 19 29 5z m0 -53 c-1 -47 -32 -110 -79 -157 -67 -67 -87
-51 -54 44 16 48 98 145 123 145 5 0 10 -15 10 -32z"/>
<path d="M1841 428 c0 -13 4 -32 9 -43 7 -16 9 -13 9 18 1 42 0 41 38 27 26
-9 27 -9 9 5 -31 24 -66 20 -65 -7z"/>
<path d="M375 354 c-26 -24 -27 -27 -11 -36 9 -5 24 -7 34 -5 12 3 11 5 -5 6
-30 1 -29 15 3 40 15 12 22 21 17 21 -6 0 -23 -12 -38 -26z"/>
<path d="M1479 329 c-28 -56 -20 -103 24 -129 62 -38 137 -17 157 46 11 32 10
38 -11 60 -12 13 -32 24 -43 23 -15 0 -16 -2 -6 -6 54 -20 65 -70 24 -102 -38
-30 -80 -27 -115 8 -33 33 -37 67 -14 111 9 17 13 30 10 30 -2 0 -14 -19 -26
-41z"/>
<path d="M235 320 c-16 -7 -13 -9 16 -9 21 -1 43 -8 52 -19 17 -19 23 -90 10
-108 -5 -5 0 -1 10 9 17 20 23 82 9 104 -7 11 -56 34 -70 32 -4 0 -16 -4 -27
-9z"/>
<path d="M428 313 c6 -2 18 -2 25 0 6 3 1 5 -13 5 -14 0 -19 -2 -12 -5z"/>
<path d="M1332 270 c-61 -44 -102 -105 -102 -152 0 -44 10 -47 57 -18 32 19
93 94 93 113 0 5 -17 -13 -37 -41 -33 -44 -78 -82 -97 -82 -3 0 -6 13 -6 28 0
35 51 114 92 143 32 24 33 23 47 -11 9 -23 10 -22 10 13 1 20 -3 37 -7 37 -5
0 -28 -14 -50 -30z"/>
</g>
</svg>
